<?xml version="1.0" encoding="utf-8" ?>
<svg baseProfile="full" height="200" version="1.1" width="633" xmlns="http://www.w3.org/2000/svg" xmlns:ev="http://www.w3.org/2001/xml-events" xmlns:xlink="http://www.w3.org/1999/xlink"><defs><marker id="arrow" markerHeight="3.5" markerWidth="5" orient="auto" refX="5.0" refY="1.7"><polygon points="0,0 5,1.75 0,3.5" /></marker></defs><g style="fill:white;"><g transform="matrix(1.0, 0.0, 0.0, 1.0, 316.67, 100.00000000000001)"><g transform="matrix(63.49206349206349, 0.0, 0.0, 63.49206349206349, 0.0, 0.0)"><g><g transform="matrix(1.0, 0.0, 0.0, 1.0, -3.75005, -0.0)"><g><g><g><g><g><g><g><g><g><g transform="matrix(1.0, 0.0, 0.0, 1.0, -0.5, -1.0)"><g><g><g><g><g><g><g><g style="fill: #ffffff;stroke: black;stroke-width: 1.8;" transform="matrix(1.0, 0.0, 0.0, 1.0, -0.5, -0.5)"><path d="M 0.0 0.0 L 1.0 0.0 L 1.0 1.0 L 0.0 1.0 L 0.0 0.0 Z" style="vector-effect: non-scaling-stroke;" /></g></g><g transform="matrix(1.0, 0.0, 0.0, 1.0, 0.0, 0.5)"><g transform="matrix(0.0, -1.0, 1.0, 0.0, 0.0, 0.0)"><g /></g></g></g><g transform="matrix(1.0, 0.0, 0.0, 1.0, 0.0, 1.0)"><g><g style="fill: #ffffff;stroke: black;stroke-width: 1.8;" transform="matrix(1.0, 0.0, 0.0, 1.0, -0.5, -0.5)"><path d="M 0.0 0.0 L 1.0 0.0 L 1.0 1.0 L 0.0 1.0 L 0.0 0.0 Z" style="vector-effect: non-scaling-stroke;" /></g></g></g></g><g transform="matrix(1.0, 0.0, 0.0, 1.0, 0.0, 1.5)"><g transform="matrix(0.0, -1.0, 1.0, 0.0, 0.0, 0.0)"><g /></g></g></g><g transform="matrix(1.0, 0.0, 0.0, 1.0, 0.0, 2.0)"><g><g style="fill: #ffffff;stroke: black;stroke-width: 1.8;" transform="matrix(1.0, 0.0, 0.0, 1.0, -0.5, -0.5)"><path d="M 0.0 0.0 L 1.0 0.0 L 1.0 1.0 L 0.0 1.0 L 0.0 0.0 Z" style="vector-effect: non-scaling-stroke;" /></g></g></g></g><g transform="matrix(1.0, 0.0, 0.0, 1.0, 0.5, 0.0)"><g transform="matrix(1.0, -0.0, 0.0, 1.0, 0.0, 0.0)"><g /></g></g></g><g transform="matrix(1.0, 0.0, 0.0, 1.0, 1.0, 0.0)"><g><g><g><g><g><g style="fill: #ffffff;stroke: black;stroke-width: 1.8;" transform="matrix(1.0, 0.0, 0.0, 1.0, -0.5, -0.5)"><path d="M 0.0 0.0 L 1.0 0.0 L 1.0 1.0 L 0.0 1.0 L 0.0 0.0 Z" style="vector-effect: non-scaling-stroke;" /></g></g><g transform="matrix(1.0, 0.0, 0.0, 1.0, 0.0, 0.5)"><g transform="matrix(0.0, -1.0, 1.0, 0.0, 0.0, 0.0)"><g /></g></g></g><g transform="matrix(1.0, 0.0, 0.0, 1.0, 0.0, 1.0)"><g><g style="fill: #ffffff;stroke: black;stroke-width: 1.8;" transform="matrix(1.0, 0.0, 0.0, 1.0, -0.5, -0.5)"><path d="M 0.0 0.0 L 1.0 0.0 L 1.0 1.0 L 0.0 1.0 L 0.0 0.0 Z" style="vector-effect: non-scaling-stroke;" /></g></g></g></g><g transform="matrix(1.0, 0.0, 0.0, 1.0, 0.0, 1.5)"><g transform="matrix(0.0, -1.0, 1.0, 0.0, 0.0, 0.0)"><g /></g></g></g><g transform="matrix(1.0, 0.0, 0.0, 1.0, 0.0, 2.0)"><g><g style="fill: #ffffff;stroke: black;stroke-width: 1.8;" transform="matrix(1.0, 0.0, 0.0, 1.0, -0.5, -0.5)"><path d="M 0.0 0.0 L 1.0 0.0 L 1.0 1.0 L 0.0 1.0 L 0.0 0.0 Z" style="vector-effect: non-scaling-stroke;" /></g></g></g></g></g></g></g><g style="stroke: black;stroke-width: 0.9;" transform="matrix(1.0, 0.0, 0.0, 1.0, 1.5, 0.0)"><g /></g></g><g transform="matrix(1.0, 0.0, 0.0, 1.0, 2.5000999999999998, 0.0)"><g transform="matrix(1.0, 0.0, 0.0, 1.0, 0.0, 0.0)"><g transform="matrix(-1.0, 0, 0, -1.0, 0.0, 0.0)"><g><g style="stroke: black;stroke-width: 0.9;" transform="matrix(1.0, 0.0, 0.0, 1.0, 0.0, 0.0)"><path d="M 0.0 0.0 L 0.5 0.0" style="vector-effect: non-scaling-stroke;fill:none;" /></g><g style="stroke: black;stroke-width: 0.9;" transform="matrix(1.0, 0.0, 0.0, 1.0, 0.5, 0.0)"><g style="fill: #000000;stroke: black;stroke-width: 0.0;" transform="matrix(0.0, 0.09, -0.09, 0.0, -0.108, 0.0)"><path d="M 0.0 -0.2 L 1.0 0.2 L 0.0 -1.2 L -1.0 0.19999999999999996 L 0.0 -0.2 Z" style="vector-effect: non-scaling-stroke;" /></g></g></g></g></g></g></g><g style="stroke: black;stroke-width: 0.9;" transform="matrix(1.0, 0.0, 0.0, 1.0, 3.0000999999999998, 0.0)"><g /></g></g><g transform="matrix(1.0, 0.0, 0.0, 1.0, 4.5001, 0.0)"><g transform="matrix(1.0, 0.0, 0.0, 1.0, -0.5, -1.0)"><g><g><g><g><g><g><g><g style="fill: #ffffff;stroke: black;stroke-width: 1.8;" transform="matrix(1.0, 0.0, 0.0, 1.0, -0.5, -0.5)"><path d="M 0.0 0.0 L 1.0 0.0 L 1.0 1.0 L 0.0 1.0 L 0.0 0.0 Z" style="vector-effect: non-scaling-stroke;" /></g></g><g transform="matrix(1.0, 0.0, 0.0, 1.0, 0.0, 0.5)"><g transform="matrix(0.0, -1.0, 1.0, 0.0, 0.0, 0.0)"><g /></g></g></g><g transform="matrix(1.0, 0.0, 0.0, 1.0, 0.0, 1.0)"><g><g style="fill: #ffffff;stroke: black;stroke-width: 1.8;" transform="matrix(1.0, 0.0, 0.0, 1.0, -0.5, -0.5)"><path d="M 0.0 0.0 L 1.0 0.0 L 1.0 1.0 L 0.0 1.0 L 0.0 0.0 Z" style="vector-effect: non-scaling-stroke;" /></g></g></g></g><g transform="matrix(1.0, 0.0, 0.0, 1.0, 0.0, 1.5)"><g transform="matrix(0.0, -1.0, 1.0, 0.0, 0.0, 0.0)"><g /></g></g></g><g transform="matrix(1.0, 0.0, 0.0, 1.0, 0.0, 2.0)"><g><g style="fill: #ffffff;stroke: black;stroke-width: 1.8;" transform="matrix(1.0, 0.0, 0.0, 1.0, -0.5, -0.5)"><path d="M 0.0 0.0 L 1.0 0.0 L 1.0 1.0 L 0.0 1.0 L 0.0 0.0 Z" style="vector-effect: non-scaling-stroke;" /></g></g></g></g><g transform="matrix(1.0, 0.0, 0.0, 1.0, 0.5, 0.0)"><g transform="matrix(1.0, -0.0, 0.0, 1.0, 0.0, 0.0)"><g /></g></g></g><g transform="matrix(1.0, 0.0, 0.0, 1.0, 1.0, 0.0)"><g><g><g><g><g><g style="fill: #ffffff;stroke: black;stroke-width: 1.8;" transform="matrix(1.0, 0.0, 0.0, 1.0, -0.5, -0.5)"><path d="M 0.0 0.0 L 1.0 0.0 L 1.0 1.0 L 0.0 1.0 L 0.0 0.0 Z" style="vector-effect: non-scaling-stroke;" /></g></g><g transform="matrix(1.0, 0.0, 0.0, 1.0, 0.0, 0.5)"><g transform="matrix(0.0, -1.0, 1.0, 0.0, 0.0, 0.0)"><g /></g></g></g><g transform="matrix(1.0, 0.0, 0.0, 1.0, 0.0, 1.0)"><g><g style="fill: #ffffff;stroke: black;stroke-width: 1.8;" transform="matrix(1.0, 0.0, 0.0, 1.0, -0.5, -0.5)"><path d="M 0.0 0.0 L 1.0 0.0 L 1.0 1.0 L 0.0 1.0 L 0.0 0.0 Z" style="vector-effect: non-scaling-stroke;" /></g></g></g></g><g transform="matrix(1.0, 0.0, 0.0, 1.0, 0.0, 1.5)"><g transform="matrix(0.0, -1.0, 1.0, 0.0, 0.0, 0.0)"><g /></g></g></g><g transform="matrix(1.0, 0.0, 0.0, 1.0, 0.0, 2.0)"><g><g style="fill: #ffffff;stroke: black;stroke-width: 1.8;" transform="matrix(1.0, 0.0, 0.0, 1.0, -0.5, -0.5)"><path d="M 0.0 0.0 L 1.0 0.0 L 1.0 1.0 L 0.0 1.0 L 0.0 0.0 Z" style="vector-effect: non-scaling-stroke;" /></g></g></g></g></g></g></g></g></g><g style="stroke: black;stroke-width: 0.9;" transform="matrix(1.0, 0.0, 0.0, 1.0, 6.0001, 0.0)"><g /></g></g><g transform="matrix(1.0, 0.0, 0.0, 1.0, 7.5001, 0.0)"><g transform="matrix(1.0, 0.0, 0.0, 1.0, -0.5, -1.0)"><g><g><g><g><g><g><g><g style="fill: #ff9700;stroke: black;stroke-width: 1.8;" transform="matrix(1.0, 0.0, 0.0, 1.0, -0.5, -0.5)"><path d="M 0.0 0.0 L 1.0 0.0 L 1.0 1.0 L 0.0 1.0 L 0.0 0.0 Z" style="vector-effect: non-scaling-stroke;" /></g></g><g transform="matrix(1.0, 0.0, 0.0, 1.0, 0.0, 0.5)"><g transform="matrix(0.0, -1.0, 1.0, 0.0, 0.0, 0.0)"><g /></g></g></g><g transform="matrix(1.0, 0.0, 0.0, 1.0, 0.0, 1.0)"><g><g style="fill: #ff9700;stroke: black;stroke-width: 1.8;" transform="matrix(1.0, 0.0, 0.0, 1.0, -0.5, -0.5)"><path d="M 0.0 0.0 L 1.0 0.0 L 1.0 1.0 L 0.0 1.0 L 0.0 0.0 Z" style="vector-effect: non-scaling-stroke;" /></g></g></g></g><g transform="matrix(1.0, 0.0, 0.0, 1.0, 0.0, 1.5)"><g transform="matrix(0.0, -1.0, 1.0, 0.0, 0.0, 0.0)"><g /></g></g></g><g transform="matrix(1.0, 0.0, 0.0, 1.0, 0.0, 2.0)"><g><g style="fill: #ff9700;stroke: black;stroke-width: 1.8;" transform="matrix(1.0, 0.0, 0.0, 1.0, -0.5, -0.5)"><path d="M 0.0 0.0 L 1.0 0.0 L 1.0 1.0 L 0.0 1.0 L 0.0 0.0 Z" style="vector-effect: non-scaling-stroke;" /></g></g></g></g><g transform="matrix(1.0, 0.0, 0.0, 1.0, 0.5, 0.0)"><g transform="matrix(1.0, -0.0, 0.0, 1.0, 0.0, 0.0)"><g /></g></g></g><g transform="matrix(1.0, 0.0, 0.0, 1.0, 1.0, 0.0)"><g><g><g><g><g><g style="fill: #ff9700;stroke: black;stroke-width: 1.8;" transform="matrix(1.0, 0.0, 0.0, 1.0, -0.5, -0.5)"><path d="M 0.0 0.0 L 1.0 0.0 L 1.0 1.0 L 0.0 1.0 L 0.0 0.0 Z" style="vector-effect: non-scaling-stroke;" /></g></g><g transform="matrix(1.0, 0.0, 0.0, 1.0, 0.0, 0.5)"><g transform="matrix(0.0, -1.0, 1.0, 0.0, 0.0, 0.0)"><g /></g></g></g><g transform="matrix(1.0, 0.0, 0.0, 1.0, 0.0, 1.0)"><g><g style="fill: #ff9700;stroke: black;stroke-width: 1.8;" transform="matrix(1.0, 0.0, 0.0, 1.0, -0.5, -0.5)"><path d="M 0.0 0.0 L 1.0 0.0 L 1.0 1.0 L 0.0 1.0 L 0.0 0.0 Z" style="vector-effect: non-scaling-stroke;" /></g></g></g></g><g transform="matrix(1.0, 0.0, 0.0, 1.0, 0.0, 1.5)"><g transform="matrix(0.0, -1.0, 1.0, 0.0, 0.0, 0.0)"><g /></g></g></g><g transform="matrix(1.0, 0.0, 0.0, 1.0, 0.0, 2.0)"><g><g style="fill: #ff9700;stroke: black;stroke-width: 1.8;" transform="matrix(1.0, 0.0, 0.0, 1.0, -0.5, -0.5)"><path d="M 0.0 0.0 L 1.0 0.0 L 1.0 1.0 L 0.0 1.0 L 0.0 0.0 Z" style="vector-effect: non-scaling-stroke;" /></g></g></g></g></g></g></g></g></g><g transform="matrix(1.0, 0.0, 0.0, 1.0, 4.0001, -1.0)"><g transform="matrix(-1.0, 0, 0, -1.0, 0.0, 0.0)"><g><g style="stroke: black;stroke-width: 0.9;" transform="matrix(1.0, 0.0, 0.0, 1.0, 0.0, 0.0)"><path d="M 0.0 0.0 L 4.5001 0.0" style="vector-effect: non-scaling-stroke;fill:none;" /></g><g style="stroke: black;stroke-width: 0.9;" transform="matrix(1.0, 0.0, 0.0, 1.0, 4.5001, 0.0)"><g style="fill: #000000;stroke: black;stroke-width: 0.0;" transform="matrix(0.0, 0.09, -0.09, 0.0, -0.108, 0.0)"><path d="M 0.0 -0.2 L 1.0 0.2 L 0.0 -1.2 L -1.0 0.19999999999999996 L 0.0 -0.2 Z" style="vector-effect: non-scaling-stroke;" /></g></g></g></g></g></g><g transform="matrix(1.0, 0.0, 0.0, 1.0, 4.0001, 0.0)"><g transform="matrix(-1.0, 0, 0, -1.0, 0.0, 0.0)"><g><g style="stroke: black;stroke-width: 0.9;" transform="matrix(1.0, 0.0, 0.0, 1.0, 0.0, 0.0)"><path d="M 0.0 0.0 L 4.5001 0.0" style="vector-effect: non-scaling-stroke;fill:none;" /></g><g style="stroke: black;stroke-width: 0.9;" transform="matrix(1.0, 0.0, 0.0, 1.0, 4.5001, 0.0)"><g style="fill: #000000;stroke: black;stroke-width: 0.0;" transform="matrix(0.0, 0.09, -0.09, 0.0, -0.108, 0.0)"><path d="M 0.0 -0.2 L 1.0 0.2 L 0.0 -1.2 L -1.0 0.19999999999999996 L 0.0 -0.2 Z" style="vector-effect: non-scaling-stroke;" /></g></g></g></g></g></g><g transform="matrix(1.0, 0.0, 0.0, 1.0, 7.0001, -1.0)"><g transform="matrix(-1.0, 0, 0, -1.0, 0.0, 0.0)"><g><g style="stroke: black;stroke-width: 0.9;" transform="matrix(1.0, 0.0, 0.0, 1.0, 0.0, 0.0)"><path d="M 0.0 0.0 L 3.0 0.0" style="vector-effect: non-scaling-stroke;fill:none;" /></g><g style="stroke: black;stroke-width: 0.9;" transform="matrix(1.0, 0.0, 0.0, 1.0, 3.0, 0.0)"><g style="fill: #000000;stroke: black;stroke-width: 0.0;" transform="matrix(0.0, 0.09, -0.09, 0.0, -0.108, 0.0)"><path d="M 0.0 -0.2 L 1.0 0.2 L 0.0 -1.2 L -1.0 0.19999999999999996 L 0.0 -0.2 Z" style="vector-effect: non-scaling-stroke;" /></g></g></g></g></g></g></g><g /></g></g></g></g></svg>
