<?xml version="1.0" encoding="UTF-8"?>
<svg version="1.1" xmlns="http://www.w3.org/2000/svg" width="420" height="120">
<path d="M0 0 C138.6 0 277.2 0 420 0 C420 39.6 420 79.2 420 120 C281.4 120 142.8 120 0 120 C0 80.4 0 40.8 0 0 Z " fill="#FDFDFD" transform="translate(0,0)"/>
<path d="M0 0 C1.29804565 -0.00315216 2.59609131 -0.00630432 3.93347168 -0.009552 C5.36124709 -0.00776222 6.78902219 -0.00571127 8.21679688 -0.00341797 C9.67028825 -0.00409105 11.12377952 -0.00506111 12.57727051 -0.00631714 C15.62720814 -0.00779393 18.67711654 -0.00564017 21.72705078 -0.00097656 C25.64485247 0.00472073 29.56258566 0.00144162 33.48038483 -0.00454903 C36.48285441 -0.00815515 39.48530764 -0.00701582 42.48777771 -0.00442123 C43.93273425 -0.00375211 45.37769226 -0.00457989 46.82264709 -0.00690079 C48.83879571 -0.00942812 50.8549495 -0.00489598 52.87109375 0 C54.59531555 0.00119339 54.59531555 0.00119339 56.35437012 0.00241089 C58.93554688 0.12939453 58.93554688 0.12939453 59.93554688 1.12939453 C60.02413333 3.86833538 60.05078166 6.58192723 60.03320312 9.32080078 C60.03178818 10.1406395 60.03037323 10.96047821 60.02891541 11.80516052 C60.02329977 14.43410835 60.01074467 17.06297227 59.99804688 19.69189453 C59.99303389 21.4698881 59.98847063 23.24788299 59.984375 25.02587891 C59.97332526 29.39374998 59.95605019 33.76155801 59.93554688 38.12939453 C61.91554687 38.62439453 61.91554687 38.62439453 63.93554688 39.12939453 C63.93554688 64.20939453 63.93554688 89.28939453 63.93554688 115.12939453 C60.99837741 116.59797926 58.39407444 116.25673748 55.11499023 116.25878906 C54.41404739 116.26054138 53.71310455 116.2622937 52.99092102 116.26409912 C50.66905253 116.26850819 48.34725992 116.26558328 46.02539062 116.26220703 C44.41638677 116.26288027 42.80738302 116.26385046 41.19837952 116.2651062 C37.82487012 116.26658183 34.45138718 116.26443265 31.07788086 116.25976562 C26.74421811 116.25406384 22.41061723 116.25735103 18.07695675 116.26333809 C14.7545169 116.26694344 11.43209184 116.26580532 8.10965157 116.2632103 C6.51118525 116.26254119 4.91271762 116.26336888 3.31425285 116.26568985 C1.08503513 116.26821644 -1.1440809 116.26437593 -3.37329102 116.25878906 C-5.27951988 116.25759567 -5.27951988 116.25759567 -7.22425842 116.25637817 C-10.06445313 116.12939453 -10.06445313 116.12939453 -11.06445312 115.12939453 C-11.15940046 112.75638584 -11.19004632 110.4126075 -11.17797852 108.03930664 C-11.17812454 107.29788925 -11.17827057 106.55647186 -11.17842102 105.79258728 C-11.17772178 103.33060832 -11.16992887 100.8687041 -11.16210938 98.40673828 C-11.16024524 96.70422914 -11.15882131 95.00171946 -11.15782166 93.29920959 C-11.15399615 88.8094638 -11.14416559 84.31975015 -11.13311768 79.83001709 C-11.12290426 75.25207962 -11.11832419 70.67413698 -11.11328125 66.09619141 C-11.10254335 57.10724496 -11.08546654 48.11832241 -11.06445312 39.12939453 C-9.08445312 38.63439453 -9.08445312 38.63439453 -7.06445312 38.12939453 C-7.06968994 37.0137915 -7.07492676 35.89818848 -7.08032227 34.7487793 C-7.09837088 30.6246012 -7.10988461 26.50042663 -7.11938477 22.3762207 C-7.12442531 20.58845432 -7.13125767 18.80069209 -7.13989258 17.01293945 C-7.15197043 14.44888285 -7.15768407 11.88488056 -7.16210938 9.32080078 C-7.16727066 8.51663223 -7.17243195 7.71246368 -7.17774963 6.88392639 C-7.17794527 4.96537738 -7.12647295 3.04694085 -7.06445312 1.12939453 C-5.2502943 -0.68476429 -2.43999611 0.0016888 0 0 Z " fill="#F7F7F7" transform="translate(14.064453125,2.87060546875)"/>
<path d="M0 0 C1.29804565 -0.00315216 2.59609131 -0.00630432 3.93347168 -0.009552 C5.36124709 -0.00776222 6.78902219 -0.00571127 8.21679688 -0.00341797 C9.67028825 -0.00409105 11.12377952 -0.00506111 12.57727051 -0.00631714 C15.62720814 -0.00779393 18.67711654 -0.00564017 21.72705078 -0.00097656 C25.64485247 0.00472073 29.56258566 0.00144162 33.48038483 -0.00454903 C36.48285441 -0.00815515 39.48530764 -0.00701582 42.48777771 -0.00442123 C43.93273425 -0.00375211 45.37769226 -0.00457989 46.82264709 -0.00690079 C48.83879571 -0.00942812 50.8549495 -0.00489598 52.87109375 0 C54.59531555 0.00119339 54.59531555 0.00119339 56.35437012 0.00241089 C58.93554688 0.12939453 58.93554688 0.12939453 59.93554688 1.12939453 C60.02413333 3.86833538 60.05078166 6.58192723 60.03320312 9.32080078 C60.03178818 10.1406395 60.03037323 10.96047821 60.02891541 11.80516052 C60.02329977 14.43410835 60.01074467 17.06297227 59.99804688 19.69189453 C59.99303389 21.4698881 59.98847063 23.24788299 59.984375 25.02587891 C59.97332526 29.39374998 59.95605019 33.76155801 59.93554688 38.12939453 C61.91554687 38.62439453 61.91554687 38.62439453 63.93554688 39.12939453 C63.93554688 64.20939453 63.93554688 89.28939453 63.93554688 115.12939453 C60.99837741 116.59797926 58.39407444 116.25673748 55.11499023 116.25878906 C54.41404739 116.26054138 53.71310455 116.2622937 52.99092102 116.26409912 C50.66905253 116.26850819 48.34725992 116.26558328 46.02539062 116.26220703 C44.41638677 116.26288027 42.80738302 116.26385046 41.19837952 116.2651062 C37.82487012 116.26658183 34.45138718 116.26443265 31.07788086 116.25976562 C26.74421811 116.25406384 22.41061723 116.25735103 18.07695675 116.26333809 C14.7545169 116.26694344 11.43209184 116.26580532 8.10965157 116.2632103 C6.51118525 116.26254119 4.91271762 116.26336888 3.31425285 116.26568985 C1.08503513 116.26821644 -1.1440809 116.26437593 -3.37329102 116.25878906 C-5.27951988 116.25759567 -5.27951988 116.25759567 -7.22425842 116.25637817 C-10.06445313 116.12939453 -10.06445313 116.12939453 -11.06445312 115.12939453 C-11.15940046 112.75638584 -11.19004632 110.4126075 -11.17797852 108.03930664 C-11.17812454 107.29788925 -11.17827057 106.55647186 -11.17842102 105.79258728 C-11.17772178 103.33060832 -11.16992887 100.8687041 -11.16210938 98.40673828 C-11.16024524 96.70422914 -11.15882131 95.00171946 -11.15782166 93.29920959 C-11.15399615 88.8094638 -11.14416559 84.31975015 -11.13311768 79.83001709 C-11.12290426 75.25207962 -11.11832419 70.67413698 -11.11328125 66.09619141 C-11.10254335 57.10724496 -11.08546654 48.11832241 -11.06445312 39.12939453 C-9.08445312 38.63439453 -9.08445312 38.63439453 -7.06445312 38.12939453 C-7.06968994 37.0137915 -7.07492676 35.89818848 -7.08032227 34.7487793 C-7.09837088 30.6246012 -7.10988461 26.50042663 -7.11938477 22.3762207 C-7.12442531 20.58845432 -7.13125767 18.80069209 -7.13989258 17.01293945 C-7.15197043 14.44888285 -7.15768407 11.88488056 -7.16210938 9.32080078 C-7.16727066 8.51663223 -7.17243195 7.71246368 -7.17774963 6.88392639 C-7.17794527 4.96537738 -7.12647295 3.04694085 -7.06445312 1.12939453 C-5.2502943 -0.68476429 -2.43999611 0.0016888 0 0 Z M-6.06445312 43.12939453 C-6.06445312 65.56939453 -6.06445312 88.00939453 -6.06445312 111.12939453 C15.38554687 111.12939453 36.83554687 111.12939453 58.93554688 111.12939453 C58.93554688 88.68939453 58.93554688 66.24939453 58.93554688 43.12939453 C37.48554687 43.12939453 16.03554688 43.12939453 -6.06445312 43.12939453 Z " fill="#0D0D0D" transform="translate(14.064453125,2.87060546875)"/>
<path d="M0 0 C18.81 0 37.62 0 57 0 C57 11.22 57 22.44 57 34 C54.03 34 51.06 34 48 34 C47.91921359 31.87561661 47.86090859 29.7503677 47.8125 27.625 C47.77769531 26.44164063 47.74289063 25.25828125 47.70703125 24.0390625 C47.80371094 23.03617188 47.90039062 22.03328125 48 21 C48.99 20.34 49.98 19.68 51 19 C51.79143214 14.98076618 51.5307631 11.14533089 49.8125 7.4375 C48.04514765 5.81157205 48.04514765 5.81157205 45.5 5.5 C42.94285404 5.80598594 42.94285404 5.80598594 41.1875 7.5 C39.40623005 11.250042 39.60512329 13.85379452 40 18 C40.49886719 18.43828125 40.99773438 18.8765625 41.51171875 19.328125 C43.82690599 21.92891276 43.28824559 24.29573197 43.1875 27.6875 C43.14689453 29.45673828 43.14689453 29.45673828 43.10546875 31.26171875 C43.07066406 32.16535156 43.03585938 33.06898437 43 34 C39.04 34 35.08 34 31 34 C30.9189794 31.89646505 30.86080093 29.79204048 30.8125 27.6875 C30.77769531 26.51574219 30.74289063 25.34398437 30.70703125 24.13671875 C31.03416094 20.63425017 31.48913373 20.20592902 34 18 C34.39174433 13.88668458 34.56377991 11.25284424 32.875 7.5 C30.24118585 5.39294868 28.27388743 5.70898778 25 6 C22.84136905 9.54015475 21.98511488 11.55344637 22.125 15.75 C22.68948212 19.26910119 22.68948212 19.26910119 26 21 C26.29296875 24.0390625 26.29296875 24.0390625 26.1875 27.625 C26.16042969 28.81351563 26.13335937 30.00203125 26.10546875 31.2265625 C26.07066406 32.14179687 26.03585938 33.05703125 26 34 C22.04 34 18.08 34 14 34 C13.9189794 31.89646505 13.86080093 29.79204048 13.8125 27.6875 C13.76029297 25.92986328 13.76029297 25.92986328 13.70703125 24.13671875 C14.0318579 20.65890812 14.46870138 20.16501251 17 18 C17.421852 14.20333199 17.24316571 11.63493269 15.875 8.0625 C14.11124186 5.71683631 14.11124186 5.71683631 11 5.375 C7.87551734 5.71336379 7.87551734 5.71336379 6.125 8.125 C4.83187597 11.42965029 4.47654296 13.48535988 5 17 C5.66386719 17.58136719 6.32773437 18.16273437 7.01171875 18.76171875 C9.7265742 21.81793127 9.41070945 23.73226379 9.25 27.75 C9.21390625 28.92046875 9.1778125 30.0909375 9.140625 31.296875 C9.07101563 32.63492188 9.07101563 32.63492188 9 34 C6.03 34 3.06 34 0 34 C0 22.78 0 11.56 0 0 Z " fill="#EFEFEF" transform="translate(12,7)"/>
<path d="M0 0 C3.69214104 2.51736889 6.95362544 5.40573799 8.37109375 9.80078125 C9.58192041 16.42912099 9.20678327 22.9766226 5.75 28.875 C2.26181257 32.81264575 -1.20653587 34.53183676 -6.36328125 35.11328125 C-11.89594717 35.29999644 -16.06306795 34.7039819 -20.25 30.875 C-24.16829107 25.94815472 -24.88484636 20.72755938 -24.63671875 14.55859375 C-23.83998242 9.02972646 -21.7049376 5.25896503 -17.6875 1.4375 C-12.1941173 -2.08389917 -6.05385518 -2.09556526 0 0 Z " fill="#0D0D0D" transform="translate(284.25,66.125)"/>
<path d="M0 0 C-0.144375 1.155 -0.28875 2.31 -0.4375 3.5 C-0.45788918 9.28033233 3.1676211 12.08843972 7 16 C10.32220677 19.6675847 12.30924457 22.51427516 12.5625 27.5625 C12.21621316 33.21851831 9.65729098 36.47019294 5.5625 40.25 C0.63217388 43.61705198 -2.83548049 44.43893193 -8.71875 43.60546875 C-13.52157506 42.33074635 -16.70370214 39.4635621 -19.9375 35.8125 C-21.51098661 31.64738838 -21.75951026 27.39324564 -21 23 C-19.4765625 21.1953125 -19.4765625 21.1953125 -18 20 C-17.01 20.33 -16.02 20.66 -15 21 C-14.67 21.99 -14.34 22.98 -14 24 C-11.98491642 24.73323796 -11.98491642 24.73323796 -10 25 C-10.7425 23.5459375 -10.7425 23.5459375 -11.5 22.0625 C-13.58920988 17.11437133 -14.15979087 12.08088037 -12.23828125 6.9765625 C-9.17571898 1.23879762 -6.55653565 -2.00338589 0 0 Z " fill="#0C0C0C" transform="translate(45,60)"/>
<path d="M0 0 C2.5625 2.0625 2.5625 2.0625 4 4 C4.53625 3.731875 5.0725 3.46375 5.625 3.1875 C6.40875 2.795625 7.1925 2.40375 8 2 C8.928125 1.443125 9.85625 0.88625 10.8125 0.3125 C14.8167331 -1.33630186 16.85809445 -1.20491798 21 0 C24.42720763 2.75666701 26.26785841 4.68855272 27 9 C27.08059997 10.9517327 27.10762243 12.90600418 27.09765625 14.859375 C27.09443359 15.97441406 27.09121094 17.08945313 27.08789062 18.23828125 C27.07532227 19.97658203 27.07532227 19.97658203 27.0625 21.75 C27.05798828 22.92433594 27.05347656 24.09867188 27.04882812 25.30859375 C27.03705094 28.20578072 27.02060326 31.10286454 27 34 C25.02 34 23.04 34 21 34 C20.98541748 33.26362305 20.97083496 32.52724609 20.95581055 31.76855469 C20.88128889 28.42850996 20.78464127 25.08946019 20.6875 21.75 C20.65366211 20.01169922 20.65366211 20.01169922 20.61914062 18.23828125 C20.58369141 17.12324219 20.54824219 16.00820312 20.51171875 14.859375 C20.48553467 13.83295898 20.45935059 12.80654297 20.43237305 11.74902344 C19.9450351 8.65053374 19.17059508 7.23583423 17 5 C13.84108382 4.33496502 12.29541696 4.86046075 9.38671875 6.234375 C5.47255224 10.76993947 6.21650431 15.95558426 6.1875 21.75 C6.16236328 22.92433594 6.13722656 24.09867188 6.11132812 25.30859375 C6.05243642 28.20606565 6.01617031 31.10202605 6 34 C4.02 34 2.04 34 0 34 C-0.01981934 33.29391602 -0.03963867 32.58783203 -0.06005859 31.86035156 C-0.15540415 28.65653006 -0.26504513 25.45335199 -0.375 22.25 C-0.4059375 21.13882813 -0.436875 20.02765625 -0.46875 18.8828125 C-0.50742188 17.81289062 -0.54609375 16.74296875 -0.5859375 15.640625 C-0.63306885 14.16384277 -0.63306885 14.16384277 -0.68115234 12.65722656 C-1.00677148 9.94356756 -1.48538806 8.26514185 -3 6 C-5.76409672 4.73280028 -5.76409672 4.73280028 -9 5 C-11.89329009 6.59382233 -13.199307 7.34947613 -15 10 C-15.88736384 14.10029772 -15.88477984 18.12917533 -15.875 22.3125 C-15.895625 23.43462891 -15.91625 24.55675781 -15.9375 25.71289062 C-15.9845317 28.47600293 -16.00444741 31.2365698 -16 34 C-17.98 34 -19.96 34 -22 34 C-22 22.78 -22 11.56 -22 0 C-20.02 0 -18.04 0 -16 0 C-15.67 0.99 -15.34 1.98 -15 3 C-14.195625 2.319375 -13.39125 1.63875 -12.5625 0.9375 C-8.4749267 -1.79078526 -4.58034537 -1.39930855 0 0 Z " fill="#0C0C0C" transform="translate(127,66)"/>
<path d="M0 0 C1.98 0 3.96 0 6 0 C6 6.6 6 13.2 6 20 C7.98 18.68 9.96 17.36 12 16 C14.94310532 14.96125695 16.75223652 15 20 15 C23.79560358 16.96809074 25.6288722 18.4433083 28 22 C28.22705078 24.91088867 28.22705078 24.91088867 28.1953125 28.41796875 C28.18886719 29.67158203 28.18242187 30.92519531 28.17578125 32.21679688 C28.15902344 33.52712891 28.14226562 34.83746094 28.125 36.1875 C28.11496639 37.52277987 28.1058412 38.85806689 28.09765625 40.19335938 C28.07405292 43.46242015 28.04112594 46.73112028 28 50 C26.35 50 24.7 50 23 50 C22.98018066 49.3294458 22.96036133 48.6588916 22.93994141 47.96801758 C22.84440285 44.91579839 22.73484055 41.86423659 22.625 38.8125 C22.5940625 37.75740234 22.563125 36.70230469 22.53125 35.61523438 C22.49257813 34.59365234 22.45390625 33.57207031 22.4140625 32.51953125 C22.36693115 31.11344604 22.36693115 31.11344604 22.31884766 29.67895508 C21.97977169 26.83004192 21.17742543 24.60479556 20 22 C15.75251853 20.89565482 13.7368865 20.60265924 9.8125 22.71875 C6.78982808 25.41922503 6.4933598 27.77009331 6.1953125 31.73828125 C6.14236043 33.92917302 6.11987662 36.12097441 6.125 38.3125 C6.104375 39.43462891 6.08375 40.55675781 6.0625 41.71289062 C6.0154683 44.47600293 5.99555259 47.2365698 6 50 C4.02 50 2.04 50 0 50 C0 33.5 0 17 0 0 Z " fill="#080808" transform="translate(358,50)"/>
<path d="M0 0 C2.58297781 2.18991597 4.48415844 3.96831688 6 7 C6.08527628 9.03232634 6.10716135 11.06747006 6.09765625 13.1015625 C6.09443359 14.31328125 6.09121094 15.525 6.08789062 16.7734375 C6.07951172 18.04445313 6.07113281 19.31546875 6.0625 20.625 C6.05798828 21.90375 6.05347656 23.1825 6.04882812 24.5 C6.03701203 27.66671292 6.02053815 30.83333356 6 34 C4.02 34 2.04 34 0 34 C-0.01458252 33.22809326 -0.02916504 32.45618652 -0.04418945 31.66088867 C-0.11858033 28.16924907 -0.2152709 24.6785751 -0.3125 21.1875 C-0.33505859 19.97255859 -0.35761719 18.75761719 -0.38085938 17.50585938 C-0.4340332 15.76079102 -0.4340332 15.76079102 -0.48828125 13.98046875 C-0.51446533 12.90692139 -0.54064941 11.83337402 -0.56762695 10.72729492 C-0.79556144 7.99922156 -0.79556144 7.99922156 -2.31713867 6.12231445 C-4.13964788 4.67594209 -4.13964788 4.67594209 -7.4375 5.0625 C-11.36582969 6.09627097 -12.52238392 6.8693275 -15 10 C-15.6363651 12.69237987 -15.6363651 12.69237987 -15.609375 15.640625 C-15.64160156 16.71054688 -15.67382812 17.78046875 -15.70703125 18.8828125 C-15.72121094 19.99398437 -15.73539063 21.10515625 -15.75 22.25 C-15.77964844 23.37664062 -15.80929688 24.50328125 -15.83984375 25.6640625 C-15.91048912 28.44278021 -15.96321277 31.22066148 -16 34 C-17.98 34 -19.96 34 -22 34 C-22 22.78 -22 11.56 -22 0 C-20.35 0 -18.7 0 -17 0 C-16.67 1.32 -16.34 2.64 -16 4 C-15.2575 3.360625 -14.515 2.72125 -13.75 2.0625 C-9.03293632 -1.47529776 -5.75504546 -1.41351994 0 0 Z " fill="#070707" transform="translate(204,66)"/>
<path d="M0 0 C3.21496454 1.85753507 4.65591306 3.34310675 6.375 6.625 C7.45871048 12.47703659 7.47451108 18.55149247 4 23.625 C0.48551639 26.40729953 -1.44150618 26.92182753 -5.83984375 26.5546875 C-8.65526073 25.83174137 -10.52261024 24.65671538 -12.1875 22.24609375 C-14.05095795 17.09470758 -13.90585631 11.3414286 -13 6 C-9.25175578 0.36613599 -6.73461018 -0.57072968 0 0 Z " fill="#F9F9F9" transform="translate(280,70)"/>
<path d="M0 0 C1.98 0 3.96 0 6 0 C6 2.97 6 5.94 6 9 C8.97 9 11.94 9 15 9 C15 10.65 15 12.3 15 14 C12.03 14 9.06 14 6 14 C6.13815529 17.81281945 6.28680562 21.62515717 6.4375 25.4375 C6.49647461 27.07041992 6.49647461 27.07041992 6.55664062 28.73632812 C6.61948242 30.28803711 6.61948242 30.28803711 6.68359375 31.87109375 C6.72025146 32.82943115 6.75690918 33.78776855 6.79467773 34.77514648 C6.75834424 36.97138925 6.75834424 36.97138925 8 38 C10.33297433 38.04092937 12.66705225 38.04241723 15 38 C15 39.65 15 41.3 15 43 C11.81496713 44.59251643 8.4667595 44.39129761 5 44 C1.76386646 42.25746655 1.17604685 41.52814056 0 38 C-0.08266486 36.08093083 -0.10740663 34.15910526 -0.09765625 32.23828125 C-0.09443359 31.12001953 -0.09121094 30.00175781 -0.08789062 28.84960938 C-0.07951172 27.68236328 -0.07113281 26.51511719 -0.0625 25.3125 C-0.05798828 24.13365234 -0.05347656 22.95480469 -0.04882812 21.74023438 C-0.03703273 18.82677211 -0.0205727 15.91341137 0 13 C-1.98 13 -3.96 13 -6 13 C-6 11.68 -6 10.36 -6 9 C-4.02 9 -2.04 9 0 9 C0 6.03 0 3.06 0 0 Z " fill="#0F0F0F" transform="translate(240,57)"/>
<path d="M0 0 C2.2890625 1.38671875 2.2890625 1.38671875 4 3 C4.25 5.6875 4.25 5.6875 4 8 C-0.75 6.125 -0.75 6.125 -3 5 C-6.41571853 4.49968794 -6.41571853 4.49968794 -10 5 C-12.77113222 7.6677685 -13.89501151 9.33204172 -14.49609375 13.15625 C-14.47675781 14.2596875 -14.45742188 15.363125 -14.4375 16.5 C-14.43621094 17.6034375 -14.43492187 18.706875 -14.43359375 19.84375 C-13.92015198 23.58123605 -12.69100961 26.30899039 -10 29 C-4.91433169 29.39120525 -2.18961597 28.87287952 2 26 C2.66 26 3.32 26 4 26 C4.25 28.3125 4.25 28.3125 4 31 C0.38741665 34.61258335 -2.9350244 34.91411487 -7.875 35.3125 C-12.24077535 35.23933058 -14.6913959 33.92388269 -18 31 C-20.83570357 26.4046713 -21.54875911 22.37536781 -21.5 17.0625 C-21.49500488 16.35391846 -21.49000977 15.64533691 -21.48486328 14.9152832 C-21.35449231 11.02887958 -21.04833241 7.95450937 -18.875 4.6875 C-12.90381115 -0.89426349 -7.8878446 -2.05656674 0 0 Z " fill="#0A0A0A" transform="translate(346,66)"/>
<path d="M0 0 C0.66 0 1.32 0 2 0 C2.515625 1.175625 3.03125 2.35125 3.5625 3.5625 C5.58876603 7.66605314 8.16499561 10.47312229 11.51171875 13.5546875 C13.82222242 15.79848372 13.99789338 16.97809119 14.3125 20.25 C13.9413702 24.70355765 12.89685726 26.6333821 10 30 C6.35781349 32.10863429 3.16191328 32.50962203 -1 32 C-4.6578218 29.96006092 -6.66946174 28.49580738 -9 25 C-8.505 23.515 -8.505 23.515 -8 22 C-6.88625 21.87625 -5.7725 21.7525 -4.625 21.625 C-0.96896323 21.3534187 -0.96896323 21.3534187 1 19 C0.90304884 14.65805064 0.90304884 14.65805064 -1 11 C-1.09823996 9.52351124 -1.12973519 8.04224583 -1.125 6.5625 C-1.12757812 5.75941406 -1.13015625 4.95632812 -1.1328125 4.12890625 C-1 2 -1 2 0 0 Z " fill="#F2F2F2" transform="translate(38,67)"/>
<path d="M0 0 C0 1.98 0 3.96 0 6 C-1.953125 5.83723958 -3.90625 5.67447917 -5.859375 5.51171875 C-8.17698598 5.8763735 -8.17698598 5.8763735 -10.21875 7.78125 C-12.90983518 12.64408813 -12.67644012 17.33897606 -12.75 22.8125 C-12.77964844 23.88693359 -12.80929687 24.96136719 -12.83984375 26.06835938 C-12.91034921 28.71231427 -12.96314143 31.3553973 -13 34 C-14.98 34 -16.96 34 -19 34 C-19 22.78 -19 11.56 -19 0 C-17.35 0 -15.7 0 -14 0 C-13.67 1.32 -13.34 2.64 -13 4 C-12.401875 3.360625 -11.80375 2.72125 -11.1875 2.0625 C-7.4074509 -1.50154629 -4.8315027 -0.96630054 0 0 Z " fill="#0A0A0A" transform="translate(321,66)"/>
<path d="M0 0 C1.98 0 3.96 0 6 0 C6 11.22 6 22.44 6 34 C4.02 34 2.04 34 0 34 C0 22.78 0 11.56 0 0 Z " fill="#000000" transform="translate(221,66)"/>
<path d="M0 0 C1.98 0 3.96 0 6 0 C6 11.22 6 22.44 6 34 C4.02 34 2.04 34 0 34 C0 22.78 0 11.56 0 0 Z " fill="#0B0B0B" transform="translate(165,66)"/>
<path d="M0 0 C1.67542976 0.28604898 3.34385343 0.61781233 5 1 C5.38218767 2.65614657 5.71395102 4.32457024 6 6 C5 7 5 7 1.9375 7.0625 C0.4834375 7.0315625 0.4834375 7.0315625 -1 7 C-1.04254356 5.00045254 -1.04080783 2.99958364 -1 1 C-0.67 0.67 -0.34 0.34 0 0 Z " fill="#131313" transform="translate(222,52)"/>
<path d="M0 0 C0.042721 1.66611905 0.04063832 3.33382885 0 5 C-1 6 -1 6 -3.5 6.125 C-6 6 -6 6 -7 5 C-7.04063832 3.33382885 -7.042721 1.66611905 -7 0 C-4.3333581 -1.33332095 -2.83319697 -0.67102033 0 0 Z " fill="#141414" transform="translate(171,53)"/>
<path d="M0 0 C1.32 0.66 2.64 1.32 4 2 C3.67 3.65 3.34 5.3 3 7 C1.68 6.67 0.36 6.34 -1 6 C-0.67 4.02 -0.34 2.04 0 0 Z " fill="#DCDCDC" transform="translate(56,17)"/>
<path d="M0 0 C0.99 0.33 1.98 0.66 3 1 C3.33 2.65 3.66 4.3 4 6 C2.68 6.33 1.36 6.66 0 7 C-1.125 2.25 -1.125 2.25 0 0 Z " fill="#DCDCDC" transform="translate(39,17)"/>
<path d="M0 0 C0.99 0.33 1.98 0.66 3 1 C3 2.98 3 4.96 3 7 C1.68 7 0.36 7 -1 7 C-0.67 4.69 -0.34 2.38 0 0 Z " fill="#E7E7E7" transform="translate(22,17)"/>
</svg>
