<?xml version="1.0" encoding="utf-8" ?>
<svg baseProfile="full" height="200" version="1.1" width="666" xmlns="http://www.w3.org/2000/svg" xmlns:ev="http://www.w3.org/2001/xml-events" xmlns:xlink="http://www.w3.org/1999/xlink"><defs><marker id="arrow" markerHeight="3.5" markerWidth="5" orient="auto" refX="5.0" refY="1.7"><polygon points="0,0 5,1.75 0,3.5" /></marker></defs><g style="fill:white;"><g transform="matrix(1.0, 0.0, 0.0, 1.0, 333.3333333333333, 100.00000000000001)"><g transform="matrix(63.49206349206349, 0.0, 0.0, 63.49206349206349, 0.0, 0.0)"><g><g transform="matrix(1.0, 0.0, 0.0, 1.0, -0.0, -0.5)"><g><g><g><g><g transform="matrix(1.0, 0.0, 0.0, 1.0, -2.0, -0.5)"><g><g><g><g><g><g><g><g><g><g><g><g style="fill: #69bac9;stroke: black;stroke-width: 1.8;" transform="matrix(1.0, 0.0, 0.0, 1.0, -0.5, -0.5)"><path d="M 0.0 0.0 L 1.0 0.0 L 1.0 1.0 L 0.0 1.0 L 0.0 0.0 Z" style="vector-effect: non-scaling-stroke;" /></g></g><g transform="matrix(1.0, 0.0, 0.0, 1.0, 0.0, 0.5)"><g transform="matrix(0.0, -1.0, 1.0, 0.0, 0.0, 0.0)"><g /></g></g></g><g transform="matrix(1.0, 0.0, 0.0, 1.0, 0.0, 1.0)"><g><g style="fill: #5fcebf;stroke: black;stroke-width: 1.8;" transform="matrix(1.0, 0.0, 0.0, 1.0, -0.5, -0.5)"><path d="M 0.0 0.0 L 1.0 0.0 L 1.0 1.0 L 0.0 1.0 L 0.0 0.0 Z" style="vector-effect: non-scaling-stroke;" /></g></g></g></g><g transform="matrix(1.0, 0.0, 0.0, 1.0, 0.5, 0.0)"><g transform="matrix(1.0, -0.0, 0.0, 1.0, 0.0, 0.0)"><g /></g></g></g><g transform="matrix(1.0, 0.0, 0.0, 1.0, 1.0, 0.0)"><g><g><g><g style="fill: #54d39e;stroke: black;stroke-width: 1.8;" transform="matrix(1.0, 0.0, 0.0, 1.0, -0.5, -0.5)"><path d="M 0.0 0.0 L 1.0 0.0 L 1.0 1.0 L 0.0 1.0 L 0.0 0.0 Z" style="vector-effect: non-scaling-stroke;" /></g></g><g transform="matrix(1.0, 0.0, 0.0, 1.0, 0.0, 0.5)"><g transform="matrix(0.0, -1.0, 1.0, 0.0, 0.0, 0.0)"><g /></g></g></g><g transform="matrix(1.0, 0.0, 0.0, 1.0, 0.0, 1.0)"><g><g style="fill: #49d874;stroke: black;stroke-width: 1.8;" transform="matrix(1.0, 0.0, 0.0, 1.0, -0.5, -0.5)"><path d="M 0.0 0.0 L 1.0 0.0 L 1.0 1.0 L 0.0 1.0 L 0.0 0.0 Z" style="vector-effect: non-scaling-stroke;" /></g></g></g></g></g></g><g transform="matrix(1.0, 0.0, 0.0, 1.0, 1.5, 0.0)"><g transform="matrix(1.0, -0.0, 0.0, 1.0, 0.0, 0.0)"><g /></g></g></g><g transform="matrix(1.0, 0.0, 0.0, 1.0, 2.0, 0.0)"><g><g><g><g style="fill: #3ede40;stroke: black;stroke-width: 1.8;" transform="matrix(1.0, 0.0, 0.0, 1.0, -0.5, -0.5)"><path d="M 0.0 0.0 L 1.0 0.0 L 1.0 1.0 L 0.0 1.0 L 0.0 0.0 Z" style="vector-effect: non-scaling-stroke;" /></g></g><g transform="matrix(1.0, 0.0, 0.0, 1.0, 0.0, 0.5)"><g transform="matrix(0.0, -1.0, 1.0, 0.0, 0.0, 0.0)"><g /></g></g></g><g transform="matrix(1.0, 0.0, 0.0, 1.0, 0.0, 1.0)"><g><g style="fill: #62e432;stroke: black;stroke-width: 1.8;" transform="matrix(1.0, 0.0, 0.0, 1.0, -0.5, -0.5)"><path d="M 0.0 0.0 L 1.0 0.0 L 1.0 1.0 L 0.0 1.0 L 0.0 0.0 Z" style="vector-effect: non-scaling-stroke;" /></g></g></g></g></g></g><g transform="matrix(1.0, 0.0, 0.0, 1.0, 2.5, 0.0)"><g transform="matrix(1.0, -0.0, 0.0, 1.0, 0.0, 0.0)"><g /></g></g></g><g transform="matrix(1.0, 0.0, 0.0, 1.0, 3.0, 0.0)"><g><g><g><g style="fill: #92ea26;stroke: black;stroke-width: 1.8;" transform="matrix(1.0, 0.0, 0.0, 1.0, -0.5, -0.5)"><path d="M 0.0 0.0 L 1.0 0.0 L 1.0 1.0 L 0.0 1.0 L 0.0 0.0 Z" style="vector-effect: non-scaling-stroke;" /></g></g><g transform="matrix(1.0, 0.0, 0.0, 1.0, 0.0, 0.5)"><g transform="matrix(0.0, -1.0, 1.0, 0.0, 0.0, 0.0)"><g /></g></g></g><g transform="matrix(1.0, 0.0, 0.0, 1.0, 0.0, 1.0)"><g><g style="fill: #cef11a;stroke: black;stroke-width: 1.8;" transform="matrix(1.0, 0.0, 0.0, 1.0, -0.5, -0.5)"><path d="M 0.0 0.0 L 1.0 0.0 L 1.0 1.0 L 0.0 1.0 L 0.0 0.0 Z" style="vector-effect: non-scaling-stroke;" /></g></g></g></g></g></g><g transform="matrix(1.0, 0.0, 0.0, 1.0, 3.5, 0.0)"><g transform="matrix(1.0, -0.0, 0.0, 1.0, 0.0, 0.0)"><g /></g></g></g><g transform="matrix(1.0, 0.0, 0.0, 1.0, 4.0, 0.0)"><g><g><g><g style="fill: #f8db0d;stroke: black;stroke-width: 1.8;" transform="matrix(1.0, 0.0, 0.0, 1.0, -0.5, -0.5)"><path d="M 0.0 0.0 L 1.0 0.0 L 1.0 1.0 L 0.0 1.0 L 0.0 0.0 Z" style="vector-effect: non-scaling-stroke;" /></g></g><g transform="matrix(1.0, 0.0, 0.0, 1.0, 0.0, 0.5)"><g transform="matrix(0.0, -1.0, 1.0, 0.0, 0.0, 0.0)"><g /></g></g></g><g transform="matrix(1.0, 0.0, 0.0, 1.0, 0.0, 1.0)"><g><g style="fill: #ff9700;stroke: black;stroke-width: 1.8;" transform="matrix(1.0, 0.0, 0.0, 1.0, -0.5, -0.5)"><path d="M 0.0 0.0 L 1.0 0.0 L 1.0 1.0 L 0.0 1.0 L 0.0 0.0 Z" style="vector-effect: non-scaling-stroke;" /></g></g></g></g></g></g></g><g transform="matrix(1.0, 0.0, 0.0, 1.0, 0.0, 1.0)"><g transform="matrix(0.0, -1.0, 1.0, 0.0, 0.0, 0.0)"><g /></g></g></g><g transform="matrix(1.0, 0.0, 0.0, 1.0, 0.0, 1.5)"><g transform="matrix(1.0, 0.0, 0.0, 1.0, -4.5, -0.0)"><g><g><g><g><g><g><g><g><g><g><g><g><g><g><g><g><g><g><g><g style="fill: #69bac9;stroke: black;stroke-width: 1.8;" transform="matrix(1.0, 0.0, 0.0, 1.0, -0.5, -0.5)"><path d="M 0.0 0.0 L 1.0 0.0 L 1.0 1.0 L 0.0 1.0 L 0.0 0.0 Z" style="vector-effect: non-scaling-stroke;" /></g></g><g transform="matrix(1.0, 0.0, 0.0, 1.0, 0.5, 0.0)"><g transform="matrix(1.0, -0.0, 0.0, 1.0, 0.0, 0.0)"><g /></g></g></g><g transform="matrix(1.0, 0.0, 0.0, 1.0, 1.0, 0.0)"><g><g style="fill: #5fcebf;stroke: black;stroke-width: 1.8;" transform="matrix(1.0, 0.0, 0.0, 1.0, -0.5, -0.5)"><path d="M 0.0 0.0 L 1.0 0.0 L 1.0 1.0 L 0.0 1.0 L 0.0 0.0 Z" style="vector-effect: non-scaling-stroke;" /></g></g></g></g><g transform="matrix(1.0, 0.0, 0.0, 1.0, 1.5, 0.0)"><g transform="matrix(1.0, -0.0, 0.0, 1.0, 0.0, 0.0)"><g /></g></g></g><g transform="matrix(1.0, 0.0, 0.0, 1.0, 2.0, 0.0)"><g><g style="fill: #54d39e;stroke: black;stroke-width: 1.8;" transform="matrix(1.0, 0.0, 0.0, 1.0, -0.5, -0.5)"><path d="M 0.0 0.0 L 1.0 0.0 L 1.0 1.0 L 0.0 1.0 L 0.0 0.0 Z" style="vector-effect: non-scaling-stroke;" /></g></g></g></g><g transform="matrix(1.0, 0.0, 0.0, 1.0, 2.5, 0.0)"><g transform="matrix(1.0, -0.0, 0.0, 1.0, 0.0, 0.0)"><g /></g></g></g><g transform="matrix(1.0, 0.0, 0.0, 1.0, 3.0, 0.0)"><g><g style="fill: #49d874;stroke: black;stroke-width: 1.8;" transform="matrix(1.0, 0.0, 0.0, 1.0, -0.5, -0.5)"><path d="M 0.0 0.0 L 1.0 0.0 L 1.0 1.0 L 0.0 1.0 L 0.0 0.0 Z" style="vector-effect: non-scaling-stroke;" /></g></g></g></g><g transform="matrix(1.0, 0.0, 0.0, 1.0, 3.5, 0.0)"><g transform="matrix(1.0, -0.0, 0.0, 1.0, 0.0, 0.0)"><g /></g></g></g><g transform="matrix(1.0, 0.0, 0.0, 1.0, 4.0, 0.0)"><g><g style="fill: #3ede40;stroke: black;stroke-width: 1.8;" transform="matrix(1.0, 0.0, 0.0, 1.0, -0.5, -0.5)"><path d="M 0.0 0.0 L 1.0 0.0 L 1.0 1.0 L 0.0 1.0 L 0.0 0.0 Z" style="vector-effect: non-scaling-stroke;" /></g></g></g></g><g transform="matrix(1.0, 0.0, 0.0, 1.0, 4.5, 0.0)"><g transform="matrix(1.0, -0.0, 0.0, 1.0, 0.0, 0.0)"><g /></g></g></g><g transform="matrix(1.0, 0.0, 0.0, 1.0, 5.0, 0.0)"><g><g style="fill: #62e432;stroke: black;stroke-width: 1.8;" transform="matrix(1.0, 0.0, 0.0, 1.0, -0.5, -0.5)"><path d="M 0.0 0.0 L 1.0 0.0 L 1.0 1.0 L 0.0 1.0 L 0.0 0.0 Z" style="vector-effect: non-scaling-stroke;" /></g></g></g></g><g transform="matrix(1.0, 0.0, 0.0, 1.0, 5.5, 0.0)"><g transform="matrix(1.0, -0.0, 0.0, 1.0, 0.0, 0.0)"><g /></g></g></g><g transform="matrix(1.0, 0.0, 0.0, 1.0, 6.0, 0.0)"><g><g style="fill: #92ea26;stroke: black;stroke-width: 1.8;" transform="matrix(1.0, 0.0, 0.0, 1.0, -0.5, -0.5)"><path d="M 0.0 0.0 L 1.0 0.0 L 1.0 1.0 L 0.0 1.0 L 0.0 0.0 Z" style="vector-effect: non-scaling-stroke;" /></g></g></g></g><g transform="matrix(1.0, 0.0, 0.0, 1.0, 6.5, 0.0)"><g transform="matrix(1.0, -0.0, 0.0, 1.0, 0.0, 0.0)"><g /></g></g></g><g transform="matrix(1.0, 0.0, 0.0, 1.0, 7.0, 0.0)"><g><g style="fill: #cef11a;stroke: black;stroke-width: 1.8;" transform="matrix(1.0, 0.0, 0.0, 1.0, -0.5, -0.5)"><path d="M 0.0 0.0 L 1.0 0.0 L 1.0 1.0 L 0.0 1.0 L 0.0 0.0 Z" style="vector-effect: non-scaling-stroke;" /></g></g></g></g><g transform="matrix(1.0, 0.0, 0.0, 1.0, 7.5, 0.0)"><g transform="matrix(1.0, -0.0, 0.0, 1.0, 0.0, 0.0)"><g /></g></g></g><g transform="matrix(1.0, 0.0, 0.0, 1.0, 8.0, 0.0)"><g><g style="fill: #f8db0d;stroke: black;stroke-width: 1.8;" transform="matrix(1.0, 0.0, 0.0, 1.0, -0.5, -0.5)"><path d="M 0.0 0.0 L 1.0 0.0 L 1.0 1.0 L 0.0 1.0 L 0.0 0.0 Z" style="vector-effect: non-scaling-stroke;" /></g></g></g></g><g transform="matrix(1.0, 0.0, 0.0, 1.0, 8.5, 0.0)"><g transform="matrix(1.0, -0.0, 0.0, 1.0, 0.0, 0.0)"><g /></g></g></g><g transform="matrix(1.0, 0.0, 0.0, 1.0, 9.0, 0.0)"><g><g style="fill: #ff9700;stroke: black;stroke-width: 1.8;" transform="matrix(1.0, 0.0, 0.0, 1.0, -0.5, -0.5)"><path d="M 0.0 0.0 L 1.0 0.0 L 1.0 1.0 L 0.0 1.0 L 0.0 0.0 Z" style="vector-effect: non-scaling-stroke;" /></g></g></g></g></g></g></g><g transform="matrix(1.0, 0.0, 0.0, 1.0, 1.0, -0.5)"><g transform="matrix(0.24253562503633286, 0.9701425001453319, -0.9701425001453319, 0.24253562503633286, 0.0, 0.0)"><g><g style="stroke: black;stroke-width: 0.9;" transform="matrix(1.0, 0.0, 0.0, 1.0, 0.0, 0.0)"><path d="M 0.0 0.0 L 2.0615528128088303 0.0" style="vector-effect: non-scaling-stroke;fill:none;" /></g><g style="stroke: black;stroke-width: 0.9;" transform="matrix(1.0, 0.0, 0.0, 1.0, 2.0615528128088303, 0.0)"><g style="fill: #000000;stroke: black;stroke-width: 0.0;" transform="matrix(0.0, 0.09, -0.09, 0.0, -0.108, 0.0)"><path d="M 0.0 -0.2 L 1.0 0.2 L 0.0 -1.2 L -1.0 0.19999999999999996 L 0.0 -0.2 Z" style="vector-effect: non-scaling-stroke;" /></g></g></g></g></g></g><g transform="matrix(1.0, 0.0, 0.0, 1.0, 1.0, 0.5)"><g transform="matrix(0.8320502943378438, 0.5547001962252288, -0.5547001962252288, 0.8320502943378438, 0.0, 0.0)"><g><g style="stroke: black;stroke-width: 0.9;" transform="matrix(1.0, 0.0, 0.0, 1.0, 0.0, 0.0)"><path d="M 0.0 0.0 L 1.8027756377319946 0.0" style="vector-effect: non-scaling-stroke;fill:none;" /></g><g style="stroke: black;stroke-width: 0.9;" transform="matrix(1.0, 0.0, 0.0, 1.0, 1.8027756377319946, 0.0)"><g style="fill: #000000;stroke: black;stroke-width: 0.0;" transform="matrix(0.0, 0.09, -0.09, 0.0, -0.108, 0.0)"><path d="M 0.0 -0.2 L 1.0 0.2 L 0.0 -1.2 L -1.0 0.19999999999999996 L 0.0 -0.2 Z" style="vector-effect: non-scaling-stroke;" /></g></g></g></g></g></g></g><g /></g></g></g></g></svg>
