<?xml version="1.0" encoding="utf-8" ?>
<svg baseProfile="full" height="400" version="1.1" width="342" xmlns="http://www.w3.org/2000/svg" xmlns:ev="http://www.w3.org/2001/xml-events" xmlns:xlink="http://www.w3.org/1999/xlink"><defs><marker id="arrow" markerHeight="3.5" markerWidth="5" orient="auto" refX="5.0" refY="1.7"><polygon points="0,0 5,1.75 0,3.5" /></marker></defs><g style="fill:white;"><g transform="matrix(1.0, 0.0, 0.0, 1.0, 171.00000000000003, 199.5)"><g transform="matrix(36.19047619047619, 0.0, 0.0, 36.19047619047619, 0.0, 0.0)"><g><g transform="matrix(1.0, 0.0, 0.0, 1.0, -2.5, -0.0)"><g><g><g><g><g><g><g><g transform="matrix(1.0, 0.0, 0.0, 1.0, -0.0, -3.5)"><g><g><g><g><g transform="matrix(1.0, 0.0, 0.0, 1.0, -1.5, -1.0)"><g><g><g><g><g><g><g><g><g><g><g><g><g style="fill: #ffffff;stroke: #cccccc;stroke-width: 2.4000000000000004;" transform="matrix(1.0, 0.0, 0.0, 1.0, -0.5, -0.5)"><path d="M 0.0 0.0 L 1.0 0.0 L 1.0 1.0 L 0.0 1.0 L 0.0 0.0 Z" style="vector-effect: non-scaling-stroke;" /></g><g style="fill: #ffffff;stroke: black;stroke-width: 2.4000000000000004;" transform="matrix(0.016666666666666666, 0.0, 0.0, 0.016666666666666666, 0.0, 0.0)"><image transform="translate(-30.0, -30.0) scale(0.05, 0.05)" xlink:href="../robot.png" /></g></g></g><g transform="matrix(1.0, 0.0, 0.0, 1.0, 0.0, 0.5)"><g transform="matrix(0.0, -1.0, 1.0, 0.0, 0.0, 0.0)"><g /></g></g></g><g transform="matrix(1.0, 0.0, 0.0, 1.0, 0.0, 1.0)"><g><g><g style="fill: #ffffff;stroke: #cccccc;stroke-width: 2.4000000000000004;" transform="matrix(1.0, 0.0, 0.0, 1.0, -0.5, -0.5)"><path d="M 0.0 0.0 L 1.0 0.0 L 1.0 1.0 L 0.0 1.0 L 0.0 0.0 Z" style="vector-effect: non-scaling-stroke;" /></g><g style="fill: #ffffff;stroke: black;stroke-width: 2.4000000000000004;" transform="matrix(0.016666666666666666, 0.0, 0.0, 0.016666666666666666, 0.0, 0.0)"><image transform="translate(-30.0, -30.0) scale(0.05, 0.05)" xlink:href="../robot.png" /></g></g></g></g></g><g transform="matrix(1.0, 0.0, 0.0, 1.0, 0.0, 1.5)"><g transform="matrix(0.0, -1.0, 1.0, 0.0, 0.0, 0.0)"><g /></g></g></g><g transform="matrix(1.0, 0.0, 0.0, 1.0, 0.0, 2.0)"><g><g><g style="fill: #ffffff;stroke: #cccccc;stroke-width: 2.4000000000000004;" transform="matrix(1.0, 0.0, 0.0, 1.0, -0.5, -0.5)"><path d="M 0.0 0.0 L 1.0 0.0 L 1.0 1.0 L 0.0 1.0 L 0.0 0.0 Z" style="vector-effect: non-scaling-stroke;" /></g><g style="fill: #ffffff;stroke: black;stroke-width: 2.4000000000000004;" transform="matrix(0.016666666666666666, 0.0, 0.0, 0.016666666666666666, 0.0, 0.0)"><image transform="translate(-30.0, -30.0) scale(0.05, 0.05)" xlink:href="../robot.png" /></g></g></g></g></g><g transform="matrix(1.0, 0.0, 0.0, 1.0, 0.5, 0.0)"><g transform="matrix(1.0, -0.0, 0.0, 1.0, 0.0, 0.0)"><g /></g></g></g><g transform="matrix(1.0, 0.0, 0.0, 1.0, 1.0, 0.0)"><g><g><g><g><g><g><g style="fill: #ffffff;stroke: #cccccc;stroke-width: 2.4000000000000004;" transform="matrix(1.0, 0.0, 0.0, 1.0, -0.5, -0.5)"><path d="M 0.0 0.0 L 1.0 0.0 L 1.0 1.0 L 0.0 1.0 L 0.0 0.0 Z" style="vector-effect: non-scaling-stroke;" /></g><g style="fill: #ffffff;stroke: black;stroke-width: 2.4000000000000004;" transform="matrix(0.016666666666666666, 0.0, 0.0, 0.016666666666666666, 0.0, 0.0)"><image transform="translate(-30.0, -30.0) scale(0.05, 0.05)" xlink:href="../robot.png" /></g></g></g><g transform="matrix(1.0, 0.0, 0.0, 1.0, 0.0, 0.5)"><g transform="matrix(0.0, -1.0, 1.0, 0.0, 0.0, 0.0)"><g /></g></g></g><g transform="matrix(1.0, 0.0, 0.0, 1.0, 0.0, 1.0)"><g><g><g style="fill: #ffffff;stroke: #cccccc;stroke-width: 2.4000000000000004;" transform="matrix(1.0, 0.0, 0.0, 1.0, -0.5, -0.5)"><path d="M 0.0 0.0 L 1.0 0.0 L 1.0 1.0 L 0.0 1.0 L 0.0 0.0 Z" style="vector-effect: non-scaling-stroke;" /></g><g style="fill: #ffffff;stroke: black;stroke-width: 2.4000000000000004;" transform="matrix(0.016666666666666666, 0.0, 0.0, 0.016666666666666666, 0.0, 0.0)"><image transform="translate(-30.0, -30.0) scale(0.05, 0.05)" xlink:href="../robot.png" /></g></g></g></g></g><g transform="matrix(1.0, 0.0, 0.0, 1.0, 0.0, 1.5)"><g transform="matrix(0.0, -1.0, 1.0, 0.0, 0.0, 0.0)"><g /></g></g></g><g transform="matrix(1.0, 0.0, 0.0, 1.0, 0.0, 2.0)"><g><g><g style="fill: #ffffff;stroke: #cccccc;stroke-width: 2.4000000000000004;" transform="matrix(1.0, 0.0, 0.0, 1.0, -0.5, -0.5)"><path d="M 0.0 0.0 L 1.0 0.0 L 1.0 1.0 L 0.0 1.0 L 0.0 0.0 Z" style="vector-effect: non-scaling-stroke;" /></g><g style="fill: #ffffff;stroke: black;stroke-width: 2.4000000000000004;" transform="matrix(0.016666666666666666, 0.0, 0.0, 0.016666666666666666, 0.0, 0.0)"><image transform="translate(-30.0, -30.0) scale(0.05, 0.05)" xlink:href="../robot.png" /></g></g></g></g></g></g></g><g transform="matrix(1.0, 0.0, 0.0, 1.0, 1.5, 0.0)"><g transform="matrix(1.0, -0.0, 0.0, 1.0, 0.0, 0.0)"><g /></g></g></g><g transform="matrix(1.0, 0.0, 0.0, 1.0, 2.0, 0.0)"><g><g><g><g><g><g><g style="fill: #ffffff;stroke: #cccccc;stroke-width: 2.4000000000000004;" transform="matrix(1.0, 0.0, 0.0, 1.0, -0.5, -0.5)"><path d="M 0.0 0.0 L 1.0 0.0 L 1.0 1.0 L 0.0 1.0 L 0.0 0.0 Z" style="vector-effect: non-scaling-stroke;" /></g><g style="fill: #ffffff;stroke: black;stroke-width: 2.4000000000000004;" transform="matrix(0.016666666666666666, 0.0, 0.0, 0.016666666666666666, 0.0, 0.0)"><image transform="translate(-30.0, -30.0) scale(0.05, 0.05)" xlink:href="../robot.png" /></g></g></g><g transform="matrix(1.0, 0.0, 0.0, 1.0, 0.0, 0.5)"><g transform="matrix(0.0, -1.0, 1.0, 0.0, 0.0, 0.0)"><g /></g></g></g><g transform="matrix(1.0, 0.0, 0.0, 1.0, 0.0, 1.0)"><g><g><g style="fill: #ffffff;stroke: #cccccc;stroke-width: 2.4000000000000004;" transform="matrix(1.0, 0.0, 0.0, 1.0, -0.5, -0.5)"><path d="M 0.0 0.0 L 1.0 0.0 L 1.0 1.0 L 0.0 1.0 L 0.0 0.0 Z" style="vector-effect: non-scaling-stroke;" /></g><g style="fill: #ffffff;stroke: black;stroke-width: 2.4000000000000004;" transform="matrix(0.016666666666666666, 0.0, 0.0, 0.016666666666666666, 0.0, 0.0)"><image transform="translate(-30.0, -30.0) scale(0.05, 0.05)" xlink:href="../robot.png" /></g></g></g></g></g><g transform="matrix(1.0, 0.0, 0.0, 1.0, 0.0, 1.5)"><g transform="matrix(0.0, -1.0, 1.0, 0.0, 0.0, 0.0)"><g /></g></g></g><g transform="matrix(1.0, 0.0, 0.0, 1.0, 0.0, 2.0)"><g><g><g style="fill: #ffffff;stroke: #cccccc;stroke-width: 2.4000000000000004;" transform="matrix(1.0, 0.0, 0.0, 1.0, -0.5, -0.5)"><path d="M 0.0 0.0 L 1.0 0.0 L 1.0 1.0 L 0.0 1.0 L 0.0 0.0 Z" style="vector-effect: non-scaling-stroke;" /></g><g style="fill: #ffffff;stroke: black;stroke-width: 2.4000000000000004;" transform="matrix(0.016666666666666666, 0.0, 0.0, 0.016666666666666666, 0.0, 0.0)"><image transform="translate(-30.0, -30.0) scale(0.05, 0.05)" xlink:href="../robot.png" /></g></g></g></g></g></g></g><g transform="matrix(1.0, 0.0, 0.0, 1.0, 2.5, 0.0)"><g transform="matrix(1.0, -0.0, 0.0, 1.0, 0.0, 0.0)"><g /></g></g></g><g transform="matrix(1.0, 0.0, 0.0, 1.0, 3.0, 0.0)"><g><g><g><g><g><g><g style="fill: #ffffff;stroke: #cccccc;stroke-width: 2.4000000000000004;" transform="matrix(1.0, 0.0, 0.0, 1.0, -0.5, -0.5)"><path d="M 0.0 0.0 L 1.0 0.0 L 1.0 1.0 L 0.0 1.0 L 0.0 0.0 Z" style="vector-effect: non-scaling-stroke;" /></g><g style="fill: #ffffff;stroke: black;stroke-width: 2.4000000000000004;" transform="matrix(0.016666666666666666, 0.0, 0.0, 0.016666666666666666, 0.0, 0.0)"><image transform="translate(-30.0, -30.0) scale(0.05, 0.05)" xlink:href="../robot.png" /></g></g></g><g transform="matrix(1.0, 0.0, 0.0, 1.0, 0.0, 0.5)"><g transform="matrix(0.0, -1.0, 1.0, 0.0, 0.0, 0.0)"><g /></g></g></g><g transform="matrix(1.0, 0.0, 0.0, 1.0, 0.0, 1.0)"><g><g><g style="fill: #ffffff;stroke: #cccccc;stroke-width: 2.4000000000000004;" transform="matrix(1.0, 0.0, 0.0, 1.0, -0.5, -0.5)"><path d="M 0.0 0.0 L 1.0 0.0 L 1.0 1.0 L 0.0 1.0 L 0.0 0.0 Z" style="vector-effect: non-scaling-stroke;" /></g><g style="fill: #ffffff;stroke: black;stroke-width: 2.4000000000000004;" transform="matrix(0.016666666666666666, 0.0, 0.0, 0.016666666666666666, 0.0, 0.0)"><image transform="translate(-30.0, -30.0) scale(0.05, 0.05)" xlink:href="../robot.png" /></g></g></g></g></g><g transform="matrix(1.0, 0.0, 0.0, 1.0, 0.0, 1.5)"><g transform="matrix(0.0, -1.0, 1.0, 0.0, 0.0, 0.0)"><g /></g></g></g><g transform="matrix(1.0, 0.0, 0.0, 1.0, 0.0, 2.0)"><g><g><g style="fill: #ffffff;stroke: #cccccc;stroke-width: 2.4000000000000004;" transform="matrix(1.0, 0.0, 0.0, 1.0, -0.5, -0.5)"><path d="M 0.0 0.0 L 1.0 0.0 L 1.0 1.0 L 0.0 1.0 L 0.0 0.0 Z" style="vector-effect: non-scaling-stroke;" /></g><g style="fill: #ffffff;stroke: black;stroke-width: 2.4000000000000004;" transform="matrix(0.016666666666666666, 0.0, 0.0, 0.016666666666666666, 0.0, 0.0)"><image transform="translate(-30.0, -30.0) scale(0.05, 0.05)" xlink:href="../robot.png" /></g></g></g></g></g></g></g></g><g style="stroke: black;stroke-width: 1.2000000000000002;" transform="matrix(0.0, -1.0, 1.0, 0.0, 0.0, 1.75)"><g /></g></g><g transform="matrix(1.0, 0.0, 0.0, 1.0, 0.0, 3.5)"><g transform="matrix(1.0, 0.0, 0.0, 1.0, -1.5, -1.0)"><g><g><g><g><g><g><g><g><g><g><g><g><g style="fill: #ffffff;stroke: #cccccc;stroke-width: 2.4000000000000004;" transform="matrix(1.0, 0.0, 0.0, 1.0, -0.5, -0.5)"><path d="M 0.0 0.0 L 1.0 0.0 L 1.0 1.0 L 0.0 1.0 L 0.0 0.0 Z" style="vector-effect: non-scaling-stroke;" /></g><g style="fill: #ffffff;stroke: black;stroke-width: 2.4000000000000004;" transform="matrix(0.016666666666666666, 0.0, 0.0, 0.016666666666666666, 0.0, 0.0)"><image transform="translate(-30.0, -30.0) scale(0.05, 0.05)" xlink:href="../robot.png" /></g></g></g><g transform="matrix(1.0, 0.0, 0.0, 1.0, 0.0, 0.5)"><g transform="matrix(0.0, -1.0, 1.0, 0.0, 0.0, 0.0)"><g /></g></g></g><g transform="matrix(1.0, 0.0, 0.0, 1.0, 0.0, 1.0)"><g><g><g style="fill: #ffffff;stroke: #cccccc;stroke-width: 2.4000000000000004;" transform="matrix(1.0, 0.0, 0.0, 1.0, -0.5, -0.5)"><path d="M 0.0 0.0 L 1.0 0.0 L 1.0 1.0 L 0.0 1.0 L 0.0 0.0 Z" style="vector-effect: non-scaling-stroke;" /></g><g style="fill: #ffffff;stroke: black;stroke-width: 2.4000000000000004;" transform="matrix(0.016666666666666666, 0.0, 0.0, 0.016666666666666666, 0.0, 0.0)"><image transform="translate(-30.0, -30.0) scale(0.05, 0.05)" xlink:href="../robot.png" /></g></g></g></g></g><g transform="matrix(1.0, 0.0, 0.0, 1.0, 0.0, 1.5)"><g transform="matrix(0.0, -1.0, 1.0, 0.0, 0.0, 0.0)"><g /></g></g></g><g transform="matrix(1.0, 0.0, 0.0, 1.0, 0.0, 2.0)"><g><g><g style="fill: #ffffff;stroke: #cccccc;stroke-width: 2.4000000000000004;" transform="matrix(1.0, 0.0, 0.0, 1.0, -0.5, -0.5)"><path d="M 0.0 0.0 L 1.0 0.0 L 1.0 1.0 L 0.0 1.0 L 0.0 0.0 Z" style="vector-effect: non-scaling-stroke;" /></g><g style="fill: #ffffff;stroke: black;stroke-width: 2.4000000000000004;" transform="matrix(0.016666666666666666, 0.0, 0.0, 0.016666666666666666, 0.0, 0.0)"><image transform="translate(-30.0, -30.0) scale(0.05, 0.05)" xlink:href="../robot.png" /></g></g></g></g></g><g transform="matrix(1.0, 0.0, 0.0, 1.0, 0.5, 0.0)"><g transform="matrix(1.0, -0.0, 0.0, 1.0, 0.0, 0.0)"><g /></g></g></g><g transform="matrix(1.0, 0.0, 0.0, 1.0, 1.0, 0.0)"><g><g><g><g><g><g><g style="fill: #ffffff;stroke: #cccccc;stroke-width: 2.4000000000000004;" transform="matrix(1.0, 0.0, 0.0, 1.0, -0.5, -0.5)"><path d="M 0.0 0.0 L 1.0 0.0 L 1.0 1.0 L 0.0 1.0 L 0.0 0.0 Z" style="vector-effect: non-scaling-stroke;" /></g><g style="fill: #ffffff;stroke: black;stroke-width: 2.4000000000000004;" transform="matrix(0.016666666666666666, 0.0, 0.0, 0.016666666666666666, 0.0, 0.0)"><image transform="translate(-30.0, -30.0) scale(0.05, 0.05)" xlink:href="../robot.png" /></g></g></g><g transform="matrix(1.0, 0.0, 0.0, 1.0, 0.0, 0.5)"><g transform="matrix(0.0, -1.0, 1.0, 0.0, 0.0, 0.0)"><g /></g></g></g><g transform="matrix(1.0, 0.0, 0.0, 1.0, 0.0, 1.0)"><g><g><g style="fill: #ffffff;stroke: #cccccc;stroke-width: 2.4000000000000004;" transform="matrix(1.0, 0.0, 0.0, 1.0, -0.5, -0.5)"><path d="M 0.0 0.0 L 1.0 0.0 L 1.0 1.0 L 0.0 1.0 L 0.0 0.0 Z" style="vector-effect: non-scaling-stroke;" /></g><g style="fill: #ffffff;stroke: black;stroke-width: 2.4000000000000004;" transform="matrix(0.016666666666666666, 0.0, 0.0, 0.016666666666666666, 0.0, 0.0)"><image transform="translate(-30.0, -30.0) scale(0.05, 0.05)" xlink:href="../robot.png" /></g></g></g></g></g><g transform="matrix(1.0, 0.0, 0.0, 1.0, 0.0, 1.5)"><g transform="matrix(0.0, -1.0, 1.0, 0.0, 0.0, 0.0)"><g /></g></g></g><g transform="matrix(1.0, 0.0, 0.0, 1.0, 0.0, 2.0)"><g><g><g style="fill: #ffffff;stroke: #cccccc;stroke-width: 2.4000000000000004;" transform="matrix(1.0, 0.0, 0.0, 1.0, -0.5, -0.5)"><path d="M 0.0 0.0 L 1.0 0.0 L 1.0 1.0 L 0.0 1.0 L 0.0 0.0 Z" style="vector-effect: non-scaling-stroke;" /></g><g style="fill: #ffffff;stroke: black;stroke-width: 2.4000000000000004;" transform="matrix(0.016666666666666666, 0.0, 0.0, 0.016666666666666666, 0.0, 0.0)"><image transform="translate(-30.0, -30.0) scale(0.05, 0.05)" xlink:href="../robot.png" /></g></g></g></g></g></g></g><g transform="matrix(1.0, 0.0, 0.0, 1.0, 1.5, 0.0)"><g transform="matrix(1.0, -0.0, 0.0, 1.0, 0.0, 0.0)"><g /></g></g></g><g transform="matrix(1.0, 0.0, 0.0, 1.0, 2.0, 0.0)"><g><g><g><g><g><g><g style="fill: #ffffff;stroke: #cccccc;stroke-width: 2.4000000000000004;" transform="matrix(1.0, 0.0, 0.0, 1.0, -0.5, -0.5)"><path d="M 0.0 0.0 L 1.0 0.0 L 1.0 1.0 L 0.0 1.0 L 0.0 0.0 Z" style="vector-effect: non-scaling-stroke;" /></g><g style="fill: #ffffff;stroke: black;stroke-width: 2.4000000000000004;" transform="matrix(0.016666666666666666, 0.0, 0.0, 0.016666666666666666, 0.0, 0.0)"><image transform="translate(-30.0, -30.0) scale(0.05, 0.05)" xlink:href="../robot.png" /></g></g></g><g transform="matrix(1.0, 0.0, 0.0, 1.0, 0.0, 0.5)"><g transform="matrix(0.0, -1.0, 1.0, 0.0, 0.0, 0.0)"><g /></g></g></g><g transform="matrix(1.0, 0.0, 0.0, 1.0, 0.0, 1.0)"><g><g><g style="fill: #ffffff;stroke: #cccccc;stroke-width: 2.4000000000000004;" transform="matrix(1.0, 0.0, 0.0, 1.0, -0.5, -0.5)"><path d="M 0.0 0.0 L 1.0 0.0 L 1.0 1.0 L 0.0 1.0 L 0.0 0.0 Z" style="vector-effect: non-scaling-stroke;" /></g><g style="fill: #ffffff;stroke: black;stroke-width: 2.4000000000000004;" transform="matrix(0.016666666666666666, 0.0, 0.0, 0.016666666666666666, 0.0, 0.0)"><image transform="translate(-30.0, -30.0) scale(0.05, 0.05)" xlink:href="../robot.png" /></g></g></g></g></g><g transform="matrix(1.0, 0.0, 0.0, 1.0, 0.0, 1.5)"><g transform="matrix(0.0, -1.0, 1.0, 0.0, 0.0, 0.0)"><g /></g></g></g><g transform="matrix(1.0, 0.0, 0.0, 1.0, 0.0, 2.0)"><g><g><g style="fill: #ffffff;stroke: #cccccc;stroke-width: 2.4000000000000004;" transform="matrix(1.0, 0.0, 0.0, 1.0, -0.5, -0.5)"><path d="M 0.0 0.0 L 1.0 0.0 L 1.0 1.0 L 0.0 1.0 L 0.0 0.0 Z" style="vector-effect: non-scaling-stroke;" /></g><g style="fill: #ffffff;stroke: black;stroke-width: 2.4000000000000004;" transform="matrix(0.016666666666666666, 0.0, 0.0, 0.016666666666666666, 0.0, 0.0)"><image transform="translate(-30.0, -30.0) scale(0.05, 0.05)" xlink:href="../robot.png" /></g></g></g></g></g></g></g><g transform="matrix(1.0, 0.0, 0.0, 1.0, 2.5, 0.0)"><g transform="matrix(1.0, -0.0, 0.0, 1.0, 0.0, 0.0)"><g /></g></g></g><g transform="matrix(1.0, 0.0, 0.0, 1.0, 3.0, 0.0)"><g><g><g><g><g><g><g style="fill: #ffffff;stroke: #cccccc;stroke-width: 2.4000000000000004;" transform="matrix(1.0, 0.0, 0.0, 1.0, -0.5, -0.5)"><path d="M 0.0 0.0 L 1.0 0.0 L 1.0 1.0 L 0.0 1.0 L 0.0 0.0 Z" style="vector-effect: non-scaling-stroke;" /></g><g style="fill: #ffffff;stroke: black;stroke-width: 2.4000000000000004;" transform="matrix(0.016666666666666666, 0.0, 0.0, 0.016666666666666666, 0.0, 0.0)"><image transform="translate(-30.0, -30.0) scale(0.05, 0.05)" xlink:href="../robot.png" /></g></g></g><g transform="matrix(1.0, 0.0, 0.0, 1.0, 0.0, 0.5)"><g transform="matrix(0.0, -1.0, 1.0, 0.0, 0.0, 0.0)"><g /></g></g></g><g transform="matrix(1.0, 0.0, 0.0, 1.0, 0.0, 1.0)"><g><g><g style="fill: #ffffff;stroke: #cccccc;stroke-width: 2.4000000000000004;" transform="matrix(1.0, 0.0, 0.0, 1.0, -0.5, -0.5)"><path d="M 0.0 0.0 L 1.0 0.0 L 1.0 1.0 L 0.0 1.0 L 0.0 0.0 Z" style="vector-effect: non-scaling-stroke;" /></g><g style="fill: #ffffff;stroke: black;stroke-width: 2.4000000000000004;" transform="matrix(0.016666666666666666, 0.0, 0.0, 0.016666666666666666, 0.0, 0.0)"><image transform="translate(-30.0, -30.0) scale(0.05, 0.05)" xlink:href="../robot.png" /></g></g></g></g></g><g transform="matrix(1.0, 0.0, 0.0, 1.0, 0.0, 1.5)"><g transform="matrix(0.0, -1.0, 1.0, 0.0, 0.0, 0.0)"><g /></g></g></g><g transform="matrix(1.0, 0.0, 0.0, 1.0, 0.0, 2.0)"><g><g><g style="fill: #ffffff;stroke: #cccccc;stroke-width: 2.4000000000000004;" transform="matrix(1.0, 0.0, 0.0, 1.0, -0.5, -0.5)"><path d="M 0.0 0.0 L 1.0 0.0 L 1.0 1.0 L 0.0 1.0 L 0.0 0.0 Z" style="vector-effect: non-scaling-stroke;" /></g><g style="fill: #ffffff;stroke: black;stroke-width: 2.4000000000000004;" transform="matrix(0.016666666666666666, 0.0, 0.0, 0.016666666666666666, 0.0, 0.0)"><image transform="translate(-30.0, -30.0) scale(0.05, 0.05)" xlink:href="../robot.png" /></g></g></g></g></g></g></g></g></g></g><g style="stroke: black;stroke-width: 1.2000000000000002;" transform="matrix(0.0, -1.0, 1.0, 0.0, 0.0, 5.25)"><g /></g></g><g transform="matrix(1.0, 0.0, 0.0, 1.0, 0.0, 7.0)"><g transform="matrix(1.0, 0.0, 0.0, 1.0, -1.5, -1.0)"><g><g><g><g><g><g><g><g><g><g><g><g><g style="fill: #ffffff;stroke: #cccccc;stroke-width: 2.4000000000000004;" transform="matrix(1.0, 0.0, 0.0, 1.0, -0.5, -0.5)"><path d="M 0.0 0.0 L 1.0 0.0 L 1.0 1.0 L 0.0 1.0 L 0.0 0.0 Z" style="vector-effect: non-scaling-stroke;" /></g><g style="fill: #ffffff;stroke: black;stroke-width: 2.4000000000000004;" transform="matrix(0.016666666666666666, 0.0, 0.0, 0.016666666666666666, 0.0, 0.0)"><image transform="translate(-30.0, -30.0) scale(0.05, 0.05)" xlink:href="../robot.png" /></g></g></g><g transform="matrix(1.0, 0.0, 0.0, 1.0, 0.0, 0.5)"><g transform="matrix(0.0, -1.0, 1.0, 0.0, 0.0, 0.0)"><g /></g></g></g><g transform="matrix(1.0, 0.0, 0.0, 1.0, 0.0, 1.0)"><g><g><g style="fill: #ffffff;stroke: #cccccc;stroke-width: 2.4000000000000004;" transform="matrix(1.0, 0.0, 0.0, 1.0, -0.5, -0.5)"><path d="M 0.0 0.0 L 1.0 0.0 L 1.0 1.0 L 0.0 1.0 L 0.0 0.0 Z" style="vector-effect: non-scaling-stroke;" /></g><g style="fill: #ffffff;stroke: black;stroke-width: 2.4000000000000004;" transform="matrix(0.016666666666666666, 0.0, 0.0, 0.016666666666666666, 0.0, 0.0)"><image transform="translate(-30.0, -30.0) scale(0.05, 0.05)" xlink:href="../robot.png" /></g></g></g></g></g><g transform="matrix(1.0, 0.0, 0.0, 1.0, 0.0, 1.5)"><g transform="matrix(0.0, -1.0, 1.0, 0.0, 0.0, 0.0)"><g /></g></g></g><g transform="matrix(1.0, 0.0, 0.0, 1.0, 0.0, 2.0)"><g><g><g style="fill: #ffffff;stroke: #cccccc;stroke-width: 2.4000000000000004;" transform="matrix(1.0, 0.0, 0.0, 1.0, -0.5, -0.5)"><path d="M 0.0 0.0 L 1.0 0.0 L 1.0 1.0 L 0.0 1.0 L 0.0 0.0 Z" style="vector-effect: non-scaling-stroke;" /></g><g style="fill: #ffffff;stroke: black;stroke-width: 2.4000000000000004;" transform="matrix(0.016666666666666666, 0.0, 0.0, 0.016666666666666666, 0.0, 0.0)"><image transform="translate(-30.0, -30.0) scale(0.05, 0.05)" xlink:href="../robot.png" /></g></g></g></g></g><g transform="matrix(1.0, 0.0, 0.0, 1.0, 0.5, 0.0)"><g transform="matrix(1.0, -0.0, 0.0, 1.0, 0.0, 0.0)"><g /></g></g></g><g transform="matrix(1.0, 0.0, 0.0, 1.0, 1.0, 0.0)"><g><g><g><g><g><g><g style="fill: #ffffff;stroke: #cccccc;stroke-width: 2.4000000000000004;" transform="matrix(1.0, 0.0, 0.0, 1.0, -0.5, -0.5)"><path d="M 0.0 0.0 L 1.0 0.0 L 1.0 1.0 L 0.0 1.0 L 0.0 0.0 Z" style="vector-effect: non-scaling-stroke;" /></g><g style="fill: #ffffff;stroke: black;stroke-width: 2.4000000000000004;" transform="matrix(0.016666666666666666, 0.0, 0.0, 0.016666666666666666, 0.0, 0.0)"><image transform="translate(-30.0, -30.0) scale(0.05, 0.05)" xlink:href="../robot.png" /></g></g></g><g transform="matrix(1.0, 0.0, 0.0, 1.0, 0.0, 0.5)"><g transform="matrix(0.0, -1.0, 1.0, 0.0, 0.0, 0.0)"><g /></g></g></g><g transform="matrix(1.0, 0.0, 0.0, 1.0, 0.0, 1.0)"><g><g><g style="fill: #ffffff;stroke: #cccccc;stroke-width: 2.4000000000000004;" transform="matrix(1.0, 0.0, 0.0, 1.0, -0.5, -0.5)"><path d="M 0.0 0.0 L 1.0 0.0 L 1.0 1.0 L 0.0 1.0 L 0.0 0.0 Z" style="vector-effect: non-scaling-stroke;" /></g><g style="fill: #ffffff;stroke: black;stroke-width: 2.4000000000000004;" transform="matrix(0.016666666666666666, 0.0, 0.0, 0.016666666666666666, 0.0, 0.0)"><image transform="translate(-30.0, -30.0) scale(0.05, 0.05)" xlink:href="../robot.png" /></g></g></g></g></g><g transform="matrix(1.0, 0.0, 0.0, 1.0, 0.0, 1.5)"><g transform="matrix(0.0, -1.0, 1.0, 0.0, 0.0, 0.0)"><g /></g></g></g><g transform="matrix(1.0, 0.0, 0.0, 1.0, 0.0, 2.0)"><g><g><g style="fill: #ffffff;stroke: #cccccc;stroke-width: 2.4000000000000004;" transform="matrix(1.0, 0.0, 0.0, 1.0, -0.5, -0.5)"><path d="M 0.0 0.0 L 1.0 0.0 L 1.0 1.0 L 0.0 1.0 L 0.0 0.0 Z" style="vector-effect: non-scaling-stroke;" /></g><g style="fill: #ffffff;stroke: black;stroke-width: 2.4000000000000004;" transform="matrix(0.016666666666666666, 0.0, 0.0, 0.016666666666666666, 0.0, 0.0)"><image transform="translate(-30.0, -30.0) scale(0.05, 0.05)" xlink:href="../robot.png" /></g></g></g></g></g></g></g><g transform="matrix(1.0, 0.0, 0.0, 1.0, 1.5, 0.0)"><g transform="matrix(1.0, -0.0, 0.0, 1.0, 0.0, 0.0)"><g /></g></g></g><g transform="matrix(1.0, 0.0, 0.0, 1.0, 2.0, 0.0)"><g><g><g><g><g><g><g style="fill: #ffffff;stroke: #cccccc;stroke-width: 2.4000000000000004;" transform="matrix(1.0, 0.0, 0.0, 1.0, -0.5, -0.5)"><path d="M 0.0 0.0 L 1.0 0.0 L 1.0 1.0 L 0.0 1.0 L 0.0 0.0 Z" style="vector-effect: non-scaling-stroke;" /></g><g style="fill: #ffffff;stroke: black;stroke-width: 2.4000000000000004;" transform="matrix(0.016666666666666666, 0.0, 0.0, 0.016666666666666666, 0.0, 0.0)"><image transform="translate(-30.0, -30.0) scale(0.05, 0.05)" xlink:href="../robot.png" /></g></g></g><g transform="matrix(1.0, 0.0, 0.0, 1.0, 0.0, 0.5)"><g transform="matrix(0.0, -1.0, 1.0, 0.0, 0.0, 0.0)"><g /></g></g></g><g transform="matrix(1.0, 0.0, 0.0, 1.0, 0.0, 1.0)"><g><g><g style="fill: #ffffff;stroke: #cccccc;stroke-width: 2.4000000000000004;" transform="matrix(1.0, 0.0, 0.0, 1.0, -0.5, -0.5)"><path d="M 0.0 0.0 L 1.0 0.0 L 1.0 1.0 L 0.0 1.0 L 0.0 0.0 Z" style="vector-effect: non-scaling-stroke;" /></g><g style="fill: #ffffff;stroke: black;stroke-width: 2.4000000000000004;" transform="matrix(0.016666666666666666, 0.0, 0.0, 0.016666666666666666, 0.0, 0.0)"><image transform="translate(-30.0, -30.0) scale(0.05, 0.05)" xlink:href="../robot.png" /></g></g></g></g></g><g transform="matrix(1.0, 0.0, 0.0, 1.0, 0.0, 1.5)"><g transform="matrix(0.0, -1.0, 1.0, 0.0, 0.0, 0.0)"><g /></g></g></g><g transform="matrix(1.0, 0.0, 0.0, 1.0, 0.0, 2.0)"><g><g><g style="fill: #ffffff;stroke: #cccccc;stroke-width: 2.4000000000000004;" transform="matrix(1.0, 0.0, 0.0, 1.0, -0.5, -0.5)"><path d="M 0.0 0.0 L 1.0 0.0 L 1.0 1.0 L 0.0 1.0 L 0.0 0.0 Z" style="vector-effect: non-scaling-stroke;" /></g><g style="fill: #ffffff;stroke: black;stroke-width: 2.4000000000000004;" transform="matrix(0.016666666666666666, 0.0, 0.0, 0.016666666666666666, 0.0, 0.0)"><image transform="translate(-30.0, -30.0) scale(0.05, 0.05)" xlink:href="../robot.png" /></g></g></g></g></g></g></g><g transform="matrix(1.0, 0.0, 0.0, 1.0, 2.5, 0.0)"><g transform="matrix(1.0, -0.0, 0.0, 1.0, 0.0, 0.0)"><g /></g></g></g><g transform="matrix(1.0, 0.0, 0.0, 1.0, 3.0, 0.0)"><g><g><g><g><g><g><g style="fill: #ffffff;stroke: #cccccc;stroke-width: 2.4000000000000004;" transform="matrix(1.0, 0.0, 0.0, 1.0, -0.5, -0.5)"><path d="M 0.0 0.0 L 1.0 0.0 L 1.0 1.0 L 0.0 1.0 L 0.0 0.0 Z" style="vector-effect: non-scaling-stroke;" /></g><g style="fill: #ffffff;stroke: black;stroke-width: 2.4000000000000004;" transform="matrix(0.016666666666666666, 0.0, 0.0, 0.016666666666666666, 0.0, 0.0)"><image transform="translate(-30.0, -30.0) scale(0.05, 0.05)" xlink:href="../robot.png" /></g></g></g><g transform="matrix(1.0, 0.0, 0.0, 1.0, 0.0, 0.5)"><g transform="matrix(0.0, -1.0, 1.0, 0.0, 0.0, 0.0)"><g /></g></g></g><g transform="matrix(1.0, 0.0, 0.0, 1.0, 0.0, 1.0)"><g><g><g style="fill: #ffffff;stroke: #cccccc;stroke-width: 2.4000000000000004;" transform="matrix(1.0, 0.0, 0.0, 1.0, -0.5, -0.5)"><path d="M 0.0 0.0 L 1.0 0.0 L 1.0 1.0 L 0.0 1.0 L 0.0 0.0 Z" style="vector-effect: non-scaling-stroke;" /></g><g style="fill: #ffffff;stroke: black;stroke-width: 2.4000000000000004;" transform="matrix(0.016666666666666666, 0.0, 0.0, 0.016666666666666666, 0.0, 0.0)"><image transform="translate(-30.0, -30.0) scale(0.05, 0.05)" xlink:href="../robot.png" /></g></g></g></g></g><g transform="matrix(1.0, 0.0, 0.0, 1.0, 0.0, 1.5)"><g transform="matrix(0.0, -1.0, 1.0, 0.0, 0.0, 0.0)"><g /></g></g></g><g transform="matrix(1.0, 0.0, 0.0, 1.0, 0.0, 2.0)"><g><g><g style="fill: #ffffff;stroke: #cccccc;stroke-width: 2.4000000000000004;" transform="matrix(1.0, 0.0, 0.0, 1.0, -0.5, -0.5)"><path d="M 0.0 0.0 L 1.0 0.0 L 1.0 1.0 L 0.0 1.0 L 0.0 0.0 Z" style="vector-effect: non-scaling-stroke;" /></g><g style="fill: #ffffff;stroke: black;stroke-width: 2.4000000000000004;" transform="matrix(0.016666666666666666, 0.0, 0.0, 0.016666666666666666, 0.0, 0.0)"><image transform="translate(-30.0, -30.0) scale(0.05, 0.05)" xlink:href="../robot.png" /></g></g></g></g></g></g></g></g></g></g></g><g style="stroke: black;stroke-width: 1.2000000000000002;" transform="matrix(1.0, 0.0, 0.0, 1.0, 2.25, 0.0)"><g /></g></g><g transform="matrix(1.0, 0.0, 0.0, 1.0, 4.75, 0.0)"><g transform="matrix(1.5, 0.0, 0.0, 1.5, 0.0, 0.0)"><g transform="matrix(1.0, 0.0, 0.0, 1.0, -1.0, -3.0)"><g><g><g><g><g><g><g><g><g><g><g><g><g><g><g><g><g><g style="fill: #ffffff;stroke: black;stroke-width: 2.4000000000000004;" transform="matrix(1.0, 0.0, 0.0, 1.0, -0.5, -0.5)"><path d="M 0.0 0.0 L 1.0 0.0 L 1.0 1.0 L 0.0 1.0 L 0.0 0.0 Z" style="vector-effect: non-scaling-stroke;" /></g></g><g transform="matrix(1.0, 0.0, 0.0, 1.0, 0.0, 0.5)"><g transform="matrix(0.0, -1.0, 1.0, 0.0, 0.0, 0.0)"><g /></g></g></g><g transform="matrix(1.0, 0.0, 0.0, 1.0, 0.0, 1.0)"><g><g style="fill: #ffffff;stroke: black;stroke-width: 2.4000000000000004;" transform="matrix(1.0, 0.0, 0.0, 1.0, -0.5, -0.5)"><path d="M 0.0 0.0 L 1.0 0.0 L 1.0 1.0 L 0.0 1.0 L 0.0 0.0 Z" style="vector-effect: non-scaling-stroke;" /></g></g></g></g><g transform="matrix(1.0, 0.0, 0.0, 1.0, 0.0, 1.5)"><g transform="matrix(0.0, -1.0, 1.0, 0.0, 0.0, 0.0)"><g /></g></g></g><g transform="matrix(1.0, 0.0, 0.0, 1.0, 0.0, 2.0)"><g><g style="fill: #ffffff;stroke: black;stroke-width: 2.4000000000000004;" transform="matrix(1.0, 0.0, 0.0, 1.0, -0.5, -0.5)"><path d="M 0.0 0.0 L 1.0 0.0 L 1.0 1.0 L 0.0 1.0 L 0.0 0.0 Z" style="vector-effect: non-scaling-stroke;" /></g></g></g></g><g transform="matrix(1.0, 0.0, 0.0, 1.0, 0.0, 2.5)"><g transform="matrix(0.0, -1.0, 1.0, 0.0, 0.0, 0.0)"><g /></g></g></g><g transform="matrix(1.0, 0.0, 0.0, 1.0, 0.0, 3.0)"><g><g style="fill: #ffffff;stroke: black;stroke-width: 2.4000000000000004;" transform="matrix(1.0, 0.0, 0.0, 1.0, -0.5, -0.5)"><path d="M 0.0 0.0 L 1.0 0.0 L 1.0 1.0 L 0.0 1.0 L 0.0 0.0 Z" style="vector-effect: non-scaling-stroke;" /></g></g></g></g><g transform="matrix(1.0, 0.0, 0.0, 1.0, 0.0, 3.5)"><g transform="matrix(0.0, -1.0, 1.0, 0.0, 0.0, 0.0)"><g /></g></g></g><g transform="matrix(1.0, 0.0, 0.0, 1.0, 0.0, 4.0)"><g><g style="fill: #ffffff;stroke: black;stroke-width: 2.4000000000000004;" transform="matrix(1.0, 0.0, 0.0, 1.0, -0.5, -0.5)"><path d="M 0.0 0.0 L 1.0 0.0 L 1.0 1.0 L 0.0 1.0 L 0.0 0.0 Z" style="vector-effect: non-scaling-stroke;" /></g></g></g></g><g transform="matrix(1.0, 0.0, 0.0, 1.0, 0.0, 4.5)"><g transform="matrix(0.0, -1.0, 1.0, 0.0, 0.0, 0.0)"><g /></g></g></g><g transform="matrix(1.0, 0.0, 0.0, 1.0, 0.0, 5.0)"><g><g style="fill: #ffffff;stroke: black;stroke-width: 2.4000000000000004;" transform="matrix(1.0, 0.0, 0.0, 1.0, -0.5, -0.5)"><path d="M 0.0 0.0 L 1.0 0.0 L 1.0 1.0 L 0.0 1.0 L 0.0 0.0 Z" style="vector-effect: non-scaling-stroke;" /></g></g></g></g><g transform="matrix(1.0, 0.0, 0.0, 1.0, 0.0, 5.5)"><g transform="matrix(0.0, -1.0, 1.0, 0.0, 0.0, 0.0)"><g /></g></g></g><g transform="matrix(1.0, 0.0, 0.0, 1.0, 0.0, 6.0)"><g><g style="fill: #ffffff;stroke: black;stroke-width: 2.4000000000000004;" transform="matrix(1.0, 0.0, 0.0, 1.0, -0.5, -0.5)"><path d="M 0.0 0.0 L 1.0 0.0 L 1.0 1.0 L 0.0 1.0 L 0.0 0.0 Z" style="vector-effect: non-scaling-stroke;" /></g></g></g></g><g transform="matrix(1.0, 0.0, 0.0, 1.0, 0.5, 0.0)"><g transform="matrix(1.0, -0.0, 0.0, 1.0, 0.0, 0.0)"><g /></g></g></g><g transform="matrix(1.0, 0.0, 0.0, 1.0, 1.0, 0.0)"><g><g><g><g><g><g><g><g><g><g><g><g><g><g style="fill: #ffffff;stroke: black;stroke-width: 2.4000000000000004;" transform="matrix(1.0, 0.0, 0.0, 1.0, -0.5, -0.5)"><path d="M 0.0 0.0 L 1.0 0.0 L 1.0 1.0 L 0.0 1.0 L 0.0 0.0 Z" style="vector-effect: non-scaling-stroke;" /></g></g><g transform="matrix(1.0, 0.0, 0.0, 1.0, 0.0, 0.5)"><g transform="matrix(0.0, -1.0, 1.0, 0.0, 0.0, 0.0)"><g /></g></g></g><g transform="matrix(1.0, 0.0, 0.0, 1.0, 0.0, 1.0)"><g><g style="fill: #ffffff;stroke: black;stroke-width: 2.4000000000000004;" transform="matrix(1.0, 0.0, 0.0, 1.0, -0.5, -0.5)"><path d="M 0.0 0.0 L 1.0 0.0 L 1.0 1.0 L 0.0 1.0 L 0.0 0.0 Z" style="vector-effect: non-scaling-stroke;" /></g></g></g></g><g transform="matrix(1.0, 0.0, 0.0, 1.0, 0.0, 1.5)"><g transform="matrix(0.0, -1.0, 1.0, 0.0, 0.0, 0.0)"><g /></g></g></g><g transform="matrix(1.0, 0.0, 0.0, 1.0, 0.0, 2.0)"><g><g style="fill: #ffffff;stroke: black;stroke-width: 2.4000000000000004;" transform="matrix(1.0, 0.0, 0.0, 1.0, -0.5, -0.5)"><path d="M 0.0 0.0 L 1.0 0.0 L 1.0 1.0 L 0.0 1.0 L 0.0 0.0 Z" style="vector-effect: non-scaling-stroke;" /></g></g></g></g><g transform="matrix(1.0, 0.0, 0.0, 1.0, 0.0, 2.5)"><g transform="matrix(0.0, -1.0, 1.0, 0.0, 0.0, 0.0)"><g /></g></g></g><g transform="matrix(1.0, 0.0, 0.0, 1.0, 0.0, 3.0)"><g><g style="fill: #ffffff;stroke: black;stroke-width: 2.4000000000000004;" transform="matrix(1.0, 0.0, 0.0, 1.0, -0.5, -0.5)"><path d="M 0.0 0.0 L 1.0 0.0 L 1.0 1.0 L 0.0 1.0 L 0.0 0.0 Z" style="vector-effect: non-scaling-stroke;" /></g></g></g></g><g transform="matrix(1.0, 0.0, 0.0, 1.0, 0.0, 3.5)"><g transform="matrix(0.0, -1.0, 1.0, 0.0, 0.0, 0.0)"><g /></g></g></g><g transform="matrix(1.0, 0.0, 0.0, 1.0, 0.0, 4.0)"><g><g style="fill: #ffffff;stroke: black;stroke-width: 2.4000000000000004;" transform="matrix(1.0, 0.0, 0.0, 1.0, -0.5, -0.5)"><path d="M 0.0 0.0 L 1.0 0.0 L 1.0 1.0 L 0.0 1.0 L 0.0 0.0 Z" style="vector-effect: non-scaling-stroke;" /></g></g></g></g><g transform="matrix(1.0, 0.0, 0.0, 1.0, 0.0, 4.5)"><g transform="matrix(0.0, -1.0, 1.0, 0.0, 0.0, 0.0)"><g /></g></g></g><g transform="matrix(1.0, 0.0, 0.0, 1.0, 0.0, 5.0)"><g><g style="fill: #ffffff;stroke: black;stroke-width: 2.4000000000000004;" transform="matrix(1.0, 0.0, 0.0, 1.0, -0.5, -0.5)"><path d="M 0.0 0.0 L 1.0 0.0 L 1.0 1.0 L 0.0 1.0 L 0.0 0.0 Z" style="vector-effect: non-scaling-stroke;" /></g></g></g></g><g transform="matrix(1.0, 0.0, 0.0, 1.0, 0.0, 5.5)"><g transform="matrix(0.0, -1.0, 1.0, 0.0, 0.0, 0.0)"><g /></g></g></g><g transform="matrix(1.0, 0.0, 0.0, 1.0, 0.0, 6.0)"><g><g style="fill: #ffffff;stroke: black;stroke-width: 2.4000000000000004;" transform="matrix(1.0, 0.0, 0.0, 1.0, -0.5, -0.5)"><path d="M 0.0 0.0 L 1.0 0.0 L 1.0 1.0 L 0.0 1.0 L 0.0 0.0 Z" style="vector-effect: non-scaling-stroke;" /></g></g></g></g></g></g><g transform="matrix(1.0, 0.0, 0.0, 1.0, 1.5, 0.0)"><g transform="matrix(1.0, -0.0, 0.0, 1.0, 0.0, 0.0)"><g /></g></g></g><g transform="matrix(1.0, 0.0, 0.0, 1.0, 2.0, 0.0)"><g><g><g><g><g><g><g><g><g><g><g><g><g><g style="fill: #ffffff;stroke: black;stroke-width: 2.4000000000000004;" transform="matrix(1.0, 0.0, 0.0, 1.0, -0.5, -0.5)"><path d="M 0.0 0.0 L 1.0 0.0 L 1.0 1.0 L 0.0 1.0 L 0.0 0.0 Z" style="vector-effect: non-scaling-stroke;" /></g></g><g transform="matrix(1.0, 0.0, 0.0, 1.0, 0.0, 0.5)"><g transform="matrix(0.0, -1.0, 1.0, 0.0, 0.0, 0.0)"><g /></g></g></g><g transform="matrix(1.0, 0.0, 0.0, 1.0, 0.0, 1.0)"><g><g style="fill: #ffffff;stroke: black;stroke-width: 2.4000000000000004;" transform="matrix(1.0, 0.0, 0.0, 1.0, -0.5, -0.5)"><path d="M 0.0 0.0 L 1.0 0.0 L 1.0 1.0 L 0.0 1.0 L 0.0 0.0 Z" style="vector-effect: non-scaling-stroke;" /></g></g></g></g><g transform="matrix(1.0, 0.0, 0.0, 1.0, 0.0, 1.5)"><g transform="matrix(0.0, -1.0, 1.0, 0.0, 0.0, 0.0)"><g /></g></g></g><g transform="matrix(1.0, 0.0, 0.0, 1.0, 0.0, 2.0)"><g><g style="fill: #ffffff;stroke: black;stroke-width: 2.4000000000000004;" transform="matrix(1.0, 0.0, 0.0, 1.0, -0.5, -0.5)"><path d="M 0.0 0.0 L 1.0 0.0 L 1.0 1.0 L 0.0 1.0 L 0.0 0.0 Z" style="vector-effect: non-scaling-stroke;" /></g></g></g></g><g transform="matrix(1.0, 0.0, 0.0, 1.0, 0.0, 2.5)"><g transform="matrix(0.0, -1.0, 1.0, 0.0, 0.0, 0.0)"><g /></g></g></g><g transform="matrix(1.0, 0.0, 0.0, 1.0, 0.0, 3.0)"><g><g style="fill: #ffffff;stroke: black;stroke-width: 2.4000000000000004;" transform="matrix(1.0, 0.0, 0.0, 1.0, -0.5, -0.5)"><path d="M 0.0 0.0 L 1.0 0.0 L 1.0 1.0 L 0.0 1.0 L 0.0 0.0 Z" style="vector-effect: non-scaling-stroke;" /></g></g></g></g><g transform="matrix(1.0, 0.0, 0.0, 1.0, 0.0, 3.5)"><g transform="matrix(0.0, -1.0, 1.0, 0.0, 0.0, 0.0)"><g /></g></g></g><g transform="matrix(1.0, 0.0, 0.0, 1.0, 0.0, 4.0)"><g><g style="fill: #ffffff;stroke: black;stroke-width: 2.4000000000000004;" transform="matrix(1.0, 0.0, 0.0, 1.0, -0.5, -0.5)"><path d="M 0.0 0.0 L 1.0 0.0 L 1.0 1.0 L 0.0 1.0 L 0.0 0.0 Z" style="vector-effect: non-scaling-stroke;" /></g></g></g></g><g transform="matrix(1.0, 0.0, 0.0, 1.0, 0.0, 4.5)"><g transform="matrix(0.0, -1.0, 1.0, 0.0, 0.0, 0.0)"><g /></g></g></g><g transform="matrix(1.0, 0.0, 0.0, 1.0, 0.0, 5.0)"><g><g style="fill: #ffffff;stroke: black;stroke-width: 2.4000000000000004;" transform="matrix(1.0, 0.0, 0.0, 1.0, -0.5, -0.5)"><path d="M 0.0 0.0 L 1.0 0.0 L 1.0 1.0 L 0.0 1.0 L 0.0 0.0 Z" style="vector-effect: non-scaling-stroke;" /></g></g></g></g><g transform="matrix(1.0, 0.0, 0.0, 1.0, 0.0, 5.5)"><g transform="matrix(0.0, -1.0, 1.0, 0.0, 0.0, 0.0)"><g /></g></g></g><g transform="matrix(1.0, 0.0, 0.0, 1.0, 0.0, 6.0)"><g><g style="fill: #ffffff;stroke: black;stroke-width: 2.4000000000000004;" transform="matrix(1.0, 0.0, 0.0, 1.0, -0.5, -0.5)"><path d="M 0.0 0.0 L 1.0 0.0 L 1.0 1.0 L 0.0 1.0 L 0.0 0.0 Z" style="vector-effect: non-scaling-stroke;" /></g></g></g></g></g></g></g></g></g></g><g style="fill: #000000;stroke: black;stroke-width: 1.2000000000000002;" transform="matrix(1.0, 0.0, 0.0, 1.0, 1.0, -5.0)"><path d="M 0.0 0.0 L 0.0 3.0 L 0.0 3.0 L 1.0 3.0 L 1.0 3.0 L 1.0 0.0 L 1.0 0.0 L 0.0 0.0 L 0.0 0.0 L 0.0 0.01 Z" style="vector-effect: non-scaling-stroke;" /></g></g><g style="fill: #000000;stroke: black;stroke-width: 1.2000000000000002;" transform="matrix(1.0, 0.0, 0.0, 1.0, 1.0, -1.5)"><path d="M 0.0 0.0 L 0.0 3.0 L 0.0 3.0 L 1.0 3.0 L 1.0 3.0 L 1.0 0.0 L 1.0 0.0 L 0.0 0.0 L 0.0 0.0 L 0.0 0.01 Z" style="vector-effect: non-scaling-stroke;" /></g></g><g style="fill: #000000;stroke: black;stroke-width: 1.2000000000000002;" transform="matrix(1.0, 0.0, 0.0, 1.0, 1.0, 2.0)"><path d="M 0.0 0.0 L 0.0 3.0 L 0.0 3.0 L 1.0 3.0 L 1.0 3.0 L 1.0 0.0 L 1.0 0.0 L 0.0 0.0 L 0.0 0.0 L 0.0 0.01 Z" style="vector-effect: non-scaling-stroke;" /></g></g><g style="fill: #000000;stroke: black;stroke-width: 1.2000000000000002;" transform="matrix(1.0, 0.0, 0.0, 1.0, -2.0, 3.0)"><path d="M 0.0 0.0 L 0.0 2.0 L 0.0 2.0 L 4.0 2.0 L 4.0 2.0 L 4.0 0.0 L 4.0 0.0 L 0.0 0.0 L 0.0 0.0 L 0.0 0.01 Z" style="vector-effect: non-scaling-stroke;" /></g></g><g transform="matrix(1.0, 0.0, 0.0, 1.0, -0.5, -3.5)"><g transform="matrix(0.9954954725939522, 0.09480909262799522, -0.09480909262799522, 0.9954954725939522, 0.0, 0.0)"><g><g style="stroke: #ff9700;stroke-width: 1.2000000000000002;" transform="matrix(1.0, 0.0, 0.0, 1.0, 0.0, 0.0)"><path d="M 0.0 0.0 L 5.273755777432247 0.0" style="vector-effect: non-scaling-stroke;fill:none;" /></g><g style="stroke: black;stroke-width: 1.2000000000000002;" transform="matrix(1.0, 0.0, 0.0, 1.0, 5.273755777432247, 0.0)"><g style="fill: #000000;stroke: black;stroke-width: 0.0;" transform="matrix(0.0, 0.12, -0.12, 0.0, -0.144, 0.0)"><path d="M 0.0 -0.2 L 1.0 0.2 L 0.0 -1.2 L -1.0 0.19999999999999996 L 0.0 -0.2 Z" style="vector-effect: non-scaling-stroke;" /></g></g></g></g></g></g></g><g /></g></g></g></g></svg>
