<?xml version="1.0" encoding="utf-8" ?>
<svg baseProfile="full" height="400" version="1.1" width="450" xmlns="http://www.w3.org/2000/svg" xmlns:ev="http://www.w3.org/2001/xml-events" xmlns:xlink="http://www.w3.org/1999/xlink"><defs><marker id="arrow" markerHeight="3.5" markerWidth="5" orient="auto" refX="5.0" refY="1.7"><polygon points="0,0 5,1.75 0,3.5" /></marker></defs><g style="fill:white;"><g transform="matrix(1.0, 0.0, 0.0, 1.0, 225.10460251046024, 200.0)"><g transform="matrix(31.878860330743176, 0.0, 0.0, 31.878860330743176, 0.0, 0.0)"><g><g transform="matrix(1.0, 0.0, 0.0, 1.0, -0.0, -5.475)"><g><g><g><g style="fill: #000000;stroke: #ffffff;stroke-width: 0.0;" transform="matrix(1.0, 0.0, 0.0, 1.0, 0.0, 0.0)"><text style="text-align:center;text-anchor:middle;dominant-baseline:middle;font-family:sans-serif;font-weight: bold;font-size:1.0px;vector-effect: non-scaling-stroke" transform="translate(-5e-05, 0)">grid</text></g><g /></g><g style="stroke: black;stroke-width: 1.2000000000000002;" transform="matrix(0.0, -1.0, 1.0, 0.0, 0.0, 0.75)"><g /></g></g><g transform="matrix(1.0, 0.0, 0.0, 1.0, 0.0, 6.225)"><g transform="matrix(1.0, 0.0, 0.0, 1.0, -6.6, 0.125)"><g><g transform="matrix(0.0, -1.0, 1.0, 0.0, 0.0, 0.0)"><g><g style="fill: #000000;stroke: #ffffff;stroke-width: 0.0;" transform="matrix(1.0, 0.0, 0.0, 1.0, 0.0, 0.0)"><text style="text-align:center;text-anchor:middle;dominant-baseline:middle;font-family:sans-serif;font-weight: bold;font-size:0.25px;vector-effect: non-scaling-stroke" transform="translate(-5e-05, 0)">blockidx.y</text></g><g /></g></g><g transform="matrix(1.0, 0.0, 0.0, 1.0, 6.7250000000000005, 0.0)"><g><g transform="matrix(1.0, 0.0, 0.0, 1.0, -4.4, -3.4)"><g><g><g><g><g><g><g><g><g><g><g transform="matrix(1.0, 0.0, 0.0, 1.0, -1.5, -1.0)"><g><g><g><g><g><g><g><g><g><g><g><g><g style="fill: #ffffff;stroke: #cccccc;stroke-width: 2.4000000000000004;" transform="matrix(1.0, 0.0, 0.0, 1.0, -0.5, -0.5)"><path d="M 0.0 0.0 L 1.0 0.0 L 1.0 1.0 L 0.0 1.0 L 0.0 0.0 Z" style="vector-effect: non-scaling-stroke;" /></g><g style="fill: #ffffff;stroke: black;stroke-width: 2.4000000000000004;" transform="matrix(0.016666666666666666, 0.0, 0.0, 0.016666666666666666, 0.0, 0.0)"><image transform="translate(-30.0, -30.0) scale(0.05, 0.05)" xlink:href="../robot.png" /></g></g></g><g transform="matrix(1.0, 0.0, 0.0, 1.0, 0.0, 0.5)"><g transform="matrix(0.0, -1.0, 1.0, 0.0, 0.0, 0.0)"><g /></g></g></g><g transform="matrix(1.0, 0.0, 0.0, 1.0, 0.0, 1.0)"><g><g><g style="fill: #ffffff;stroke: #cccccc;stroke-width: 2.4000000000000004;" transform="matrix(1.0, 0.0, 0.0, 1.0, -0.5, -0.5)"><path d="M 0.0 0.0 L 1.0 0.0 L 1.0 1.0 L 0.0 1.0 L 0.0 0.0 Z" style="vector-effect: non-scaling-stroke;" /></g><g style="fill: #ffffff;stroke: black;stroke-width: 2.4000000000000004;" transform="matrix(0.016666666666666666, 0.0, 0.0, 0.016666666666666666, 0.0, 0.0)"><image transform="translate(-30.0, -30.0) scale(0.05, 0.05)" xlink:href="../robot.png" /></g></g></g></g></g><g transform="matrix(1.0, 0.0, 0.0, 1.0, 0.0, 1.5)"><g transform="matrix(0.0, -1.0, 1.0, 0.0, 0.0, 0.0)"><g /></g></g></g><g transform="matrix(1.0, 0.0, 0.0, 1.0, 0.0, 2.0)"><g><g><g style="fill: #ffffff;stroke: #cccccc;stroke-width: 2.4000000000000004;" transform="matrix(1.0, 0.0, 0.0, 1.0, -0.5, -0.5)"><path d="M 0.0 0.0 L 1.0 0.0 L 1.0 1.0 L 0.0 1.0 L 0.0 0.0 Z" style="vector-effect: non-scaling-stroke;" /></g><g style="fill: #ffffff;stroke: black;stroke-width: 2.4000000000000004;" transform="matrix(0.016666666666666666, 0.0, 0.0, 0.016666666666666666, 0.0, 0.0)"><image transform="translate(-30.0, -30.0) scale(0.05, 0.05)" xlink:href="../robot.png" /></g></g></g></g></g><g transform="matrix(1.0, 0.0, 0.0, 1.0, 0.5, 0.0)"><g transform="matrix(1.0, -0.0, 0.0, 1.0, 0.0, 0.0)"><g /></g></g></g><g transform="matrix(1.0, 0.0, 0.0, 1.0, 1.0, 0.0)"><g><g><g><g><g><g><g style="fill: #ffffff;stroke: #cccccc;stroke-width: 2.4000000000000004;" transform="matrix(1.0, 0.0, 0.0, 1.0, -0.5, -0.5)"><path d="M 0.0 0.0 L 1.0 0.0 L 1.0 1.0 L 0.0 1.0 L 0.0 0.0 Z" style="vector-effect: non-scaling-stroke;" /></g><g style="fill: #ffffff;stroke: black;stroke-width: 2.4000000000000004;" transform="matrix(0.016666666666666666, 0.0, 0.0, 0.016666666666666666, 0.0, 0.0)"><image transform="translate(-30.0, -30.0) scale(0.05, 0.05)" xlink:href="../robot.png" /></g></g></g><g transform="matrix(1.0, 0.0, 0.0, 1.0, 0.0, 0.5)"><g transform="matrix(0.0, -1.0, 1.0, 0.0, 0.0, 0.0)"><g /></g></g></g><g transform="matrix(1.0, 0.0, 0.0, 1.0, 0.0, 1.0)"><g><g><g style="fill: #ffffff;stroke: #cccccc;stroke-width: 2.4000000000000004;" transform="matrix(1.0, 0.0, 0.0, 1.0, -0.5, -0.5)"><path d="M 0.0 0.0 L 1.0 0.0 L 1.0 1.0 L 0.0 1.0 L 0.0 0.0 Z" style="vector-effect: non-scaling-stroke;" /></g><g style="fill: #ffffff;stroke: black;stroke-width: 2.4000000000000004;" transform="matrix(0.016666666666666666, 0.0, 0.0, 0.016666666666666666, 0.0, 0.0)"><image transform="translate(-30.0, -30.0) scale(0.05, 0.05)" xlink:href="../robot.png" /></g></g></g></g></g><g transform="matrix(1.0, 0.0, 0.0, 1.0, 0.0, 1.5)"><g transform="matrix(0.0, -1.0, 1.0, 0.0, 0.0, 0.0)"><g /></g></g></g><g transform="matrix(1.0, 0.0, 0.0, 1.0, 0.0, 2.0)"><g><g><g style="fill: #ffffff;stroke: #cccccc;stroke-width: 2.4000000000000004;" transform="matrix(1.0, 0.0, 0.0, 1.0, -0.5, -0.5)"><path d="M 0.0 0.0 L 1.0 0.0 L 1.0 1.0 L 0.0 1.0 L 0.0 0.0 Z" style="vector-effect: non-scaling-stroke;" /></g><g style="fill: #ffffff;stroke: black;stroke-width: 2.4000000000000004;" transform="matrix(0.016666666666666666, 0.0, 0.0, 0.016666666666666666, 0.0, 0.0)"><image transform="translate(-30.0, -30.0) scale(0.05, 0.05)" xlink:href="../robot.png" /></g></g></g></g></g></g></g><g transform="matrix(1.0, 0.0, 0.0, 1.0, 1.5, 0.0)"><g transform="matrix(1.0, -0.0, 0.0, 1.0, 0.0, 0.0)"><g /></g></g></g><g transform="matrix(1.0, 0.0, 0.0, 1.0, 2.0, 0.0)"><g><g><g><g><g><g><g style="fill: #ffffff;stroke: #cccccc;stroke-width: 2.4000000000000004;" transform="matrix(1.0, 0.0, 0.0, 1.0, -0.5, -0.5)"><path d="M 0.0 0.0 L 1.0 0.0 L 1.0 1.0 L 0.0 1.0 L 0.0 0.0 Z" style="vector-effect: non-scaling-stroke;" /></g><g style="fill: #ffffff;stroke: black;stroke-width: 2.4000000000000004;" transform="matrix(0.016666666666666666, 0.0, 0.0, 0.016666666666666666, 0.0, 0.0)"><image transform="translate(-30.0, -30.0) scale(0.05, 0.05)" xlink:href="../robot.png" /></g></g></g><g transform="matrix(1.0, 0.0, 0.0, 1.0, 0.0, 0.5)"><g transform="matrix(0.0, -1.0, 1.0, 0.0, 0.0, 0.0)"><g /></g></g></g><g transform="matrix(1.0, 0.0, 0.0, 1.0, 0.0, 1.0)"><g><g><g style="fill: #ffffff;stroke: #cccccc;stroke-width: 2.4000000000000004;" transform="matrix(1.0, 0.0, 0.0, 1.0, -0.5, -0.5)"><path d="M 0.0 0.0 L 1.0 0.0 L 1.0 1.0 L 0.0 1.0 L 0.0 0.0 Z" style="vector-effect: non-scaling-stroke;" /></g><g style="fill: #ffffff;stroke: black;stroke-width: 2.4000000000000004;" transform="matrix(0.016666666666666666, 0.0, 0.0, 0.016666666666666666, 0.0, 0.0)"><image transform="translate(-30.0, -30.0) scale(0.05, 0.05)" xlink:href="../robot.png" /></g></g></g></g></g><g transform="matrix(1.0, 0.0, 0.0, 1.0, 0.0, 1.5)"><g transform="matrix(0.0, -1.0, 1.0, 0.0, 0.0, 0.0)"><g /></g></g></g><g transform="matrix(1.0, 0.0, 0.0, 1.0, 0.0, 2.0)"><g><g><g style="fill: #ffffff;stroke: #cccccc;stroke-width: 2.4000000000000004;" transform="matrix(1.0, 0.0, 0.0, 1.0, -0.5, -0.5)"><path d="M 0.0 0.0 L 1.0 0.0 L 1.0 1.0 L 0.0 1.0 L 0.0 0.0 Z" style="vector-effect: non-scaling-stroke;" /></g><g style="fill: #ffffff;stroke: black;stroke-width: 2.4000000000000004;" transform="matrix(0.016666666666666666, 0.0, 0.0, 0.016666666666666666, 0.0, 0.0)"><image transform="translate(-30.0, -30.0) scale(0.05, 0.05)" xlink:href="../robot.png" /></g></g></g></g></g></g></g><g transform="matrix(1.0, 0.0, 0.0, 1.0, 2.5, 0.0)"><g transform="matrix(1.0, -0.0, 0.0, 1.0, 0.0, 0.0)"><g /></g></g></g><g transform="matrix(1.0, 0.0, 0.0, 1.0, 3.0, 0.0)"><g><g><g><g><g><g><g style="fill: #ffffff;stroke: #cccccc;stroke-width: 2.4000000000000004;" transform="matrix(1.0, 0.0, 0.0, 1.0, -0.5, -0.5)"><path d="M 0.0 0.0 L 1.0 0.0 L 1.0 1.0 L 0.0 1.0 L 0.0 0.0 Z" style="vector-effect: non-scaling-stroke;" /></g><g style="fill: #ffffff;stroke: black;stroke-width: 2.4000000000000004;" transform="matrix(0.016666666666666666, 0.0, 0.0, 0.016666666666666666, 0.0, 0.0)"><image transform="translate(-30.0, -30.0) scale(0.05, 0.05)" xlink:href="../robot.png" /></g></g></g><g transform="matrix(1.0, 0.0, 0.0, 1.0, 0.0, 0.5)"><g transform="matrix(0.0, -1.0, 1.0, 0.0, 0.0, 0.0)"><g /></g></g></g><g transform="matrix(1.0, 0.0, 0.0, 1.0, 0.0, 1.0)"><g><g><g style="fill: #ffffff;stroke: #cccccc;stroke-width: 2.4000000000000004;" transform="matrix(1.0, 0.0, 0.0, 1.0, -0.5, -0.5)"><path d="M 0.0 0.0 L 1.0 0.0 L 1.0 1.0 L 0.0 1.0 L 0.0 0.0 Z" style="vector-effect: non-scaling-stroke;" /></g><g style="fill: #ffffff;stroke: black;stroke-width: 2.4000000000000004;" transform="matrix(0.016666666666666666, 0.0, 0.0, 0.016666666666666666, 0.0, 0.0)"><image transform="translate(-30.0, -30.0) scale(0.05, 0.05)" xlink:href="../robot.png" /></g></g></g></g></g><g transform="matrix(1.0, 0.0, 0.0, 1.0, 0.0, 1.5)"><g transform="matrix(0.0, -1.0, 1.0, 0.0, 0.0, 0.0)"><g /></g></g></g><g transform="matrix(1.0, 0.0, 0.0, 1.0, 0.0, 2.0)"><g><g><g style="fill: #ffffff;stroke: #cccccc;stroke-width: 2.4000000000000004;" transform="matrix(1.0, 0.0, 0.0, 1.0, -0.5, -0.5)"><path d="M 0.0 0.0 L 1.0 0.0 L 1.0 1.0 L 0.0 1.0 L 0.0 0.0 Z" style="vector-effect: non-scaling-stroke;" /></g><g style="fill: #ffffff;stroke: black;stroke-width: 2.4000000000000004;" transform="matrix(0.016666666666666666, 0.0, 0.0, 0.016666666666666666, 0.0, 0.0)"><image transform="translate(-30.0, -30.0) scale(0.05, 0.05)" xlink:href="../robot.png" /></g></g></g></g></g></g></g></g><g /></g></g><g transform="matrix(1.0, 0.0, 0.0, 1.0, 0.0, 1.7)"><g transform="matrix(0.0, -1.0, 1.0, 0.0, 0.0, 0.0)"><g /></g></g></g><g transform="matrix(1.0, 0.0, 0.0, 1.0, 0.0, 3.4)"><g><g><g transform="matrix(1.0, 0.0, 0.0, 1.0, -1.5, -1.0)"><g><g><g><g><g><g><g><g><g><g><g><g><g style="fill: #ffffff;stroke: #cccccc;stroke-width: 2.4000000000000004;" transform="matrix(1.0, 0.0, 0.0, 1.0, -0.5, -0.5)"><path d="M 0.0 0.0 L 1.0 0.0 L 1.0 1.0 L 0.0 1.0 L 0.0 0.0 Z" style="vector-effect: non-scaling-stroke;" /></g><g style="fill: #ffffff;stroke: black;stroke-width: 2.4000000000000004;" transform="matrix(0.016666666666666666, 0.0, 0.0, 0.016666666666666666, 0.0, 0.0)"><image transform="translate(-30.0, -30.0) scale(0.05, 0.05)" xlink:href="../robot.png" /></g></g></g><g transform="matrix(1.0, 0.0, 0.0, 1.0, 0.0, 0.5)"><g transform="matrix(0.0, -1.0, 1.0, 0.0, 0.0, 0.0)"><g /></g></g></g><g transform="matrix(1.0, 0.0, 0.0, 1.0, 0.0, 1.0)"><g><g><g style="fill: #ffffff;stroke: #cccccc;stroke-width: 2.4000000000000004;" transform="matrix(1.0, 0.0, 0.0, 1.0, -0.5, -0.5)"><path d="M 0.0 0.0 L 1.0 0.0 L 1.0 1.0 L 0.0 1.0 L 0.0 0.0 Z" style="vector-effect: non-scaling-stroke;" /></g><g style="fill: #ffffff;stroke: black;stroke-width: 2.4000000000000004;" transform="matrix(0.016666666666666666, 0.0, 0.0, 0.016666666666666666, 0.0, 0.0)"><image transform="translate(-30.0, -30.0) scale(0.05, 0.05)" xlink:href="../robot.png" /></g></g></g></g></g><g transform="matrix(1.0, 0.0, 0.0, 1.0, 0.0, 1.5)"><g transform="matrix(0.0, -1.0, 1.0, 0.0, 0.0, 0.0)"><g /></g></g></g><g transform="matrix(1.0, 0.0, 0.0, 1.0, 0.0, 2.0)"><g><g><g style="fill: #ffffff;stroke: #cccccc;stroke-width: 2.4000000000000004;" transform="matrix(1.0, 0.0, 0.0, 1.0, -0.5, -0.5)"><path d="M 0.0 0.0 L 1.0 0.0 L 1.0 1.0 L 0.0 1.0 L 0.0 0.0 Z" style="vector-effect: non-scaling-stroke;" /></g><g style="fill: #ffffff;stroke: black;stroke-width: 2.4000000000000004;" transform="matrix(0.016666666666666666, 0.0, 0.0, 0.016666666666666666, 0.0, 0.0)"><image transform="translate(-30.0, -30.0) scale(0.05, 0.05)" xlink:href="../robot.png" /></g></g></g></g></g><g transform="matrix(1.0, 0.0, 0.0, 1.0, 0.5, 0.0)"><g transform="matrix(1.0, -0.0, 0.0, 1.0, 0.0, 0.0)"><g /></g></g></g><g transform="matrix(1.0, 0.0, 0.0, 1.0, 1.0, 0.0)"><g><g><g><g><g><g><g style="fill: #ffffff;stroke: #cccccc;stroke-width: 2.4000000000000004;" transform="matrix(1.0, 0.0, 0.0, 1.0, -0.5, -0.5)"><path d="M 0.0 0.0 L 1.0 0.0 L 1.0 1.0 L 0.0 1.0 L 0.0 0.0 Z" style="vector-effect: non-scaling-stroke;" /></g><g style="fill: #ffffff;stroke: black;stroke-width: 2.4000000000000004;" transform="matrix(0.016666666666666666, 0.0, 0.0, 0.016666666666666666, 0.0, 0.0)"><image transform="translate(-30.0, -30.0) scale(0.05, 0.05)" xlink:href="../robot.png" /></g></g></g><g transform="matrix(1.0, 0.0, 0.0, 1.0, 0.0, 0.5)"><g transform="matrix(0.0, -1.0, 1.0, 0.0, 0.0, 0.0)"><g /></g></g></g><g transform="matrix(1.0, 0.0, 0.0, 1.0, 0.0, 1.0)"><g><g><g style="fill: #ffffff;stroke: #cccccc;stroke-width: 2.4000000000000004;" transform="matrix(1.0, 0.0, 0.0, 1.0, -0.5, -0.5)"><path d="M 0.0 0.0 L 1.0 0.0 L 1.0 1.0 L 0.0 1.0 L 0.0 0.0 Z" style="vector-effect: non-scaling-stroke;" /></g><g style="fill: #ffffff;stroke: black;stroke-width: 2.4000000000000004;" transform="matrix(0.016666666666666666, 0.0, 0.0, 0.016666666666666666, 0.0, 0.0)"><image transform="translate(-30.0, -30.0) scale(0.05, 0.05)" xlink:href="../robot.png" /></g></g></g></g></g><g transform="matrix(1.0, 0.0, 0.0, 1.0, 0.0, 1.5)"><g transform="matrix(0.0, -1.0, 1.0, 0.0, 0.0, 0.0)"><g /></g></g></g><g transform="matrix(1.0, 0.0, 0.0, 1.0, 0.0, 2.0)"><g><g><g style="fill: #ffffff;stroke: #cccccc;stroke-width: 2.4000000000000004;" transform="matrix(1.0, 0.0, 0.0, 1.0, -0.5, -0.5)"><path d="M 0.0 0.0 L 1.0 0.0 L 1.0 1.0 L 0.0 1.0 L 0.0 0.0 Z" style="vector-effect: non-scaling-stroke;" /></g><g style="fill: #ffffff;stroke: black;stroke-width: 2.4000000000000004;" transform="matrix(0.016666666666666666, 0.0, 0.0, 0.016666666666666666, 0.0, 0.0)"><image transform="translate(-30.0, -30.0) scale(0.05, 0.05)" xlink:href="../robot.png" /></g></g></g></g></g></g></g><g transform="matrix(1.0, 0.0, 0.0, 1.0, 1.5, 0.0)"><g transform="matrix(1.0, -0.0, 0.0, 1.0, 0.0, 0.0)"><g /></g></g></g><g transform="matrix(1.0, 0.0, 0.0, 1.0, 2.0, 0.0)"><g><g><g><g><g><g><g style="fill: #ffffff;stroke: #cccccc;stroke-width: 2.4000000000000004;" transform="matrix(1.0, 0.0, 0.0, 1.0, -0.5, -0.5)"><path d="M 0.0 0.0 L 1.0 0.0 L 1.0 1.0 L 0.0 1.0 L 0.0 0.0 Z" style="vector-effect: non-scaling-stroke;" /></g><g style="fill: #ffffff;stroke: black;stroke-width: 2.4000000000000004;" transform="matrix(0.016666666666666666, 0.0, 0.0, 0.016666666666666666, 0.0, 0.0)"><image transform="translate(-30.0, -30.0) scale(0.05, 0.05)" xlink:href="../robot.png" /></g></g></g><g transform="matrix(1.0, 0.0, 0.0, 1.0, 0.0, 0.5)"><g transform="matrix(0.0, -1.0, 1.0, 0.0, 0.0, 0.0)"><g /></g></g></g><g transform="matrix(1.0, 0.0, 0.0, 1.0, 0.0, 1.0)"><g><g><g style="fill: #ffffff;stroke: #cccccc;stroke-width: 2.4000000000000004;" transform="matrix(1.0, 0.0, 0.0, 1.0, -0.5, -0.5)"><path d="M 0.0 0.0 L 1.0 0.0 L 1.0 1.0 L 0.0 1.0 L 0.0 0.0 Z" style="vector-effect: non-scaling-stroke;" /></g><g style="fill: #ffffff;stroke: black;stroke-width: 2.4000000000000004;" transform="matrix(0.016666666666666666, 0.0, 0.0, 0.016666666666666666, 0.0, 0.0)"><image transform="translate(-30.0, -30.0) scale(0.05, 0.05)" xlink:href="../robot.png" /></g></g></g></g></g><g transform="matrix(1.0, 0.0, 0.0, 1.0, 0.0, 1.5)"><g transform="matrix(0.0, -1.0, 1.0, 0.0, 0.0, 0.0)"><g /></g></g></g><g transform="matrix(1.0, 0.0, 0.0, 1.0, 0.0, 2.0)"><g><g><g style="fill: #ffffff;stroke: #cccccc;stroke-width: 2.4000000000000004;" transform="matrix(1.0, 0.0, 0.0, 1.0, -0.5, -0.5)"><path d="M 0.0 0.0 L 1.0 0.0 L 1.0 1.0 L 0.0 1.0 L 0.0 0.0 Z" style="vector-effect: non-scaling-stroke;" /></g><g style="fill: #ffffff;stroke: black;stroke-width: 2.4000000000000004;" transform="matrix(0.016666666666666666, 0.0, 0.0, 0.016666666666666666, 0.0, 0.0)"><image transform="translate(-30.0, -30.0) scale(0.05, 0.05)" xlink:href="../robot.png" /></g></g></g></g></g></g></g><g transform="matrix(1.0, 0.0, 0.0, 1.0, 2.5, 0.0)"><g transform="matrix(1.0, -0.0, 0.0, 1.0, 0.0, 0.0)"><g /></g></g></g><g transform="matrix(1.0, 0.0, 0.0, 1.0, 3.0, 0.0)"><g><g><g><g><g><g><g style="fill: #ffffff;stroke: #cccccc;stroke-width: 2.4000000000000004;" transform="matrix(1.0, 0.0, 0.0, 1.0, -0.5, -0.5)"><path d="M 0.0 0.0 L 1.0 0.0 L 1.0 1.0 L 0.0 1.0 L 0.0 0.0 Z" style="vector-effect: non-scaling-stroke;" /></g><g style="fill: #ffffff;stroke: black;stroke-width: 2.4000000000000004;" transform="matrix(0.016666666666666666, 0.0, 0.0, 0.016666666666666666, 0.0, 0.0)"><image transform="translate(-30.0, -30.0) scale(0.05, 0.05)" xlink:href="../robot.png" /></g></g></g><g transform="matrix(1.0, 0.0, 0.0, 1.0, 0.0, 0.5)"><g transform="matrix(0.0, -1.0, 1.0, 0.0, 0.0, 0.0)"><g /></g></g></g><g transform="matrix(1.0, 0.0, 0.0, 1.0, 0.0, 1.0)"><g><g><g style="fill: #ffffff;stroke: #cccccc;stroke-width: 2.4000000000000004;" transform="matrix(1.0, 0.0, 0.0, 1.0, -0.5, -0.5)"><path d="M 0.0 0.0 L 1.0 0.0 L 1.0 1.0 L 0.0 1.0 L 0.0 0.0 Z" style="vector-effect: non-scaling-stroke;" /></g><g style="fill: #ffffff;stroke: black;stroke-width: 2.4000000000000004;" transform="matrix(0.016666666666666666, 0.0, 0.0, 0.016666666666666666, 0.0, 0.0)"><image transform="translate(-30.0, -30.0) scale(0.05, 0.05)" xlink:href="../robot.png" /></g></g></g></g></g><g transform="matrix(1.0, 0.0, 0.0, 1.0, 0.0, 1.5)"><g transform="matrix(0.0, -1.0, 1.0, 0.0, 0.0, 0.0)"><g /></g></g></g><g transform="matrix(1.0, 0.0, 0.0, 1.0, 0.0, 2.0)"><g><g><g style="fill: #ffffff;stroke: #cccccc;stroke-width: 2.4000000000000004;" transform="matrix(1.0, 0.0, 0.0, 1.0, -0.5, -0.5)"><path d="M 0.0 0.0 L 1.0 0.0 L 1.0 1.0 L 0.0 1.0 L 0.0 0.0 Z" style="vector-effect: non-scaling-stroke;" /></g><g style="fill: #ffffff;stroke: black;stroke-width: 2.4000000000000004;" transform="matrix(0.016666666666666666, 0.0, 0.0, 0.016666666666666666, 0.0, 0.0)"><image transform="translate(-30.0, -30.0) scale(0.05, 0.05)" xlink:href="../robot.png" /></g></g></g></g></g></g></g></g><g /></g></g></g></g><g transform="matrix(1.0, 0.0, 0.0, 1.0, 0.0, 5.1)"><g transform="matrix(0.0, -1.0, 1.0, 0.0, 0.0, 0.0)"><g /></g></g></g><g transform="matrix(1.0, 0.0, 0.0, 1.0, 0.0, 6.8)"><g><g><g transform="matrix(1.0, 0.0, 0.0, 1.0, -1.5, -1.0)"><g><g><g><g><g><g><g><g><g><g><g><g><g style="fill: #ffffff;stroke: #cccccc;stroke-width: 2.4000000000000004;" transform="matrix(1.0, 0.0, 0.0, 1.0, -0.5, -0.5)"><path d="M 0.0 0.0 L 1.0 0.0 L 1.0 1.0 L 0.0 1.0 L 0.0 0.0 Z" style="vector-effect: non-scaling-stroke;" /></g><g style="fill: #ffffff;stroke: black;stroke-width: 2.4000000000000004;" transform="matrix(0.016666666666666666, 0.0, 0.0, 0.016666666666666666, 0.0, 0.0)"><image transform="translate(-30.0, -30.0) scale(0.05, 0.05)" xlink:href="../robot.png" /></g></g></g><g transform="matrix(1.0, 0.0, 0.0, 1.0, 0.0, 0.5)"><g transform="matrix(0.0, -1.0, 1.0, 0.0, 0.0, 0.0)"><g /></g></g></g><g transform="matrix(1.0, 0.0, 0.0, 1.0, 0.0, 1.0)"><g><g><g style="fill: #ffffff;stroke: #cccccc;stroke-width: 2.4000000000000004;" transform="matrix(1.0, 0.0, 0.0, 1.0, -0.5, -0.5)"><path d="M 0.0 0.0 L 1.0 0.0 L 1.0 1.0 L 0.0 1.0 L 0.0 0.0 Z" style="vector-effect: non-scaling-stroke;" /></g><g style="fill: #ffffff;stroke: black;stroke-width: 2.4000000000000004;" transform="matrix(0.016666666666666666, 0.0, 0.0, 0.016666666666666666, 0.0, 0.0)"><image transform="translate(-30.0, -30.0) scale(0.05, 0.05)" xlink:href="../robot.png" /></g></g></g></g></g><g transform="matrix(1.0, 0.0, 0.0, 1.0, 0.0, 1.5)"><g transform="matrix(0.0, -1.0, 1.0, 0.0, 0.0, 0.0)"><g /></g></g></g><g transform="matrix(1.0, 0.0, 0.0, 1.0, 0.0, 2.0)"><g><g><g style="fill: #ffffff;stroke: #cccccc;stroke-width: 2.4000000000000004;" transform="matrix(1.0, 0.0, 0.0, 1.0, -0.5, -0.5)"><path d="M 0.0 0.0 L 1.0 0.0 L 1.0 1.0 L 0.0 1.0 L 0.0 0.0 Z" style="vector-effect: non-scaling-stroke;" /></g><g style="fill: #ffffff;stroke: black;stroke-width: 2.4000000000000004;" transform="matrix(0.016666666666666666, 0.0, 0.0, 0.016666666666666666, 0.0, 0.0)"><image transform="translate(-30.0, -30.0) scale(0.05, 0.05)" xlink:href="../robot.png" /></g></g></g></g></g><g transform="matrix(1.0, 0.0, 0.0, 1.0, 0.5, 0.0)"><g transform="matrix(1.0, -0.0, 0.0, 1.0, 0.0, 0.0)"><g /></g></g></g><g transform="matrix(1.0, 0.0, 0.0, 1.0, 1.0, 0.0)"><g><g><g><g><g><g><g style="fill: #ffffff;stroke: #cccccc;stroke-width: 2.4000000000000004;" transform="matrix(1.0, 0.0, 0.0, 1.0, -0.5, -0.5)"><path d="M 0.0 0.0 L 1.0 0.0 L 1.0 1.0 L 0.0 1.0 L 0.0 0.0 Z" style="vector-effect: non-scaling-stroke;" /></g><g style="fill: #ffffff;stroke: black;stroke-width: 2.4000000000000004;" transform="matrix(0.016666666666666666, 0.0, 0.0, 0.016666666666666666, 0.0, 0.0)"><image transform="translate(-30.0, -30.0) scale(0.05, 0.05)" xlink:href="../robot.png" /></g></g></g><g transform="matrix(1.0, 0.0, 0.0, 1.0, 0.0, 0.5)"><g transform="matrix(0.0, -1.0, 1.0, 0.0, 0.0, 0.0)"><g /></g></g></g><g transform="matrix(1.0, 0.0, 0.0, 1.0, 0.0, 1.0)"><g><g><g style="fill: #ffffff;stroke: #cccccc;stroke-width: 2.4000000000000004;" transform="matrix(1.0, 0.0, 0.0, 1.0, -0.5, -0.5)"><path d="M 0.0 0.0 L 1.0 0.0 L 1.0 1.0 L 0.0 1.0 L 0.0 0.0 Z" style="vector-effect: non-scaling-stroke;" /></g><g style="fill: #ffffff;stroke: black;stroke-width: 2.4000000000000004;" transform="matrix(0.016666666666666666, 0.0, 0.0, 0.016666666666666666, 0.0, 0.0)"><image transform="translate(-30.0, -30.0) scale(0.05, 0.05)" xlink:href="../robot.png" /></g></g></g></g></g><g transform="matrix(1.0, 0.0, 0.0, 1.0, 0.0, 1.5)"><g transform="matrix(0.0, -1.0, 1.0, 0.0, 0.0, 0.0)"><g /></g></g></g><g transform="matrix(1.0, 0.0, 0.0, 1.0, 0.0, 2.0)"><g><g><g style="fill: #ffffff;stroke: #cccccc;stroke-width: 2.4000000000000004;" transform="matrix(1.0, 0.0, 0.0, 1.0, -0.5, -0.5)"><path d="M 0.0 0.0 L 1.0 0.0 L 1.0 1.0 L 0.0 1.0 L 0.0 0.0 Z" style="vector-effect: non-scaling-stroke;" /></g><g style="fill: #ffffff;stroke: black;stroke-width: 2.4000000000000004;" transform="matrix(0.016666666666666666, 0.0, 0.0, 0.016666666666666666, 0.0, 0.0)"><image transform="translate(-30.0, -30.0) scale(0.05, 0.05)" xlink:href="../robot.png" /></g></g></g></g></g></g></g><g transform="matrix(1.0, 0.0, 0.0, 1.0, 1.5, 0.0)"><g transform="matrix(1.0, -0.0, 0.0, 1.0, 0.0, 0.0)"><g /></g></g></g><g transform="matrix(1.0, 0.0, 0.0, 1.0, 2.0, 0.0)"><g><g><g><g><g><g><g style="fill: #ffffff;stroke: #cccccc;stroke-width: 2.4000000000000004;" transform="matrix(1.0, 0.0, 0.0, 1.0, -0.5, -0.5)"><path d="M 0.0 0.0 L 1.0 0.0 L 1.0 1.0 L 0.0 1.0 L 0.0 0.0 Z" style="vector-effect: non-scaling-stroke;" /></g><g style="fill: #ffffff;stroke: black;stroke-width: 2.4000000000000004;" transform="matrix(0.016666666666666666, 0.0, 0.0, 0.016666666666666666, 0.0, 0.0)"><image transform="translate(-30.0, -30.0) scale(0.05, 0.05)" xlink:href="../robot.png" /></g></g></g><g transform="matrix(1.0, 0.0, 0.0, 1.0, 0.0, 0.5)"><g transform="matrix(0.0, -1.0, 1.0, 0.0, 0.0, 0.0)"><g /></g></g></g><g transform="matrix(1.0, 0.0, 0.0, 1.0, 0.0, 1.0)"><g><g><g style="fill: #ffffff;stroke: #cccccc;stroke-width: 2.4000000000000004;" transform="matrix(1.0, 0.0, 0.0, 1.0, -0.5, -0.5)"><path d="M 0.0 0.0 L 1.0 0.0 L 1.0 1.0 L 0.0 1.0 L 0.0 0.0 Z" style="vector-effect: non-scaling-stroke;" /></g><g style="fill: #ffffff;stroke: black;stroke-width: 2.4000000000000004;" transform="matrix(0.016666666666666666, 0.0, 0.0, 0.016666666666666666, 0.0, 0.0)"><image transform="translate(-30.0, -30.0) scale(0.05, 0.05)" xlink:href="../robot.png" /></g></g></g></g></g><g transform="matrix(1.0, 0.0, 0.0, 1.0, 0.0, 1.5)"><g transform="matrix(0.0, -1.0, 1.0, 0.0, 0.0, 0.0)"><g /></g></g></g><g transform="matrix(1.0, 0.0, 0.0, 1.0, 0.0, 2.0)"><g><g><g style="fill: #ffffff;stroke: #cccccc;stroke-width: 2.4000000000000004;" transform="matrix(1.0, 0.0, 0.0, 1.0, -0.5, -0.5)"><path d="M 0.0 0.0 L 1.0 0.0 L 1.0 1.0 L 0.0 1.0 L 0.0 0.0 Z" style="vector-effect: non-scaling-stroke;" /></g><g style="fill: #ffffff;stroke: black;stroke-width: 2.4000000000000004;" transform="matrix(0.016666666666666666, 0.0, 0.0, 0.016666666666666666, 0.0, 0.0)"><image transform="translate(-30.0, -30.0) scale(0.05, 0.05)" xlink:href="../robot.png" /></g></g></g></g></g></g></g><g transform="matrix(1.0, 0.0, 0.0, 1.0, 2.5, 0.0)"><g transform="matrix(1.0, -0.0, 0.0, 1.0, 0.0, 0.0)"><g /></g></g></g><g transform="matrix(1.0, 0.0, 0.0, 1.0, 3.0, 0.0)"><g><g><g><g><g><g><g style="fill: #ffffff;stroke: #cccccc;stroke-width: 2.4000000000000004;" transform="matrix(1.0, 0.0, 0.0, 1.0, -0.5, -0.5)"><path d="M 0.0 0.0 L 1.0 0.0 L 1.0 1.0 L 0.0 1.0 L 0.0 0.0 Z" style="vector-effect: non-scaling-stroke;" /></g><g style="fill: #ffffff;stroke: black;stroke-width: 2.4000000000000004;" transform="matrix(0.016666666666666666, 0.0, 0.0, 0.016666666666666666, 0.0, 0.0)"><image transform="translate(-30.0, -30.0) scale(0.05, 0.05)" xlink:href="../robot.png" /></g></g></g><g transform="matrix(1.0, 0.0, 0.0, 1.0, 0.0, 0.5)"><g transform="matrix(0.0, -1.0, 1.0, 0.0, 0.0, 0.0)"><g /></g></g></g><g transform="matrix(1.0, 0.0, 0.0, 1.0, 0.0, 1.0)"><g><g><g style="fill: #ffffff;stroke: #cccccc;stroke-width: 2.4000000000000004;" transform="matrix(1.0, 0.0, 0.0, 1.0, -0.5, -0.5)"><path d="M 0.0 0.0 L 1.0 0.0 L 1.0 1.0 L 0.0 1.0 L 0.0 0.0 Z" style="vector-effect: non-scaling-stroke;" /></g><g style="fill: #ffffff;stroke: black;stroke-width: 2.4000000000000004;" transform="matrix(0.016666666666666666, 0.0, 0.0, 0.016666666666666666, 0.0, 0.0)"><image transform="translate(-30.0, -30.0) scale(0.05, 0.05)" xlink:href="../robot.png" /></g></g></g></g></g><g transform="matrix(1.0, 0.0, 0.0, 1.0, 0.0, 1.5)"><g transform="matrix(0.0, -1.0, 1.0, 0.0, 0.0, 0.0)"><g /></g></g></g><g transform="matrix(1.0, 0.0, 0.0, 1.0, 0.0, 2.0)"><g><g><g style="fill: #ffffff;stroke: #cccccc;stroke-width: 2.4000000000000004;" transform="matrix(1.0, 0.0, 0.0, 1.0, -0.5, -0.5)"><path d="M 0.0 0.0 L 1.0 0.0 L 1.0 1.0 L 0.0 1.0 L 0.0 0.0 Z" style="vector-effect: non-scaling-stroke;" /></g><g style="fill: #ffffff;stroke: black;stroke-width: 2.4000000000000004;" transform="matrix(0.016666666666666666, 0.0, 0.0, 0.016666666666666666, 0.0, 0.0)"><image transform="translate(-30.0, -30.0) scale(0.05, 0.05)" xlink:href="../robot.png" /></g></g></g></g></g></g></g></g><g /></g></g></g></g><g transform="matrix(1.0, 0.0, 0.0, 1.0, 2.2, 0.0)"><g transform="matrix(1.0, -0.0, 0.0, 1.0, 0.0, 0.0)"><g /></g></g></g><g transform="matrix(1.0, 0.0, 0.0, 1.0, 4.4, 0.0)"><g><g><g><g><g><g><g transform="matrix(1.0, 0.0, 0.0, 1.0, -1.5, -1.0)"><g><g><g><g><g><g><g><g><g><g><g><g><g style="fill: #ffffff;stroke: #cccccc;stroke-width: 2.4000000000000004;" transform="matrix(1.0, 0.0, 0.0, 1.0, -0.5, -0.5)"><path d="M 0.0 0.0 L 1.0 0.0 L 1.0 1.0 L 0.0 1.0 L 0.0 0.0 Z" style="vector-effect: non-scaling-stroke;" /></g><g style="fill: #ffffff;stroke: black;stroke-width: 2.4000000000000004;" transform="matrix(0.016666666666666666, 0.0, 0.0, 0.016666666666666666, 0.0, 0.0)"><image transform="translate(-30.0, -30.0) scale(0.05, 0.05)" xlink:href="../robot.png" /></g></g></g><g transform="matrix(1.0, 0.0, 0.0, 1.0, 0.0, 0.5)"><g transform="matrix(0.0, -1.0, 1.0, 0.0, 0.0, 0.0)"><g /></g></g></g><g transform="matrix(1.0, 0.0, 0.0, 1.0, 0.0, 1.0)"><g><g><g style="fill: #ffffff;stroke: #cccccc;stroke-width: 2.4000000000000004;" transform="matrix(1.0, 0.0, 0.0, 1.0, -0.5, -0.5)"><path d="M 0.0 0.0 L 1.0 0.0 L 1.0 1.0 L 0.0 1.0 L 0.0 0.0 Z" style="vector-effect: non-scaling-stroke;" /></g><g style="fill: #ffffff;stroke: black;stroke-width: 2.4000000000000004;" transform="matrix(0.016666666666666666, 0.0, 0.0, 0.016666666666666666, 0.0, 0.0)"><image transform="translate(-30.0, -30.0) scale(0.05, 0.05)" xlink:href="../robot.png" /></g></g></g></g></g><g transform="matrix(1.0, 0.0, 0.0, 1.0, 0.0, 1.5)"><g transform="matrix(0.0, -1.0, 1.0, 0.0, 0.0, 0.0)"><g /></g></g></g><g transform="matrix(1.0, 0.0, 0.0, 1.0, 0.0, 2.0)"><g><g><g style="fill: #ffffff;stroke: #cccccc;stroke-width: 2.4000000000000004;" transform="matrix(1.0, 0.0, 0.0, 1.0, -0.5, -0.5)"><path d="M 0.0 0.0 L 1.0 0.0 L 1.0 1.0 L 0.0 1.0 L 0.0 0.0 Z" style="vector-effect: non-scaling-stroke;" /></g><g style="fill: #ffffff;stroke: black;stroke-width: 2.4000000000000004;" transform="matrix(0.016666666666666666, 0.0, 0.0, 0.016666666666666666, 0.0, 0.0)"><image transform="translate(-30.0, -30.0) scale(0.05, 0.05)" xlink:href="../robot.png" /></g></g></g></g></g><g transform="matrix(1.0, 0.0, 0.0, 1.0, 0.5, 0.0)"><g transform="matrix(1.0, -0.0, 0.0, 1.0, 0.0, 0.0)"><g /></g></g></g><g transform="matrix(1.0, 0.0, 0.0, 1.0, 1.0, 0.0)"><g><g><g><g><g><g><g style="fill: #ffffff;stroke: #cccccc;stroke-width: 2.4000000000000004;" transform="matrix(1.0, 0.0, 0.0, 1.0, -0.5, -0.5)"><path d="M 0.0 0.0 L 1.0 0.0 L 1.0 1.0 L 0.0 1.0 L 0.0 0.0 Z" style="vector-effect: non-scaling-stroke;" /></g><g style="fill: #ffffff;stroke: black;stroke-width: 2.4000000000000004;" transform="matrix(0.016666666666666666, 0.0, 0.0, 0.016666666666666666, 0.0, 0.0)"><image transform="translate(-30.0, -30.0) scale(0.05, 0.05)" xlink:href="../robot.png" /></g></g></g><g transform="matrix(1.0, 0.0, 0.0, 1.0, 0.0, 0.5)"><g transform="matrix(0.0, -1.0, 1.0, 0.0, 0.0, 0.0)"><g /></g></g></g><g transform="matrix(1.0, 0.0, 0.0, 1.0, 0.0, 1.0)"><g><g><g style="fill: #ffffff;stroke: #cccccc;stroke-width: 2.4000000000000004;" transform="matrix(1.0, 0.0, 0.0, 1.0, -0.5, -0.5)"><path d="M 0.0 0.0 L 1.0 0.0 L 1.0 1.0 L 0.0 1.0 L 0.0 0.0 Z" style="vector-effect: non-scaling-stroke;" /></g><g style="fill: #ffffff;stroke: black;stroke-width: 2.4000000000000004;" transform="matrix(0.016666666666666666, 0.0, 0.0, 0.016666666666666666, 0.0, 0.0)"><image transform="translate(-30.0, -30.0) scale(0.05, 0.05)" xlink:href="../robot.png" /></g></g></g></g></g><g transform="matrix(1.0, 0.0, 0.0, 1.0, 0.0, 1.5)"><g transform="matrix(0.0, -1.0, 1.0, 0.0, 0.0, 0.0)"><g /></g></g></g><g transform="matrix(1.0, 0.0, 0.0, 1.0, 0.0, 2.0)"><g><g><g style="fill: #ffffff;stroke: #cccccc;stroke-width: 2.4000000000000004;" transform="matrix(1.0, 0.0, 0.0, 1.0, -0.5, -0.5)"><path d="M 0.0 0.0 L 1.0 0.0 L 1.0 1.0 L 0.0 1.0 L 0.0 0.0 Z" style="vector-effect: non-scaling-stroke;" /></g><g style="fill: #ffffff;stroke: black;stroke-width: 2.4000000000000004;" transform="matrix(0.016666666666666666, 0.0, 0.0, 0.016666666666666666, 0.0, 0.0)"><image transform="translate(-30.0, -30.0) scale(0.05, 0.05)" xlink:href="../robot.png" /></g></g></g></g></g></g></g><g transform="matrix(1.0, 0.0, 0.0, 1.0, 1.5, 0.0)"><g transform="matrix(1.0, -0.0, 0.0, 1.0, 0.0, 0.0)"><g /></g></g></g><g transform="matrix(1.0, 0.0, 0.0, 1.0, 2.0, 0.0)"><g><g><g><g><g><g><g style="fill: #ffffff;stroke: #cccccc;stroke-width: 2.4000000000000004;" transform="matrix(1.0, 0.0, 0.0, 1.0, -0.5, -0.5)"><path d="M 0.0 0.0 L 1.0 0.0 L 1.0 1.0 L 0.0 1.0 L 0.0 0.0 Z" style="vector-effect: non-scaling-stroke;" /></g><g style="fill: #ffffff;stroke: black;stroke-width: 2.4000000000000004;" transform="matrix(0.016666666666666666, 0.0, 0.0, 0.016666666666666666, 0.0, 0.0)"><image transform="translate(-30.0, -30.0) scale(0.05, 0.05)" xlink:href="../robot.png" /></g></g></g><g transform="matrix(1.0, 0.0, 0.0, 1.0, 0.0, 0.5)"><g transform="matrix(0.0, -1.0, 1.0, 0.0, 0.0, 0.0)"><g /></g></g></g><g transform="matrix(1.0, 0.0, 0.0, 1.0, 0.0, 1.0)"><g><g><g style="fill: #ffffff;stroke: #cccccc;stroke-width: 2.4000000000000004;" transform="matrix(1.0, 0.0, 0.0, 1.0, -0.5, -0.5)"><path d="M 0.0 0.0 L 1.0 0.0 L 1.0 1.0 L 0.0 1.0 L 0.0 0.0 Z" style="vector-effect: non-scaling-stroke;" /></g><g style="fill: #ffffff;stroke: black;stroke-width: 2.4000000000000004;" transform="matrix(0.016666666666666666, 0.0, 0.0, 0.016666666666666666, 0.0, 0.0)"><image transform="translate(-30.0, -30.0) scale(0.05, 0.05)" xlink:href="../robot.png" /></g></g></g></g></g><g transform="matrix(1.0, 0.0, 0.0, 1.0, 0.0, 1.5)"><g transform="matrix(0.0, -1.0, 1.0, 0.0, 0.0, 0.0)"><g /></g></g></g><g transform="matrix(1.0, 0.0, 0.0, 1.0, 0.0, 2.0)"><g><g><g style="fill: #ffffff;stroke: #cccccc;stroke-width: 2.4000000000000004;" transform="matrix(1.0, 0.0, 0.0, 1.0, -0.5, -0.5)"><path d="M 0.0 0.0 L 1.0 0.0 L 1.0 1.0 L 0.0 1.0 L 0.0 0.0 Z" style="vector-effect: non-scaling-stroke;" /></g><g style="fill: #ffffff;stroke: black;stroke-width: 2.4000000000000004;" transform="matrix(0.016666666666666666, 0.0, 0.0, 0.016666666666666666, 0.0, 0.0)"><image transform="translate(-30.0, -30.0) scale(0.05, 0.05)" xlink:href="../robot.png" /></g></g></g></g></g></g></g><g transform="matrix(1.0, 0.0, 0.0, 1.0, 2.5, 0.0)"><g transform="matrix(1.0, -0.0, 0.0, 1.0, 0.0, 0.0)"><g /></g></g></g><g transform="matrix(1.0, 0.0, 0.0, 1.0, 3.0, 0.0)"><g><g><g><g><g><g><g style="fill: #ffffff;stroke: #cccccc;stroke-width: 2.4000000000000004;" transform="matrix(1.0, 0.0, 0.0, 1.0, -0.5, -0.5)"><path d="M 0.0 0.0 L 1.0 0.0 L 1.0 1.0 L 0.0 1.0 L 0.0 0.0 Z" style="vector-effect: non-scaling-stroke;" /></g><g style="fill: #ffffff;stroke: black;stroke-width: 2.4000000000000004;" transform="matrix(0.016666666666666666, 0.0, 0.0, 0.016666666666666666, 0.0, 0.0)"><image transform="translate(-30.0, -30.0) scale(0.05, 0.05)" xlink:href="../robot.png" /></g></g></g><g transform="matrix(1.0, 0.0, 0.0, 1.0, 0.0, 0.5)"><g transform="matrix(0.0, -1.0, 1.0, 0.0, 0.0, 0.0)"><g /></g></g></g><g transform="matrix(1.0, 0.0, 0.0, 1.0, 0.0, 1.0)"><g><g><g style="fill: #ffffff;stroke: #cccccc;stroke-width: 2.4000000000000004;" transform="matrix(1.0, 0.0, 0.0, 1.0, -0.5, -0.5)"><path d="M 0.0 0.0 L 1.0 0.0 L 1.0 1.0 L 0.0 1.0 L 0.0 0.0 Z" style="vector-effect: non-scaling-stroke;" /></g><g style="fill: #ffffff;stroke: black;stroke-width: 2.4000000000000004;" transform="matrix(0.016666666666666666, 0.0, 0.0, 0.016666666666666666, 0.0, 0.0)"><image transform="translate(-30.0, -30.0) scale(0.05, 0.05)" xlink:href="../robot.png" /></g></g></g></g></g><g transform="matrix(1.0, 0.0, 0.0, 1.0, 0.0, 1.5)"><g transform="matrix(0.0, -1.0, 1.0, 0.0, 0.0, 0.0)"><g /></g></g></g><g transform="matrix(1.0, 0.0, 0.0, 1.0, 0.0, 2.0)"><g><g><g style="fill: #ffffff;stroke: #cccccc;stroke-width: 2.4000000000000004;" transform="matrix(1.0, 0.0, 0.0, 1.0, -0.5, -0.5)"><path d="M 0.0 0.0 L 1.0 0.0 L 1.0 1.0 L 0.0 1.0 L 0.0 0.0 Z" style="vector-effect: non-scaling-stroke;" /></g><g style="fill: #ffffff;stroke: black;stroke-width: 2.4000000000000004;" transform="matrix(0.016666666666666666, 0.0, 0.0, 0.016666666666666666, 0.0, 0.0)"><image transform="translate(-30.0, -30.0) scale(0.05, 0.05)" xlink:href="../robot.png" /></g></g></g></g></g></g></g></g><g /></g></g><g transform="matrix(1.0, 0.0, 0.0, 1.0, 0.0, 1.7)"><g transform="matrix(0.0, -1.0, 1.0, 0.0, 0.0, 0.0)"><g /></g></g></g><g transform="matrix(1.0, 0.0, 0.0, 1.0, 0.0, 3.4)"><g><g><g transform="matrix(1.0, 0.0, 0.0, 1.0, -1.5, -1.0)"><g><g><g><g><g><g><g><g><g><g><g><g><g style="fill: #ffffff;stroke: #cccccc;stroke-width: 2.4000000000000004;" transform="matrix(1.0, 0.0, 0.0, 1.0, -0.5, -0.5)"><path d="M 0.0 0.0 L 1.0 0.0 L 1.0 1.0 L 0.0 1.0 L 0.0 0.0 Z" style="vector-effect: non-scaling-stroke;" /></g><g style="fill: #ffffff;stroke: black;stroke-width: 2.4000000000000004;" transform="matrix(0.016666666666666666, 0.0, 0.0, 0.016666666666666666, 0.0, 0.0)"><image transform="translate(-30.0, -30.0) scale(0.05, 0.05)" xlink:href="../robot.png" /></g></g></g><g transform="matrix(1.0, 0.0, 0.0, 1.0, 0.0, 0.5)"><g transform="matrix(0.0, -1.0, 1.0, 0.0, 0.0, 0.0)"><g /></g></g></g><g transform="matrix(1.0, 0.0, 0.0, 1.0, 0.0, 1.0)"><g><g><g style="fill: #ffffff;stroke: #cccccc;stroke-width: 2.4000000000000004;" transform="matrix(1.0, 0.0, 0.0, 1.0, -0.5, -0.5)"><path d="M 0.0 0.0 L 1.0 0.0 L 1.0 1.0 L 0.0 1.0 L 0.0 0.0 Z" style="vector-effect: non-scaling-stroke;" /></g><g style="fill: #ffffff;stroke: black;stroke-width: 2.4000000000000004;" transform="matrix(0.016666666666666666, 0.0, 0.0, 0.016666666666666666, 0.0, 0.0)"><image transform="translate(-30.0, -30.0) scale(0.05, 0.05)" xlink:href="../robot.png" /></g></g></g></g></g><g transform="matrix(1.0, 0.0, 0.0, 1.0, 0.0, 1.5)"><g transform="matrix(0.0, -1.0, 1.0, 0.0, 0.0, 0.0)"><g /></g></g></g><g transform="matrix(1.0, 0.0, 0.0, 1.0, 0.0, 2.0)"><g><g><g style="fill: #ffffff;stroke: #cccccc;stroke-width: 2.4000000000000004;" transform="matrix(1.0, 0.0, 0.0, 1.0, -0.5, -0.5)"><path d="M 0.0 0.0 L 1.0 0.0 L 1.0 1.0 L 0.0 1.0 L 0.0 0.0 Z" style="vector-effect: non-scaling-stroke;" /></g><g style="fill: #ffffff;stroke: black;stroke-width: 2.4000000000000004;" transform="matrix(0.016666666666666666, 0.0, 0.0, 0.016666666666666666, 0.0, 0.0)"><image transform="translate(-30.0, -30.0) scale(0.05, 0.05)" xlink:href="../robot.png" /></g></g></g></g></g><g transform="matrix(1.0, 0.0, 0.0, 1.0, 0.5, 0.0)"><g transform="matrix(1.0, -0.0, 0.0, 1.0, 0.0, 0.0)"><g /></g></g></g><g transform="matrix(1.0, 0.0, 0.0, 1.0, 1.0, 0.0)"><g><g><g><g><g><g><g style="fill: #ffffff;stroke: #cccccc;stroke-width: 2.4000000000000004;" transform="matrix(1.0, 0.0, 0.0, 1.0, -0.5, -0.5)"><path d="M 0.0 0.0 L 1.0 0.0 L 1.0 1.0 L 0.0 1.0 L 0.0 0.0 Z" style="vector-effect: non-scaling-stroke;" /></g><g style="fill: #ffffff;stroke: black;stroke-width: 2.4000000000000004;" transform="matrix(0.016666666666666666, 0.0, 0.0, 0.016666666666666666, 0.0, 0.0)"><image transform="translate(-30.0, -30.0) scale(0.05, 0.05)" xlink:href="../robot.png" /></g></g></g><g transform="matrix(1.0, 0.0, 0.0, 1.0, 0.0, 0.5)"><g transform="matrix(0.0, -1.0, 1.0, 0.0, 0.0, 0.0)"><g /></g></g></g><g transform="matrix(1.0, 0.0, 0.0, 1.0, 0.0, 1.0)"><g><g><g style="fill: #ffffff;stroke: #cccccc;stroke-width: 2.4000000000000004;" transform="matrix(1.0, 0.0, 0.0, 1.0, -0.5, -0.5)"><path d="M 0.0 0.0 L 1.0 0.0 L 1.0 1.0 L 0.0 1.0 L 0.0 0.0 Z" style="vector-effect: non-scaling-stroke;" /></g><g style="fill: #ffffff;stroke: black;stroke-width: 2.4000000000000004;" transform="matrix(0.016666666666666666, 0.0, 0.0, 0.016666666666666666, 0.0, 0.0)"><image transform="translate(-30.0, -30.0) scale(0.05, 0.05)" xlink:href="../robot.png" /></g></g></g></g></g><g transform="matrix(1.0, 0.0, 0.0, 1.0, 0.0, 1.5)"><g transform="matrix(0.0, -1.0, 1.0, 0.0, 0.0, 0.0)"><g /></g></g></g><g transform="matrix(1.0, 0.0, 0.0, 1.0, 0.0, 2.0)"><g><g><g style="fill: #ffffff;stroke: #cccccc;stroke-width: 2.4000000000000004;" transform="matrix(1.0, 0.0, 0.0, 1.0, -0.5, -0.5)"><path d="M 0.0 0.0 L 1.0 0.0 L 1.0 1.0 L 0.0 1.0 L 0.0 0.0 Z" style="vector-effect: non-scaling-stroke;" /></g><g style="fill: #ffffff;stroke: black;stroke-width: 2.4000000000000004;" transform="matrix(0.016666666666666666, 0.0, 0.0, 0.016666666666666666, 0.0, 0.0)"><image transform="translate(-30.0, -30.0) scale(0.05, 0.05)" xlink:href="../robot.png" /></g></g></g></g></g></g></g><g transform="matrix(1.0, 0.0, 0.0, 1.0, 1.5, 0.0)"><g transform="matrix(1.0, -0.0, 0.0, 1.0, 0.0, 0.0)"><g /></g></g></g><g transform="matrix(1.0, 0.0, 0.0, 1.0, 2.0, 0.0)"><g><g><g><g><g><g><g style="fill: #ffffff;stroke: #cccccc;stroke-width: 2.4000000000000004;" transform="matrix(1.0, 0.0, 0.0, 1.0, -0.5, -0.5)"><path d="M 0.0 0.0 L 1.0 0.0 L 1.0 1.0 L 0.0 1.0 L 0.0 0.0 Z" style="vector-effect: non-scaling-stroke;" /></g><g style="fill: #ffffff;stroke: black;stroke-width: 2.4000000000000004;" transform="matrix(0.016666666666666666, 0.0, 0.0, 0.016666666666666666, 0.0, 0.0)"><image transform="translate(-30.0, -30.0) scale(0.05, 0.05)" xlink:href="../robot.png" /></g></g></g><g transform="matrix(1.0, 0.0, 0.0, 1.0, 0.0, 0.5)"><g transform="matrix(0.0, -1.0, 1.0, 0.0, 0.0, 0.0)"><g /></g></g></g><g transform="matrix(1.0, 0.0, 0.0, 1.0, 0.0, 1.0)"><g><g><g style="fill: #ffffff;stroke: #cccccc;stroke-width: 2.4000000000000004;" transform="matrix(1.0, 0.0, 0.0, 1.0, -0.5, -0.5)"><path d="M 0.0 0.0 L 1.0 0.0 L 1.0 1.0 L 0.0 1.0 L 0.0 0.0 Z" style="vector-effect: non-scaling-stroke;" /></g><g style="fill: #ffffff;stroke: black;stroke-width: 2.4000000000000004;" transform="matrix(0.016666666666666666, 0.0, 0.0, 0.016666666666666666, 0.0, 0.0)"><image transform="translate(-30.0, -30.0) scale(0.05, 0.05)" xlink:href="../robot.png" /></g></g></g></g></g><g transform="matrix(1.0, 0.0, 0.0, 1.0, 0.0, 1.5)"><g transform="matrix(0.0, -1.0, 1.0, 0.0, 0.0, 0.0)"><g /></g></g></g><g transform="matrix(1.0, 0.0, 0.0, 1.0, 0.0, 2.0)"><g><g><g style="fill: #ffffff;stroke: #cccccc;stroke-width: 2.4000000000000004;" transform="matrix(1.0, 0.0, 0.0, 1.0, -0.5, -0.5)"><path d="M 0.0 0.0 L 1.0 0.0 L 1.0 1.0 L 0.0 1.0 L 0.0 0.0 Z" style="vector-effect: non-scaling-stroke;" /></g><g style="fill: #ffffff;stroke: black;stroke-width: 2.4000000000000004;" transform="matrix(0.016666666666666666, 0.0, 0.0, 0.016666666666666666, 0.0, 0.0)"><image transform="translate(-30.0, -30.0) scale(0.05, 0.05)" xlink:href="../robot.png" /></g></g></g></g></g></g></g><g transform="matrix(1.0, 0.0, 0.0, 1.0, 2.5, 0.0)"><g transform="matrix(1.0, -0.0, 0.0, 1.0, 0.0, 0.0)"><g /></g></g></g><g transform="matrix(1.0, 0.0, 0.0, 1.0, 3.0, 0.0)"><g><g><g><g><g><g><g style="fill: #ffffff;stroke: #cccccc;stroke-width: 2.4000000000000004;" transform="matrix(1.0, 0.0, 0.0, 1.0, -0.5, -0.5)"><path d="M 0.0 0.0 L 1.0 0.0 L 1.0 1.0 L 0.0 1.0 L 0.0 0.0 Z" style="vector-effect: non-scaling-stroke;" /></g><g style="fill: #ffffff;stroke: black;stroke-width: 2.4000000000000004;" transform="matrix(0.016666666666666666, 0.0, 0.0, 0.016666666666666666, 0.0, 0.0)"><image transform="translate(-30.0, -30.0) scale(0.05, 0.05)" xlink:href="../robot.png" /></g></g></g><g transform="matrix(1.0, 0.0, 0.0, 1.0, 0.0, 0.5)"><g transform="matrix(0.0, -1.0, 1.0, 0.0, 0.0, 0.0)"><g /></g></g></g><g transform="matrix(1.0, 0.0, 0.0, 1.0, 0.0, 1.0)"><g><g><g style="fill: #ffffff;stroke: #cccccc;stroke-width: 2.4000000000000004;" transform="matrix(1.0, 0.0, 0.0, 1.0, -0.5, -0.5)"><path d="M 0.0 0.0 L 1.0 0.0 L 1.0 1.0 L 0.0 1.0 L 0.0 0.0 Z" style="vector-effect: non-scaling-stroke;" /></g><g style="fill: #ffffff;stroke: black;stroke-width: 2.4000000000000004;" transform="matrix(0.016666666666666666, 0.0, 0.0, 0.016666666666666666, 0.0, 0.0)"><image transform="translate(-30.0, -30.0) scale(0.05, 0.05)" xlink:href="../robot.png" /></g></g></g></g></g><g transform="matrix(1.0, 0.0, 0.0, 1.0, 0.0, 1.5)"><g transform="matrix(0.0, -1.0, 1.0, 0.0, 0.0, 0.0)"><g /></g></g></g><g transform="matrix(1.0, 0.0, 0.0, 1.0, 0.0, 2.0)"><g><g><g style="fill: #ffffff;stroke: #cccccc;stroke-width: 2.4000000000000004;" transform="matrix(1.0, 0.0, 0.0, 1.0, -0.5, -0.5)"><path d="M 0.0 0.0 L 1.0 0.0 L 1.0 1.0 L 0.0 1.0 L 0.0 0.0 Z" style="vector-effect: non-scaling-stroke;" /></g><g style="fill: #ffffff;stroke: black;stroke-width: 2.4000000000000004;" transform="matrix(0.016666666666666666, 0.0, 0.0, 0.016666666666666666, 0.0, 0.0)"><image transform="translate(-30.0, -30.0) scale(0.05, 0.05)" xlink:href="../robot.png" /></g></g></g></g></g></g></g></g><g /></g></g></g></g><g transform="matrix(1.0, 0.0, 0.0, 1.0, 0.0, 5.1)"><g transform="matrix(0.0, -1.0, 1.0, 0.0, 0.0, 0.0)"><g /></g></g></g><g transform="matrix(1.0, 0.0, 0.0, 1.0, 0.0, 6.8)"><g><g><g transform="matrix(1.0, 0.0, 0.0, 1.0, -1.5, -1.0)"><g><g><g><g><g><g><g><g><g><g><g><g><g style="fill: #ffffff;stroke: #cccccc;stroke-width: 2.4000000000000004;" transform="matrix(1.0, 0.0, 0.0, 1.0, -0.5, -0.5)"><path d="M 0.0 0.0 L 1.0 0.0 L 1.0 1.0 L 0.0 1.0 L 0.0 0.0 Z" style="vector-effect: non-scaling-stroke;" /></g><g style="fill: #ffffff;stroke: black;stroke-width: 2.4000000000000004;" transform="matrix(0.016666666666666666, 0.0, 0.0, 0.016666666666666666, 0.0, 0.0)"><image transform="translate(-30.0, -30.0) scale(0.05, 0.05)" xlink:href="../robot.png" /></g></g></g><g transform="matrix(1.0, 0.0, 0.0, 1.0, 0.0, 0.5)"><g transform="matrix(0.0, -1.0, 1.0, 0.0, 0.0, 0.0)"><g /></g></g></g><g transform="matrix(1.0, 0.0, 0.0, 1.0, 0.0, 1.0)"><g><g><g style="fill: #ffffff;stroke: #cccccc;stroke-width: 2.4000000000000004;" transform="matrix(1.0, 0.0, 0.0, 1.0, -0.5, -0.5)"><path d="M 0.0 0.0 L 1.0 0.0 L 1.0 1.0 L 0.0 1.0 L 0.0 0.0 Z" style="vector-effect: non-scaling-stroke;" /></g><g style="fill: #ffffff;stroke: black;stroke-width: 2.4000000000000004;" transform="matrix(0.016666666666666666, 0.0, 0.0, 0.016666666666666666, 0.0, 0.0)"><image transform="translate(-30.0, -30.0) scale(0.05, 0.05)" xlink:href="../robot.png" /></g></g></g></g></g><g transform="matrix(1.0, 0.0, 0.0, 1.0, 0.0, 1.5)"><g transform="matrix(0.0, -1.0, 1.0, 0.0, 0.0, 0.0)"><g /></g></g></g><g transform="matrix(1.0, 0.0, 0.0, 1.0, 0.0, 2.0)"><g><g><g style="fill: #ffffff;stroke: #cccccc;stroke-width: 2.4000000000000004;" transform="matrix(1.0, 0.0, 0.0, 1.0, -0.5, -0.5)"><path d="M 0.0 0.0 L 1.0 0.0 L 1.0 1.0 L 0.0 1.0 L 0.0 0.0 Z" style="vector-effect: non-scaling-stroke;" /></g><g style="fill: #ffffff;stroke: black;stroke-width: 2.4000000000000004;" transform="matrix(0.016666666666666666, 0.0, 0.0, 0.016666666666666666, 0.0, 0.0)"><image transform="translate(-30.0, -30.0) scale(0.05, 0.05)" xlink:href="../robot.png" /></g></g></g></g></g><g transform="matrix(1.0, 0.0, 0.0, 1.0, 0.5, 0.0)"><g transform="matrix(1.0, -0.0, 0.0, 1.0, 0.0, 0.0)"><g /></g></g></g><g transform="matrix(1.0, 0.0, 0.0, 1.0, 1.0, 0.0)"><g><g><g><g><g><g><g style="fill: #ffffff;stroke: #cccccc;stroke-width: 2.4000000000000004;" transform="matrix(1.0, 0.0, 0.0, 1.0, -0.5, -0.5)"><path d="M 0.0 0.0 L 1.0 0.0 L 1.0 1.0 L 0.0 1.0 L 0.0 0.0 Z" style="vector-effect: non-scaling-stroke;" /></g><g style="fill: #ffffff;stroke: black;stroke-width: 2.4000000000000004;" transform="matrix(0.016666666666666666, 0.0, 0.0, 0.016666666666666666, 0.0, 0.0)"><image transform="translate(-30.0, -30.0) scale(0.05, 0.05)" xlink:href="../robot.png" /></g></g></g><g transform="matrix(1.0, 0.0, 0.0, 1.0, 0.0, 0.5)"><g transform="matrix(0.0, -1.0, 1.0, 0.0, 0.0, 0.0)"><g /></g></g></g><g transform="matrix(1.0, 0.0, 0.0, 1.0, 0.0, 1.0)"><g><g><g style="fill: #ffffff;stroke: #cccccc;stroke-width: 2.4000000000000004;" transform="matrix(1.0, 0.0, 0.0, 1.0, -0.5, -0.5)"><path d="M 0.0 0.0 L 1.0 0.0 L 1.0 1.0 L 0.0 1.0 L 0.0 0.0 Z" style="vector-effect: non-scaling-stroke;" /></g><g style="fill: #ffffff;stroke: black;stroke-width: 2.4000000000000004;" transform="matrix(0.016666666666666666, 0.0, 0.0, 0.016666666666666666, 0.0, 0.0)"><image transform="translate(-30.0, -30.0) scale(0.05, 0.05)" xlink:href="../robot.png" /></g></g></g></g></g><g transform="matrix(1.0, 0.0, 0.0, 1.0, 0.0, 1.5)"><g transform="matrix(0.0, -1.0, 1.0, 0.0, 0.0, 0.0)"><g /></g></g></g><g transform="matrix(1.0, 0.0, 0.0, 1.0, 0.0, 2.0)"><g><g><g style="fill: #ffffff;stroke: #cccccc;stroke-width: 2.4000000000000004;" transform="matrix(1.0, 0.0, 0.0, 1.0, -0.5, -0.5)"><path d="M 0.0 0.0 L 1.0 0.0 L 1.0 1.0 L 0.0 1.0 L 0.0 0.0 Z" style="vector-effect: non-scaling-stroke;" /></g><g style="fill: #ffffff;stroke: black;stroke-width: 2.4000000000000004;" transform="matrix(0.016666666666666666, 0.0, 0.0, 0.016666666666666666, 0.0, 0.0)"><image transform="translate(-30.0, -30.0) scale(0.05, 0.05)" xlink:href="../robot.png" /></g></g></g></g></g></g></g><g transform="matrix(1.0, 0.0, 0.0, 1.0, 1.5, 0.0)"><g transform="matrix(1.0, -0.0, 0.0, 1.0, 0.0, 0.0)"><g /></g></g></g><g transform="matrix(1.0, 0.0, 0.0, 1.0, 2.0, 0.0)"><g><g><g><g><g><g><g style="fill: #ffffff;stroke: #cccccc;stroke-width: 2.4000000000000004;" transform="matrix(1.0, 0.0, 0.0, 1.0, -0.5, -0.5)"><path d="M 0.0 0.0 L 1.0 0.0 L 1.0 1.0 L 0.0 1.0 L 0.0 0.0 Z" style="vector-effect: non-scaling-stroke;" /></g><g style="fill: #ffffff;stroke: black;stroke-width: 2.4000000000000004;" transform="matrix(0.016666666666666666, 0.0, 0.0, 0.016666666666666666, 0.0, 0.0)"><image transform="translate(-30.0, -30.0) scale(0.05, 0.05)" xlink:href="../robot.png" /></g></g></g><g transform="matrix(1.0, 0.0, 0.0, 1.0, 0.0, 0.5)"><g transform="matrix(0.0, -1.0, 1.0, 0.0, 0.0, 0.0)"><g /></g></g></g><g transform="matrix(1.0, 0.0, 0.0, 1.0, 0.0, 1.0)"><g><g><g style="fill: #ffffff;stroke: #cccccc;stroke-width: 2.4000000000000004;" transform="matrix(1.0, 0.0, 0.0, 1.0, -0.5, -0.5)"><path d="M 0.0 0.0 L 1.0 0.0 L 1.0 1.0 L 0.0 1.0 L 0.0 0.0 Z" style="vector-effect: non-scaling-stroke;" /></g><g style="fill: #ffffff;stroke: black;stroke-width: 2.4000000000000004;" transform="matrix(0.016666666666666666, 0.0, 0.0, 0.016666666666666666, 0.0, 0.0)"><image transform="translate(-30.0, -30.0) scale(0.05, 0.05)" xlink:href="../robot.png" /></g></g></g></g></g><g transform="matrix(1.0, 0.0, 0.0, 1.0, 0.0, 1.5)"><g transform="matrix(0.0, -1.0, 1.0, 0.0, 0.0, 0.0)"><g /></g></g></g><g transform="matrix(1.0, 0.0, 0.0, 1.0, 0.0, 2.0)"><g><g><g style="fill: #ffffff;stroke: #cccccc;stroke-width: 2.4000000000000004;" transform="matrix(1.0, 0.0, 0.0, 1.0, -0.5, -0.5)"><path d="M 0.0 0.0 L 1.0 0.0 L 1.0 1.0 L 0.0 1.0 L 0.0 0.0 Z" style="vector-effect: non-scaling-stroke;" /></g><g style="fill: #ffffff;stroke: black;stroke-width: 2.4000000000000004;" transform="matrix(0.016666666666666666, 0.0, 0.0, 0.016666666666666666, 0.0, 0.0)"><image transform="translate(-30.0, -30.0) scale(0.05, 0.05)" xlink:href="../robot.png" /></g></g></g></g></g></g></g><g transform="matrix(1.0, 0.0, 0.0, 1.0, 2.5, 0.0)"><g transform="matrix(1.0, -0.0, 0.0, 1.0, 0.0, 0.0)"><g /></g></g></g><g transform="matrix(1.0, 0.0, 0.0, 1.0, 3.0, 0.0)"><g><g><g><g><g><g><g style="fill: #ffffff;stroke: #cccccc;stroke-width: 2.4000000000000004;" transform="matrix(1.0, 0.0, 0.0, 1.0, -0.5, -0.5)"><path d="M 0.0 0.0 L 1.0 0.0 L 1.0 1.0 L 0.0 1.0 L 0.0 0.0 Z" style="vector-effect: non-scaling-stroke;" /></g><g style="fill: #ffffff;stroke: black;stroke-width: 2.4000000000000004;" transform="matrix(0.016666666666666666, 0.0, 0.0, 0.016666666666666666, 0.0, 0.0)"><image transform="translate(-30.0, -30.0) scale(0.05, 0.05)" xlink:href="../robot.png" /></g></g></g><g transform="matrix(1.0, 0.0, 0.0, 1.0, 0.0, 0.5)"><g transform="matrix(0.0, -1.0, 1.0, 0.0, 0.0, 0.0)"><g /></g></g></g><g transform="matrix(1.0, 0.0, 0.0, 1.0, 0.0, 1.0)"><g><g><g style="fill: #ffffff;stroke: #cccccc;stroke-width: 2.4000000000000004;" transform="matrix(1.0, 0.0, 0.0, 1.0, -0.5, -0.5)"><path d="M 0.0 0.0 L 1.0 0.0 L 1.0 1.0 L 0.0 1.0 L 0.0 0.0 Z" style="vector-effect: non-scaling-stroke;" /></g><g style="fill: #ffffff;stroke: black;stroke-width: 2.4000000000000004;" transform="matrix(0.016666666666666666, 0.0, 0.0, 0.016666666666666666, 0.0, 0.0)"><image transform="translate(-30.0, -30.0) scale(0.05, 0.05)" xlink:href="../robot.png" /></g></g></g></g></g><g transform="matrix(1.0, 0.0, 0.0, 1.0, 0.0, 1.5)"><g transform="matrix(0.0, -1.0, 1.0, 0.0, 0.0, 0.0)"><g /></g></g></g><g transform="matrix(1.0, 0.0, 0.0, 1.0, 0.0, 2.0)"><g><g><g style="fill: #ffffff;stroke: #cccccc;stroke-width: 2.4000000000000004;" transform="matrix(1.0, 0.0, 0.0, 1.0, -0.5, -0.5)"><path d="M 0.0 0.0 L 1.0 0.0 L 1.0 1.0 L 0.0 1.0 L 0.0 0.0 Z" style="vector-effect: non-scaling-stroke;" /></g><g style="fill: #ffffff;stroke: black;stroke-width: 2.4000000000000004;" transform="matrix(0.016666666666666666, 0.0, 0.0, 0.016666666666666666, 0.0, 0.0)"><image transform="translate(-30.0, -30.0) scale(0.05, 0.05)" xlink:href="../robot.png" /></g></g></g></g></g></g></g></g><g /></g></g></g></g></g></g><g transform="matrix(1.0, 0.0, 0.0, 1.0, 6.6000000000000005, 0.0)"><g transform="matrix(1.0, -0.0, 0.0, 1.0, 0.0, 0.0)"><g /></g></g></g><g transform="matrix(1.0, 0.0, 0.0, 1.0, 8.8, 0.0)"><g><g><g><g><g><g><g transform="matrix(1.0, 0.0, 0.0, 1.0, -1.5, -1.0)"><g><g><g><g><g><g><g><g><g><g><g><g><g style="fill: #ffffff;stroke: #cccccc;stroke-width: 2.4000000000000004;" transform="matrix(1.0, 0.0, 0.0, 1.0, -0.5, -0.5)"><path d="M 0.0 0.0 L 1.0 0.0 L 1.0 1.0 L 0.0 1.0 L 0.0 0.0 Z" style="vector-effect: non-scaling-stroke;" /></g><g style="fill: #ffffff;stroke: black;stroke-width: 2.4000000000000004;" transform="matrix(0.016666666666666666, 0.0, 0.0, 0.016666666666666666, 0.0, 0.0)"><image transform="translate(-30.0, -30.0) scale(0.05, 0.05)" xlink:href="../robot.png" /></g></g></g><g transform="matrix(1.0, 0.0, 0.0, 1.0, 0.0, 0.5)"><g transform="matrix(0.0, -1.0, 1.0, 0.0, 0.0, 0.0)"><g /></g></g></g><g transform="matrix(1.0, 0.0, 0.0, 1.0, 0.0, 1.0)"><g><g><g style="fill: #ffffff;stroke: #cccccc;stroke-width: 2.4000000000000004;" transform="matrix(1.0, 0.0, 0.0, 1.0, -0.5, -0.5)"><path d="M 0.0 0.0 L 1.0 0.0 L 1.0 1.0 L 0.0 1.0 L 0.0 0.0 Z" style="vector-effect: non-scaling-stroke;" /></g><g style="fill: #ffffff;stroke: black;stroke-width: 2.4000000000000004;" transform="matrix(0.016666666666666666, 0.0, 0.0, 0.016666666666666666, 0.0, 0.0)"><image transform="translate(-30.0, -30.0) scale(0.05, 0.05)" xlink:href="../robot.png" /></g></g></g></g></g><g transform="matrix(1.0, 0.0, 0.0, 1.0, 0.0, 1.5)"><g transform="matrix(0.0, -1.0, 1.0, 0.0, 0.0, 0.0)"><g /></g></g></g><g transform="matrix(1.0, 0.0, 0.0, 1.0, 0.0, 2.0)"><g><g><g style="fill: #ffffff;stroke: #cccccc;stroke-width: 2.4000000000000004;" transform="matrix(1.0, 0.0, 0.0, 1.0, -0.5, -0.5)"><path d="M 0.0 0.0 L 1.0 0.0 L 1.0 1.0 L 0.0 1.0 L 0.0 0.0 Z" style="vector-effect: non-scaling-stroke;" /></g><g style="fill: #ffffff;stroke: black;stroke-width: 2.4000000000000004;" transform="matrix(0.016666666666666666, 0.0, 0.0, 0.016666666666666666, 0.0, 0.0)"><image transform="translate(-30.0, -30.0) scale(0.05, 0.05)" xlink:href="../robot.png" /></g></g></g></g></g><g transform="matrix(1.0, 0.0, 0.0, 1.0, 0.5, 0.0)"><g transform="matrix(1.0, -0.0, 0.0, 1.0, 0.0, 0.0)"><g /></g></g></g><g transform="matrix(1.0, 0.0, 0.0, 1.0, 1.0, 0.0)"><g><g><g><g><g><g><g style="fill: #ffffff;stroke: #cccccc;stroke-width: 2.4000000000000004;" transform="matrix(1.0, 0.0, 0.0, 1.0, -0.5, -0.5)"><path d="M 0.0 0.0 L 1.0 0.0 L 1.0 1.0 L 0.0 1.0 L 0.0 0.0 Z" style="vector-effect: non-scaling-stroke;" /></g><g style="fill: #ffffff;stroke: black;stroke-width: 2.4000000000000004;" transform="matrix(0.016666666666666666, 0.0, 0.0, 0.016666666666666666, 0.0, 0.0)"><image transform="translate(-30.0, -30.0) scale(0.05, 0.05)" xlink:href="../robot.png" /></g></g></g><g transform="matrix(1.0, 0.0, 0.0, 1.0, 0.0, 0.5)"><g transform="matrix(0.0, -1.0, 1.0, 0.0, 0.0, 0.0)"><g /></g></g></g><g transform="matrix(1.0, 0.0, 0.0, 1.0, 0.0, 1.0)"><g><g><g style="fill: #ffffff;stroke: #cccccc;stroke-width: 2.4000000000000004;" transform="matrix(1.0, 0.0, 0.0, 1.0, -0.5, -0.5)"><path d="M 0.0 0.0 L 1.0 0.0 L 1.0 1.0 L 0.0 1.0 L 0.0 0.0 Z" style="vector-effect: non-scaling-stroke;" /></g><g style="fill: #ffffff;stroke: black;stroke-width: 2.4000000000000004;" transform="matrix(0.016666666666666666, 0.0, 0.0, 0.016666666666666666, 0.0, 0.0)"><image transform="translate(-30.0, -30.0) scale(0.05, 0.05)" xlink:href="../robot.png" /></g></g></g></g></g><g transform="matrix(1.0, 0.0, 0.0, 1.0, 0.0, 1.5)"><g transform="matrix(0.0, -1.0, 1.0, 0.0, 0.0, 0.0)"><g /></g></g></g><g transform="matrix(1.0, 0.0, 0.0, 1.0, 0.0, 2.0)"><g><g><g style="fill: #ffffff;stroke: #cccccc;stroke-width: 2.4000000000000004;" transform="matrix(1.0, 0.0, 0.0, 1.0, -0.5, -0.5)"><path d="M 0.0 0.0 L 1.0 0.0 L 1.0 1.0 L 0.0 1.0 L 0.0 0.0 Z" style="vector-effect: non-scaling-stroke;" /></g><g style="fill: #ffffff;stroke: black;stroke-width: 2.4000000000000004;" transform="matrix(0.016666666666666666, 0.0, 0.0, 0.016666666666666666, 0.0, 0.0)"><image transform="translate(-30.0, -30.0) scale(0.05, 0.05)" xlink:href="../robot.png" /></g></g></g></g></g></g></g><g transform="matrix(1.0, 0.0, 0.0, 1.0, 1.5, 0.0)"><g transform="matrix(1.0, -0.0, 0.0, 1.0, 0.0, 0.0)"><g /></g></g></g><g transform="matrix(1.0, 0.0, 0.0, 1.0, 2.0, 0.0)"><g><g><g><g><g><g><g style="fill: #ffffff;stroke: #cccccc;stroke-width: 2.4000000000000004;" transform="matrix(1.0, 0.0, 0.0, 1.0, -0.5, -0.5)"><path d="M 0.0 0.0 L 1.0 0.0 L 1.0 1.0 L 0.0 1.0 L 0.0 0.0 Z" style="vector-effect: non-scaling-stroke;" /></g><g style="fill: #ffffff;stroke: black;stroke-width: 2.4000000000000004;" transform="matrix(0.016666666666666666, 0.0, 0.0, 0.016666666666666666, 0.0, 0.0)"><image transform="translate(-30.0, -30.0) scale(0.05, 0.05)" xlink:href="../robot.png" /></g></g></g><g transform="matrix(1.0, 0.0, 0.0, 1.0, 0.0, 0.5)"><g transform="matrix(0.0, -1.0, 1.0, 0.0, 0.0, 0.0)"><g /></g></g></g><g transform="matrix(1.0, 0.0, 0.0, 1.0, 0.0, 1.0)"><g><g><g style="fill: #ffffff;stroke: #cccccc;stroke-width: 2.4000000000000004;" transform="matrix(1.0, 0.0, 0.0, 1.0, -0.5, -0.5)"><path d="M 0.0 0.0 L 1.0 0.0 L 1.0 1.0 L 0.0 1.0 L 0.0 0.0 Z" style="vector-effect: non-scaling-stroke;" /></g><g style="fill: #ffffff;stroke: black;stroke-width: 2.4000000000000004;" transform="matrix(0.016666666666666666, 0.0, 0.0, 0.016666666666666666, 0.0, 0.0)"><image transform="translate(-30.0, -30.0) scale(0.05, 0.05)" xlink:href="../robot.png" /></g></g></g></g></g><g transform="matrix(1.0, 0.0, 0.0, 1.0, 0.0, 1.5)"><g transform="matrix(0.0, -1.0, 1.0, 0.0, 0.0, 0.0)"><g /></g></g></g><g transform="matrix(1.0, 0.0, 0.0, 1.0, 0.0, 2.0)"><g><g><g style="fill: #ffffff;stroke: #cccccc;stroke-width: 2.4000000000000004;" transform="matrix(1.0, 0.0, 0.0, 1.0, -0.5, -0.5)"><path d="M 0.0 0.0 L 1.0 0.0 L 1.0 1.0 L 0.0 1.0 L 0.0 0.0 Z" style="vector-effect: non-scaling-stroke;" /></g><g style="fill: #ffffff;stroke: black;stroke-width: 2.4000000000000004;" transform="matrix(0.016666666666666666, 0.0, 0.0, 0.016666666666666666, 0.0, 0.0)"><image transform="translate(-30.0, -30.0) scale(0.05, 0.05)" xlink:href="../robot.png" /></g></g></g></g></g></g></g><g transform="matrix(1.0, 0.0, 0.0, 1.0, 2.5, 0.0)"><g transform="matrix(1.0, -0.0, 0.0, 1.0, 0.0, 0.0)"><g /></g></g></g><g transform="matrix(1.0, 0.0, 0.0, 1.0, 3.0, 0.0)"><g><g><g><g><g><g><g style="fill: #ffffff;stroke: #cccccc;stroke-width: 2.4000000000000004;" transform="matrix(1.0, 0.0, 0.0, 1.0, -0.5, -0.5)"><path d="M 0.0 0.0 L 1.0 0.0 L 1.0 1.0 L 0.0 1.0 L 0.0 0.0 Z" style="vector-effect: non-scaling-stroke;" /></g><g style="fill: #ffffff;stroke: black;stroke-width: 2.4000000000000004;" transform="matrix(0.016666666666666666, 0.0, 0.0, 0.016666666666666666, 0.0, 0.0)"><image transform="translate(-30.0, -30.0) scale(0.05, 0.05)" xlink:href="../robot.png" /></g></g></g><g transform="matrix(1.0, 0.0, 0.0, 1.0, 0.0, 0.5)"><g transform="matrix(0.0, -1.0, 1.0, 0.0, 0.0, 0.0)"><g /></g></g></g><g transform="matrix(1.0, 0.0, 0.0, 1.0, 0.0, 1.0)"><g><g><g style="fill: #ffffff;stroke: #cccccc;stroke-width: 2.4000000000000004;" transform="matrix(1.0, 0.0, 0.0, 1.0, -0.5, -0.5)"><path d="M 0.0 0.0 L 1.0 0.0 L 1.0 1.0 L 0.0 1.0 L 0.0 0.0 Z" style="vector-effect: non-scaling-stroke;" /></g><g style="fill: #ffffff;stroke: black;stroke-width: 2.4000000000000004;" transform="matrix(0.016666666666666666, 0.0, 0.0, 0.016666666666666666, 0.0, 0.0)"><image transform="translate(-30.0, -30.0) scale(0.05, 0.05)" xlink:href="../robot.png" /></g></g></g></g></g><g transform="matrix(1.0, 0.0, 0.0, 1.0, 0.0, 1.5)"><g transform="matrix(0.0, -1.0, 1.0, 0.0, 0.0, 0.0)"><g /></g></g></g><g transform="matrix(1.0, 0.0, 0.0, 1.0, 0.0, 2.0)"><g><g><g style="fill: #ffffff;stroke: #cccccc;stroke-width: 2.4000000000000004;" transform="matrix(1.0, 0.0, 0.0, 1.0, -0.5, -0.5)"><path d="M 0.0 0.0 L 1.0 0.0 L 1.0 1.0 L 0.0 1.0 L 0.0 0.0 Z" style="vector-effect: non-scaling-stroke;" /></g><g style="fill: #ffffff;stroke: black;stroke-width: 2.4000000000000004;" transform="matrix(0.016666666666666666, 0.0, 0.0, 0.016666666666666666, 0.0, 0.0)"><image transform="translate(-30.0, -30.0) scale(0.05, 0.05)" xlink:href="../robot.png" /></g></g></g></g></g></g></g></g><g /></g></g><g transform="matrix(1.0, 0.0, 0.0, 1.0, 0.0, 1.7)"><g transform="matrix(0.0, -1.0, 1.0, 0.0, 0.0, 0.0)"><g /></g></g></g><g transform="matrix(1.0, 0.0, 0.0, 1.0, 0.0, 3.4)"><g><g><g transform="matrix(1.0, 0.0, 0.0, 1.0, -1.5, -1.0)"><g><g><g><g><g><g><g><g><g><g><g><g><g style="fill: #ffffff;stroke: #cccccc;stroke-width: 2.4000000000000004;" transform="matrix(1.0, 0.0, 0.0, 1.0, -0.5, -0.5)"><path d="M 0.0 0.0 L 1.0 0.0 L 1.0 1.0 L 0.0 1.0 L 0.0 0.0 Z" style="vector-effect: non-scaling-stroke;" /></g><g style="fill: #ffffff;stroke: black;stroke-width: 2.4000000000000004;" transform="matrix(0.016666666666666666, 0.0, 0.0, 0.016666666666666666, 0.0, 0.0)"><image transform="translate(-30.0, -30.0) scale(0.05, 0.05)" xlink:href="../robot.png" /></g></g></g><g transform="matrix(1.0, 0.0, 0.0, 1.0, 0.0, 0.5)"><g transform="matrix(0.0, -1.0, 1.0, 0.0, 0.0, 0.0)"><g /></g></g></g><g transform="matrix(1.0, 0.0, 0.0, 1.0, 0.0, 1.0)"><g><g><g style="fill: #ffffff;stroke: #cccccc;stroke-width: 2.4000000000000004;" transform="matrix(1.0, 0.0, 0.0, 1.0, -0.5, -0.5)"><path d="M 0.0 0.0 L 1.0 0.0 L 1.0 1.0 L 0.0 1.0 L 0.0 0.0 Z" style="vector-effect: non-scaling-stroke;" /></g><g style="fill: #ffffff;stroke: black;stroke-width: 2.4000000000000004;" transform="matrix(0.016666666666666666, 0.0, 0.0, 0.016666666666666666, 0.0, 0.0)"><image transform="translate(-30.0, -30.0) scale(0.05, 0.05)" xlink:href="../robot.png" /></g></g></g></g></g><g transform="matrix(1.0, 0.0, 0.0, 1.0, 0.0, 1.5)"><g transform="matrix(0.0, -1.0, 1.0, 0.0, 0.0, 0.0)"><g /></g></g></g><g transform="matrix(1.0, 0.0, 0.0, 1.0, 0.0, 2.0)"><g><g><g style="fill: #ffffff;stroke: #cccccc;stroke-width: 2.4000000000000004;" transform="matrix(1.0, 0.0, 0.0, 1.0, -0.5, -0.5)"><path d="M 0.0 0.0 L 1.0 0.0 L 1.0 1.0 L 0.0 1.0 L 0.0 0.0 Z" style="vector-effect: non-scaling-stroke;" /></g><g style="fill: #ffffff;stroke: black;stroke-width: 2.4000000000000004;" transform="matrix(0.016666666666666666, 0.0, 0.0, 0.016666666666666666, 0.0, 0.0)"><image transform="translate(-30.0, -30.0) scale(0.05, 0.05)" xlink:href="../robot.png" /></g></g></g></g></g><g transform="matrix(1.0, 0.0, 0.0, 1.0, 0.5, 0.0)"><g transform="matrix(1.0, -0.0, 0.0, 1.0, 0.0, 0.0)"><g /></g></g></g><g transform="matrix(1.0, 0.0, 0.0, 1.0, 1.0, 0.0)"><g><g><g><g><g><g><g style="fill: #ffffff;stroke: #cccccc;stroke-width: 2.4000000000000004;" transform="matrix(1.0, 0.0, 0.0, 1.0, -0.5, -0.5)"><path d="M 0.0 0.0 L 1.0 0.0 L 1.0 1.0 L 0.0 1.0 L 0.0 0.0 Z" style="vector-effect: non-scaling-stroke;" /></g><g style="fill: #ffffff;stroke: black;stroke-width: 2.4000000000000004;" transform="matrix(0.016666666666666666, 0.0, 0.0, 0.016666666666666666, 0.0, 0.0)"><image transform="translate(-30.0, -30.0) scale(0.05, 0.05)" xlink:href="../robot.png" /></g></g></g><g transform="matrix(1.0, 0.0, 0.0, 1.0, 0.0, 0.5)"><g transform="matrix(0.0, -1.0, 1.0, 0.0, 0.0, 0.0)"><g /></g></g></g><g transform="matrix(1.0, 0.0, 0.0, 1.0, 0.0, 1.0)"><g><g><g style="fill: #ffffff;stroke: #cccccc;stroke-width: 2.4000000000000004;" transform="matrix(1.0, 0.0, 0.0, 1.0, -0.5, -0.5)"><path d="M 0.0 0.0 L 1.0 0.0 L 1.0 1.0 L 0.0 1.0 L 0.0 0.0 Z" style="vector-effect: non-scaling-stroke;" /></g><g style="fill: #ffffff;stroke: black;stroke-width: 2.4000000000000004;" transform="matrix(0.016666666666666666, 0.0, 0.0, 0.016666666666666666, 0.0, 0.0)"><image transform="translate(-30.0, -30.0) scale(0.05, 0.05)" xlink:href="../robot.png" /></g></g></g></g></g><g transform="matrix(1.0, 0.0, 0.0, 1.0, 0.0, 1.5)"><g transform="matrix(0.0, -1.0, 1.0, 0.0, 0.0, 0.0)"><g /></g></g></g><g transform="matrix(1.0, 0.0, 0.0, 1.0, 0.0, 2.0)"><g><g><g style="fill: #ffffff;stroke: #cccccc;stroke-width: 2.4000000000000004;" transform="matrix(1.0, 0.0, 0.0, 1.0, -0.5, -0.5)"><path d="M 0.0 0.0 L 1.0 0.0 L 1.0 1.0 L 0.0 1.0 L 0.0 0.0 Z" style="vector-effect: non-scaling-stroke;" /></g><g style="fill: #ffffff;stroke: black;stroke-width: 2.4000000000000004;" transform="matrix(0.016666666666666666, 0.0, 0.0, 0.016666666666666666, 0.0, 0.0)"><image transform="translate(-30.0, -30.0) scale(0.05, 0.05)" xlink:href="../robot.png" /></g></g></g></g></g></g></g><g transform="matrix(1.0, 0.0, 0.0, 1.0, 1.5, 0.0)"><g transform="matrix(1.0, -0.0, 0.0, 1.0, 0.0, 0.0)"><g /></g></g></g><g transform="matrix(1.0, 0.0, 0.0, 1.0, 2.0, 0.0)"><g><g><g><g><g><g><g style="fill: #ffffff;stroke: #cccccc;stroke-width: 2.4000000000000004;" transform="matrix(1.0, 0.0, 0.0, 1.0, -0.5, -0.5)"><path d="M 0.0 0.0 L 1.0 0.0 L 1.0 1.0 L 0.0 1.0 L 0.0 0.0 Z" style="vector-effect: non-scaling-stroke;" /></g><g style="fill: #ffffff;stroke: black;stroke-width: 2.4000000000000004;" transform="matrix(0.016666666666666666, 0.0, 0.0, 0.016666666666666666, 0.0, 0.0)"><image transform="translate(-30.0, -30.0) scale(0.05, 0.05)" xlink:href="../robot.png" /></g></g></g><g transform="matrix(1.0, 0.0, 0.0, 1.0, 0.0, 0.5)"><g transform="matrix(0.0, -1.0, 1.0, 0.0, 0.0, 0.0)"><g /></g></g></g><g transform="matrix(1.0, 0.0, 0.0, 1.0, 0.0, 1.0)"><g><g><g style="fill: #ffffff;stroke: #cccccc;stroke-width: 2.4000000000000004;" transform="matrix(1.0, 0.0, 0.0, 1.0, -0.5, -0.5)"><path d="M 0.0 0.0 L 1.0 0.0 L 1.0 1.0 L 0.0 1.0 L 0.0 0.0 Z" style="vector-effect: non-scaling-stroke;" /></g><g style="fill: #ffffff;stroke: black;stroke-width: 2.4000000000000004;" transform="matrix(0.016666666666666666, 0.0, 0.0, 0.016666666666666666, 0.0, 0.0)"><image transform="translate(-30.0, -30.0) scale(0.05, 0.05)" xlink:href="../robot.png" /></g></g></g></g></g><g transform="matrix(1.0, 0.0, 0.0, 1.0, 0.0, 1.5)"><g transform="matrix(0.0, -1.0, 1.0, 0.0, 0.0, 0.0)"><g /></g></g></g><g transform="matrix(1.0, 0.0, 0.0, 1.0, 0.0, 2.0)"><g><g><g style="fill: #ffffff;stroke: #cccccc;stroke-width: 2.4000000000000004;" transform="matrix(1.0, 0.0, 0.0, 1.0, -0.5, -0.5)"><path d="M 0.0 0.0 L 1.0 0.0 L 1.0 1.0 L 0.0 1.0 L 0.0 0.0 Z" style="vector-effect: non-scaling-stroke;" /></g><g style="fill: #ffffff;stroke: black;stroke-width: 2.4000000000000004;" transform="matrix(0.016666666666666666, 0.0, 0.0, 0.016666666666666666, 0.0, 0.0)"><image transform="translate(-30.0, -30.0) scale(0.05, 0.05)" xlink:href="../robot.png" /></g></g></g></g></g></g></g><g transform="matrix(1.0, 0.0, 0.0, 1.0, 2.5, 0.0)"><g transform="matrix(1.0, -0.0, 0.0, 1.0, 0.0, 0.0)"><g /></g></g></g><g transform="matrix(1.0, 0.0, 0.0, 1.0, 3.0, 0.0)"><g><g><g><g><g><g><g style="fill: #ffffff;stroke: #cccccc;stroke-width: 2.4000000000000004;" transform="matrix(1.0, 0.0, 0.0, 1.0, -0.5, -0.5)"><path d="M 0.0 0.0 L 1.0 0.0 L 1.0 1.0 L 0.0 1.0 L 0.0 0.0 Z" style="vector-effect: non-scaling-stroke;" /></g><g style="fill: #ffffff;stroke: black;stroke-width: 2.4000000000000004;" transform="matrix(0.016666666666666666, 0.0, 0.0, 0.016666666666666666, 0.0, 0.0)"><image transform="translate(-30.0, -30.0) scale(0.05, 0.05)" xlink:href="../robot.png" /></g></g></g><g transform="matrix(1.0, 0.0, 0.0, 1.0, 0.0, 0.5)"><g transform="matrix(0.0, -1.0, 1.0, 0.0, 0.0, 0.0)"><g /></g></g></g><g transform="matrix(1.0, 0.0, 0.0, 1.0, 0.0, 1.0)"><g><g><g style="fill: #ffffff;stroke: #cccccc;stroke-width: 2.4000000000000004;" transform="matrix(1.0, 0.0, 0.0, 1.0, -0.5, -0.5)"><path d="M 0.0 0.0 L 1.0 0.0 L 1.0 1.0 L 0.0 1.0 L 0.0 0.0 Z" style="vector-effect: non-scaling-stroke;" /></g><g style="fill: #ffffff;stroke: black;stroke-width: 2.4000000000000004;" transform="matrix(0.016666666666666666, 0.0, 0.0, 0.016666666666666666, 0.0, 0.0)"><image transform="translate(-30.0, -30.0) scale(0.05, 0.05)" xlink:href="../robot.png" /></g></g></g></g></g><g transform="matrix(1.0, 0.0, 0.0, 1.0, 0.0, 1.5)"><g transform="matrix(0.0, -1.0, 1.0, 0.0, 0.0, 0.0)"><g /></g></g></g><g transform="matrix(1.0, 0.0, 0.0, 1.0, 0.0, 2.0)"><g><g><g style="fill: #ffffff;stroke: #cccccc;stroke-width: 2.4000000000000004;" transform="matrix(1.0, 0.0, 0.0, 1.0, -0.5, -0.5)"><path d="M 0.0 0.0 L 1.0 0.0 L 1.0 1.0 L 0.0 1.0 L 0.0 0.0 Z" style="vector-effect: non-scaling-stroke;" /></g><g style="fill: #ffffff;stroke: black;stroke-width: 2.4000000000000004;" transform="matrix(0.016666666666666666, 0.0, 0.0, 0.016666666666666666, 0.0, 0.0)"><image transform="translate(-30.0, -30.0) scale(0.05, 0.05)" xlink:href="../robot.png" /></g></g></g></g></g></g></g></g><g /></g></g></g></g><g transform="matrix(1.0, 0.0, 0.0, 1.0, 0.0, 5.1)"><g transform="matrix(0.0, -1.0, 1.0, 0.0, 0.0, 0.0)"><g /></g></g></g><g transform="matrix(1.0, 0.0, 0.0, 1.0, 0.0, 6.8)"><g><g><g transform="matrix(1.0, 0.0, 0.0, 1.0, -1.5, -1.0)"><g><g><g><g><g><g><g><g><g><g><g><g><g style="fill: #ffffff;stroke: #cccccc;stroke-width: 2.4000000000000004;" transform="matrix(1.0, 0.0, 0.0, 1.0, -0.5, -0.5)"><path d="M 0.0 0.0 L 1.0 0.0 L 1.0 1.0 L 0.0 1.0 L 0.0 0.0 Z" style="vector-effect: non-scaling-stroke;" /></g><g style="fill: #ffffff;stroke: black;stroke-width: 2.4000000000000004;" transform="matrix(0.016666666666666666, 0.0, 0.0, 0.016666666666666666, 0.0, 0.0)"><image transform="translate(-30.0, -30.0) scale(0.05, 0.05)" xlink:href="../robot.png" /></g></g></g><g transform="matrix(1.0, 0.0, 0.0, 1.0, 0.0, 0.5)"><g transform="matrix(0.0, -1.0, 1.0, 0.0, 0.0, 0.0)"><g /></g></g></g><g transform="matrix(1.0, 0.0, 0.0, 1.0, 0.0, 1.0)"><g><g><g style="fill: #ffffff;stroke: #cccccc;stroke-width: 2.4000000000000004;" transform="matrix(1.0, 0.0, 0.0, 1.0, -0.5, -0.5)"><path d="M 0.0 0.0 L 1.0 0.0 L 1.0 1.0 L 0.0 1.0 L 0.0 0.0 Z" style="vector-effect: non-scaling-stroke;" /></g><g style="fill: #ffffff;stroke: black;stroke-width: 2.4000000000000004;" transform="matrix(0.016666666666666666, 0.0, 0.0, 0.016666666666666666, 0.0, 0.0)"><image transform="translate(-30.0, -30.0) scale(0.05, 0.05)" xlink:href="../robot.png" /></g></g></g></g></g><g transform="matrix(1.0, 0.0, 0.0, 1.0, 0.0, 1.5)"><g transform="matrix(0.0, -1.0, 1.0, 0.0, 0.0, 0.0)"><g /></g></g></g><g transform="matrix(1.0, 0.0, 0.0, 1.0, 0.0, 2.0)"><g><g><g style="fill: #ffffff;stroke: #cccccc;stroke-width: 2.4000000000000004;" transform="matrix(1.0, 0.0, 0.0, 1.0, -0.5, -0.5)"><path d="M 0.0 0.0 L 1.0 0.0 L 1.0 1.0 L 0.0 1.0 L 0.0 0.0 Z" style="vector-effect: non-scaling-stroke;" /></g><g style="fill: #ffffff;stroke: black;stroke-width: 2.4000000000000004;" transform="matrix(0.016666666666666666, 0.0, 0.0, 0.016666666666666666, 0.0, 0.0)"><image transform="translate(-30.0, -30.0) scale(0.05, 0.05)" xlink:href="../robot.png" /></g></g></g></g></g><g transform="matrix(1.0, 0.0, 0.0, 1.0, 0.5, 0.0)"><g transform="matrix(1.0, -0.0, 0.0, 1.0, 0.0, 0.0)"><g /></g></g></g><g transform="matrix(1.0, 0.0, 0.0, 1.0, 1.0, 0.0)"><g><g><g><g><g><g><g style="fill: #ffffff;stroke: #cccccc;stroke-width: 2.4000000000000004;" transform="matrix(1.0, 0.0, 0.0, 1.0, -0.5, -0.5)"><path d="M 0.0 0.0 L 1.0 0.0 L 1.0 1.0 L 0.0 1.0 L 0.0 0.0 Z" style="vector-effect: non-scaling-stroke;" /></g><g style="fill: #ffffff;stroke: black;stroke-width: 2.4000000000000004;" transform="matrix(0.016666666666666666, 0.0, 0.0, 0.016666666666666666, 0.0, 0.0)"><image transform="translate(-30.0, -30.0) scale(0.05, 0.05)" xlink:href="../robot.png" /></g></g></g><g transform="matrix(1.0, 0.0, 0.0, 1.0, 0.0, 0.5)"><g transform="matrix(0.0, -1.0, 1.0, 0.0, 0.0, 0.0)"><g /></g></g></g><g transform="matrix(1.0, 0.0, 0.0, 1.0, 0.0, 1.0)"><g><g><g style="fill: #ffffff;stroke: #cccccc;stroke-width: 2.4000000000000004;" transform="matrix(1.0, 0.0, 0.0, 1.0, -0.5, -0.5)"><path d="M 0.0 0.0 L 1.0 0.0 L 1.0 1.0 L 0.0 1.0 L 0.0 0.0 Z" style="vector-effect: non-scaling-stroke;" /></g><g style="fill: #ffffff;stroke: black;stroke-width: 2.4000000000000004;" transform="matrix(0.016666666666666666, 0.0, 0.0, 0.016666666666666666, 0.0, 0.0)"><image transform="translate(-30.0, -30.0) scale(0.05, 0.05)" xlink:href="../robot.png" /></g></g></g></g></g><g transform="matrix(1.0, 0.0, 0.0, 1.0, 0.0, 1.5)"><g transform="matrix(0.0, -1.0, 1.0, 0.0, 0.0, 0.0)"><g /></g></g></g><g transform="matrix(1.0, 0.0, 0.0, 1.0, 0.0, 2.0)"><g><g><g style="fill: #ffffff;stroke: #cccccc;stroke-width: 2.4000000000000004;" transform="matrix(1.0, 0.0, 0.0, 1.0, -0.5, -0.5)"><path d="M 0.0 0.0 L 1.0 0.0 L 1.0 1.0 L 0.0 1.0 L 0.0 0.0 Z" style="vector-effect: non-scaling-stroke;" /></g><g style="fill: #ffffff;stroke: black;stroke-width: 2.4000000000000004;" transform="matrix(0.016666666666666666, 0.0, 0.0, 0.016666666666666666, 0.0, 0.0)"><image transform="translate(-30.0, -30.0) scale(0.05, 0.05)" xlink:href="../robot.png" /></g></g></g></g></g></g></g><g transform="matrix(1.0, 0.0, 0.0, 1.0, 1.5, 0.0)"><g transform="matrix(1.0, -0.0, 0.0, 1.0, 0.0, 0.0)"><g /></g></g></g><g transform="matrix(1.0, 0.0, 0.0, 1.0, 2.0, 0.0)"><g><g><g><g><g><g><g style="fill: #ffffff;stroke: #cccccc;stroke-width: 2.4000000000000004;" transform="matrix(1.0, 0.0, 0.0, 1.0, -0.5, -0.5)"><path d="M 0.0 0.0 L 1.0 0.0 L 1.0 1.0 L 0.0 1.0 L 0.0 0.0 Z" style="vector-effect: non-scaling-stroke;" /></g><g style="fill: #ffffff;stroke: black;stroke-width: 2.4000000000000004;" transform="matrix(0.016666666666666666, 0.0, 0.0, 0.016666666666666666, 0.0, 0.0)"><image transform="translate(-30.0, -30.0) scale(0.05, 0.05)" xlink:href="../robot.png" /></g></g></g><g transform="matrix(1.0, 0.0, 0.0, 1.0, 0.0, 0.5)"><g transform="matrix(0.0, -1.0, 1.0, 0.0, 0.0, 0.0)"><g /></g></g></g><g transform="matrix(1.0, 0.0, 0.0, 1.0, 0.0, 1.0)"><g><g><g style="fill: #ffffff;stroke: #cccccc;stroke-width: 2.4000000000000004;" transform="matrix(1.0, 0.0, 0.0, 1.0, -0.5, -0.5)"><path d="M 0.0 0.0 L 1.0 0.0 L 1.0 1.0 L 0.0 1.0 L 0.0 0.0 Z" style="vector-effect: non-scaling-stroke;" /></g><g style="fill: #ffffff;stroke: black;stroke-width: 2.4000000000000004;" transform="matrix(0.016666666666666666, 0.0, 0.0, 0.016666666666666666, 0.0, 0.0)"><image transform="translate(-30.0, -30.0) scale(0.05, 0.05)" xlink:href="../robot.png" /></g></g></g></g></g><g transform="matrix(1.0, 0.0, 0.0, 1.0, 0.0, 1.5)"><g transform="matrix(0.0, -1.0, 1.0, 0.0, 0.0, 0.0)"><g /></g></g></g><g transform="matrix(1.0, 0.0, 0.0, 1.0, 0.0, 2.0)"><g><g><g style="fill: #ffffff;stroke: #cccccc;stroke-width: 2.4000000000000004;" transform="matrix(1.0, 0.0, 0.0, 1.0, -0.5, -0.5)"><path d="M 0.0 0.0 L 1.0 0.0 L 1.0 1.0 L 0.0 1.0 L 0.0 0.0 Z" style="vector-effect: non-scaling-stroke;" /></g><g style="fill: #ffffff;stroke: black;stroke-width: 2.4000000000000004;" transform="matrix(0.016666666666666666, 0.0, 0.0, 0.016666666666666666, 0.0, 0.0)"><image transform="translate(-30.0, -30.0) scale(0.05, 0.05)" xlink:href="../robot.png" /></g></g></g></g></g></g></g><g transform="matrix(1.0, 0.0, 0.0, 1.0, 2.5, 0.0)"><g transform="matrix(1.0, -0.0, 0.0, 1.0, 0.0, 0.0)"><g /></g></g></g><g transform="matrix(1.0, 0.0, 0.0, 1.0, 3.0, 0.0)"><g><g><g><g><g><g><g style="fill: #ffffff;stroke: #cccccc;stroke-width: 2.4000000000000004;" transform="matrix(1.0, 0.0, 0.0, 1.0, -0.5, -0.5)"><path d="M 0.0 0.0 L 1.0 0.0 L 1.0 1.0 L 0.0 1.0 L 0.0 0.0 Z" style="vector-effect: non-scaling-stroke;" /></g><g style="fill: #ffffff;stroke: black;stroke-width: 2.4000000000000004;" transform="matrix(0.016666666666666666, 0.0, 0.0, 0.016666666666666666, 0.0, 0.0)"><image transform="translate(-30.0, -30.0) scale(0.05, 0.05)" xlink:href="../robot.png" /></g></g></g><g transform="matrix(1.0, 0.0, 0.0, 1.0, 0.0, 0.5)"><g transform="matrix(0.0, -1.0, 1.0, 0.0, 0.0, 0.0)"><g /></g></g></g><g transform="matrix(1.0, 0.0, 0.0, 1.0, 0.0, 1.0)"><g><g><g style="fill: #ffffff;stroke: #cccccc;stroke-width: 2.4000000000000004;" transform="matrix(1.0, 0.0, 0.0, 1.0, -0.5, -0.5)"><path d="M 0.0 0.0 L 1.0 0.0 L 1.0 1.0 L 0.0 1.0 L 0.0 0.0 Z" style="vector-effect: non-scaling-stroke;" /></g><g style="fill: #ffffff;stroke: black;stroke-width: 2.4000000000000004;" transform="matrix(0.016666666666666666, 0.0, 0.0, 0.016666666666666666, 0.0, 0.0)"><image transform="translate(-30.0, -30.0) scale(0.05, 0.05)" xlink:href="../robot.png" /></g></g></g></g></g><g transform="matrix(1.0, 0.0, 0.0, 1.0, 0.0, 1.5)"><g transform="matrix(0.0, -1.0, 1.0, 0.0, 0.0, 0.0)"><g /></g></g></g><g transform="matrix(1.0, 0.0, 0.0, 1.0, 0.0, 2.0)"><g><g><g style="fill: #ffffff;stroke: #cccccc;stroke-width: 2.4000000000000004;" transform="matrix(1.0, 0.0, 0.0, 1.0, -0.5, -0.5)"><path d="M 0.0 0.0 L 1.0 0.0 L 1.0 1.0 L 0.0 1.0 L 0.0 0.0 Z" style="vector-effect: non-scaling-stroke;" /></g><g style="fill: #ffffff;stroke: black;stroke-width: 2.4000000000000004;" transform="matrix(0.016666666666666666, 0.0, 0.0, 0.016666666666666666, 0.0, 0.0)"><image transform="translate(-30.0, -30.0) scale(0.05, 0.05)" xlink:href="../robot.png" /></g></g></g></g></g></g></g></g><g /></g></g></g></g></g></g></g><g transform="matrix(1.0, 0.0, 0.0, 1.0, -0.0, -5.225)"><g><g style="fill: #000000;stroke: #ffffff;stroke-width: 0.0;" transform="matrix(1.0, 0.0, 0.0, 1.0, 0.0, 0.0)"><text style="text-align:center;text-anchor:middle;dominant-baseline:middle;font-family:sans-serif;font-weight: bold;font-size:0.25px;vector-effect: non-scaling-stroke" transform="translate(-5e-05, 0)">blockidx.x</text></g><g /></g></g></g></g></g></g></g></g></g><g /></g></g></g></g></svg>
